<svg width="620" height="526" viewBox="0 0 620 526" fill="none" xmlns="http://www.w3.org/2000/svg">
<g opacity="0.1">
<path d="M55.5887 356.387C55.2349 354.468 54.6791 352.6 53.921 350.836C53.4662 349.746 53.6178 348.501 54.3758 347.567L57.4585 343.676L52.8092 337.865L48.5138 340.199C47.5031 340.77 46.2397 340.666 45.2795 339.992C43.7129 338.902 42.0453 337.968 40.2765 337.242C39.2153 336.827 38.4573 335.789 38.3562 334.596L37.9014 329.615L30.6243 328.889L29.2093 333.714C28.8556 334.855 27.9459 335.685 26.7836 335.893C24.9138 336.256 23.0946 336.827 21.3764 337.605C20.3151 338.072 19.1023 337.916 18.1927 337.138L14.4025 333.973L8.74259 338.747L11.0167 343.157C11.5726 344.194 11.4715 345.492 10.8145 346.477C9.7533 348.086 8.84366 349.798 8.13616 351.614C7.73188 352.703 6.72118 353.482 5.55887 353.585L0.707505 354.052L0 361.524L4.69978 362.977C5.81155 363.34 6.62011 364.274 6.82225 365.467C7.17599 367.387 7.73189 369.255 8.48992 371.019C8.94473 372.108 8.79313 373.405 8.0351 374.287L4.95246 378.179L9.60168 383.99L13.8972 381.655C14.9079 381.084 16.1713 381.188 17.1314 381.862C18.698 382.952 20.3657 383.886 22.1344 384.612C23.1957 385.027 23.9537 386.065 24.0547 387.258L24.5096 392.239L31.7866 392.966L33.2016 388.14C33.5554 386.999 34.465 386.169 35.6273 385.961C37.4971 385.598 39.3164 385.027 41.0346 384.249C42.0958 383.782 43.3086 383.938 44.2183 384.716L48.0084 387.881L53.6684 383.108L51.3943 378.697C50.8384 377.66 50.9394 376.363 51.5964 375.377C52.6576 373.768 53.5673 372.056 54.2748 370.24C54.6791 369.151 55.6898 368.372 56.8521 368.269L61.7034 367.802L62.4109 360.33L57.7112 358.878C56.6499 358.514 55.7908 357.529 55.5887 356.387ZM29.4115 379.943C19.2034 378.905 11.7242 369.566 12.7349 359.085C13.7456 348.605 22.8419 340.926 33.05 341.963C43.2581 343.001 50.7373 352.34 49.7266 362.821C48.7159 373.301 39.6196 380.928 29.4115 379.943Z" fill="#2A94F4"/>
<path d="M18.9022 359.655C19.5592 352.651 25.6234 347.566 32.4456 348.24C39.2679 348.915 44.2203 355.141 43.5634 362.145C42.9064 369.15 36.8422 374.234 30.02 373.56C23.1977 372.885 18.2453 366.659 18.9022 359.655Z" fill="#2A94F4"/>
</g>
<path opacity="0.1" d="M281.836 525.584C408.128 525.584 510.507 517.082 510.507 506.594C510.507 496.106 408.128 487.604 281.836 487.604C155.544 487.604 53.1641 496.106 53.1641 506.594C53.1641 517.082 155.544 525.584 281.836 525.584Z" fill="#2A94F4"/>
<path opacity="0.19" d="M212.5 446.048C212.5 450.458 215.987 454.038 220.282 454.038H499.893C504.189 454.038 507.676 450.458 507.676 446.048V198.872H212.551V446.048H212.5Z" fill="#FFB3A6"/>
<path d="M300.33 343.986C301.644 348.656 303.463 353.17 305.788 357.476C307.203 360.07 307.102 363.287 305.485 365.778L298.713 376.206L311.701 389.541L321.858 382.588C324.284 380.928 327.417 380.824 329.944 382.277C334.088 384.663 338.484 386.531 343.083 387.88C345.862 388.71 347.985 391.045 348.591 394.003L350.966 406.299H369.311L371.736 393.951C372.292 391.045 374.415 388.659 377.245 387.828C381.793 386.479 386.189 384.612 390.384 382.225C392.911 380.772 396.044 380.876 398.469 382.536L408.627 389.489L421.614 376.155L414.843 365.726C413.226 363.235 413.125 360.019 414.54 357.424C416.864 353.17 418.683 348.656 419.997 343.935C420.806 341.081 423.08 338.902 425.96 338.279L437.937 335.841V317.007L425.91 314.516C423.08 313.945 420.755 311.766 419.947 308.861C418.633 304.191 416.814 299.677 414.489 295.371C413.074 292.777 413.175 289.56 414.792 287.07L421.564 276.641L408.576 263.307L398.419 270.259C395.993 271.919 392.86 272.023 390.333 270.57C386.189 268.184 381.793 266.316 377.194 264.967C374.415 264.137 372.292 261.802 371.686 258.845L369.311 246.548H350.966L348.541 258.896C347.985 261.802 345.862 264.189 343.032 265.019C338.484 266.368 334.088 268.236 329.893 270.622C327.366 272.075 324.233 271.971 321.808 270.311L311.65 263.359L298.662 276.693L305.434 287.121C307.051 289.612 307.152 292.829 305.737 295.423C303.413 299.677 301.593 304.191 300.28 308.913C299.471 311.766 297.197 313.945 294.316 314.568L282.34 317.007V335.841L294.367 338.331C297.247 338.902 299.572 341.081 300.33 343.986ZM360.063 278.561C385.785 278.561 406.656 299.989 406.656 326.398C406.656 352.807 385.785 374.235 360.063 374.235C334.34 374.235 313.469 352.807 313.469 326.398C313.469 300.041 334.34 278.612 360.063 278.561ZM212.5 158.968V182.886H507.625V158.968C507.625 154.558 504.138 150.978 499.843 150.978H220.232C215.936 150.978 212.5 154.558 212.5 158.968ZM290.173 158.968H305.687V174.948H290.173V158.968ZM259.093 158.968H274.608V174.948H259.093V158.968ZM228.014 158.968H243.529V174.948H228.014V158.968Z" fill="#EEB89A"/>
<path d="M391.145 326.456C391.145 344.045 377.247 358.365 360.065 358.365C342.883 358.365 328.986 344.097 328.986 326.456C328.986 308.867 342.883 294.547 360.065 294.547C377.197 294.547 391.145 308.815 391.145 326.456ZM367.848 15.4628C367.848 11.0527 364.361 7.47266 360.065 7.47266H80.4543C76.1588 7.47266 72.6719 11.0527 72.6719 15.4628V39.3814H367.797V15.4628H367.848ZM103.751 31.3912H88.2367V15.4628H103.751V31.3912ZM134.83 31.3912H119.316V15.4628H134.83V31.3912ZM165.909 31.3912H150.395V15.4628H165.909V31.3912Z" fill="#EEB89A"/>
<path opacity="0.19" d="M196.938 158.969C196.938 145.739 207.348 135.051 220.235 135.051H367.797V55.3047H72.6719V302.481C72.6719 306.891 76.1588 310.471 80.4543 310.471H196.938V158.969ZM259.096 95.2036H274.61V111.132H259.096V95.2036ZM228.017 95.2036H243.531V111.132H228.017V95.2036ZM196.938 95.2036H212.452V111.132H196.938V95.2036ZM165.909 286.552H103.751V270.624H165.909V286.552ZM165.909 254.643H103.751V238.715H165.909V254.643ZM165.909 222.787H103.751V206.858H165.909V222.787ZM165.909 190.878H103.751V174.949H165.909V190.878ZM165.909 158.969H103.751V143.041H165.909V158.969ZM165.909 111.132V95.2036H181.424V111.132H165.909Z" fill="#FFB3A6"/>
<path d="M257.73 383.059L258.034 374.654L263.845 376.47L264.957 386.951C264.957 386.951 259.398 387.314 257.73 383.059Z" fill="#FCD2B1"/>
<path d="M258.236 383.107C259.6 383.678 261.874 384.196 264.704 383.522L264.351 381.135C264.351 381.135 265.968 382.121 266.372 384.3C266.776 386.427 266.877 385.857 269.505 387.517C272.184 389.177 271.982 392.913 271.982 392.913L252.172 392.394C252.172 392.394 251.616 388.295 255.204 383.937C255.911 383.003 257.175 382.64 258.236 383.107Z" fill="#0E538C"/>
<path d="M226.245 259.522C226.245 259.522 223.668 269.847 227.306 276.333C230.945 282.818 237.514 268.446 237.514 268.446C237.514 268.446 236.352 254.645 226.245 259.522Z" fill="#FFBE55"/>
<path d="M224.428 210.543C224.428 210.543 211.087 229.17 208.863 240.428C206.589 251.687 209.015 276.28 209.015 276.28H214.473C214.473 276.28 217.353 244.89 219.173 240.428C220.992 235.863 232.817 214.798 232.817 214.798L224.428 210.543Z" fill="#FFE3CA"/>
<path d="M222.154 391.985H272.79V397.952H222.154V391.985ZM211.339 433.181H265.766V439.148H211.339V433.181ZM206.438 473.028H260.864V478.995H206.438V473.028Z" fill="#D3D3D3"/>
<path d="M200.978 512.663H194.914L239.587 296.929H242.973L200.978 512.663ZM264.299 512.663H258.235L293.66 290.858L296.641 292.311L264.299 512.663Z" fill="#D3D3D3"/>
<path d="M252.02 512.663L284.615 297.292L239.588 296.929L194.915 512.663H187.941L233.322 290.858H293.661L260.156 512.663H251.009" fill="#F7F7F7"/>
<path d="M231.551 383.059L231.854 374.654L237.666 376.47L238.777 386.951C238.727 386.951 233.218 387.314 231.551 383.059Z" fill="#FCD2B1"/>
<path d="M288.908 193.421C288.908 193.421 303.31 192.332 305.029 185.483C306.747 178.634 306.444 160.164 306.444 160.164H311.447C311.447 160.164 314.883 177.337 314.681 185.483C314.479 193.629 304.827 207.534 288.908 206.652C273.04 205.77 288.908 193.421 288.908 193.421Z" fill="#FFE3CA"/>
<path d="M242.265 192.539C242.265 192.539 233.926 193.421 230.49 197.157C228.822 198.973 218.463 212.151 218.867 215.005L231.046 222.788L241.001 208.623L242.265 192.539Z" fill="#1A2373"/>
<path d="M229.227 255.995C229.227 255.995 225.639 266.891 229.024 278.824C232.41 290.757 232.41 314.831 232.107 321.109C231.804 327.387 226.093 345.547 230.945 377.611H238.424C238.424 377.611 242.972 343.99 245.6 329.67C248.076 316.232 251.209 282.715 251.209 282.715C251.209 282.715 260.609 314.52 259.042 322.718C257.324 331.746 257.122 377.559 257.122 377.559H264.652C264.652 377.559 273.091 338.127 273.596 327.543C274.152 316.959 272.99 257.603 272.99 257.603C272.99 257.603 247.925 240.118 229.227 255.995Z" fill="#0B4870"/>
<path d="M254.9 171.839L247.27 195.81L261.066 198.611L264.098 173.759L254.9 171.839Z" fill="#FCD2B1"/>
<path d="M262.734 191.194C262.734 191.194 272.083 193.165 273.043 205.721C274.003 218.277 275.317 271.822 275.317 276.439C275.014 278.567 238.679 285.675 227.865 274.883C225.136 272.133 234.08 225.541 232.817 213.296C231.503 201.104 238.578 185.59 262.734 191.194Z" fill="#1A2373"/>
<path d="M273.597 216.305C273.597 216.305 277.337 207.537 288.91 206.655C288.91 206.655 291.689 198.509 288.91 193.424C288.91 193.424 267.937 189.014 259.953 190.674C251.968 192.335 273.597 216.305 273.597 216.305Z" fill="#1A2373"/>
<path d="M311.397 164.778C311.397 164.778 312.964 156.165 310.184 151.288C308.517 148.382 306.697 147.033 304.878 147.552C303.665 147.915 303.16 150.094 303.463 151.34C303.867 152.948 305.181 157.358 305.889 158.603C305.889 158.603 304.625 158.603 303.311 155.698C302.048 152.844 301.088 157.047 302.099 159.018C303.615 161.872 308.618 169.707 311.397 164.778Z" fill="#FFE3CA"/>
<path d="M232.005 383.107C233.37 383.678 235.644 384.196 238.474 383.522L238.12 381.135C238.12 381.135 239.737 382.121 240.142 384.3C240.546 386.427 240.647 385.857 243.275 387.517C245.953 389.177 245.751 392.913 245.751 392.913L225.941 392.394C225.941 392.394 225.385 388.295 228.973 383.937C229.731 383.003 230.944 382.64 232.005 383.107Z" fill="#0E538C"/>
<path d="M274.457 168.262C274.103 165.253 280.47 163.229 268.291 154.409C262.075 149.947 251.261 151.919 247.926 158.663C244.59 165.408 246.359 166.083 243.782 166.55C241.204 167.069 243.933 187.926 259.498 187.667C275.113 187.407 274.457 168.262 274.457 168.262Z" fill="#0B4870"/>
<path d="M227.105 252.262H274.507C276.427 252.262 277.994 253.714 278.196 255.634C279.004 262.95 279.863 279.553 271.525 280.746C260.812 282.303 257.375 270.421 257.375 259.37L226.246 259.525C226.246 259.525 225.184 254.233 227.105 252.262Z" fill="#EEB89A"/>
<path d="M214.119 273.374C214.119 273.374 213.21 284.426 216.697 287.435C220.184 290.496 210.531 291.845 208.156 286.242C205.781 280.638 209.015 273.374 209.015 273.374H214.119Z" fill="#FFE3CA"/>
<path d="M213.21 274.828C213.21 274.828 216.444 275.398 217.657 278.978C218.364 281.002 218.769 283.181 218.971 284.686C219.122 285.671 218.011 286.346 217.202 285.723C216.394 285.101 215.635 284.167 215.737 282.558C215.989 279.186 212.048 280.172 212.048 280.172C212.048 280.172 210.734 276.177 213.21 274.828Z" fill="#FFE3CA"/>
<path d="M266.121 259.887H263.645V252.363C263.645 251.948 263.998 251.585 264.403 251.585H265.413C265.818 251.585 266.171 251.948 266.171 252.363V259.887H266.121ZM269.81 259.887H267.334V254.906C267.334 254.491 267.687 254.127 268.092 254.127H269.102C269.507 254.127 269.86 254.491 269.86 254.906V259.887H269.81ZM274.51 259.887H271.073V249.043C271.073 248.472 271.528 248.005 272.084 248.005H273.499C274.055 248.005 274.51 248.472 274.51 249.043V259.887Z" fill="#F7F7F7"/>
<path opacity="0.32" d="M258.184 259.887H277.286V261.547H258.184V259.887Z" fill="#161616"/>
<path d="M101.626 410.243C100.717 407.857 99.605 405.522 98.19 403.394C97.3309 402.097 97.2804 400.385 97.9879 399.036L101.121 393.225L93.7429 386.792L88.6894 390.942C87.4765 391.928 85.8594 392.136 84.4444 391.461C82.1704 390.423 79.7446 389.593 77.319 389.126C75.8029 388.815 74.5901 387.674 74.1858 386.169L72.4171 379.839L62.7648 380.669L62.0068 387.259C61.8552 388.815 60.794 390.164 59.379 390.735C57.0544 391.669 54.7803 392.81 52.7083 394.263C51.445 395.145 49.7773 395.197 48.4634 394.47L42.8034 391.254L36.5371 398.829L40.5799 404.017C41.5401 405.262 41.7422 406.923 41.0853 408.375C40.0746 410.71 39.266 413.201 38.8112 415.691C38.508 417.248 37.3962 418.493 35.9307 418.908L29.7148 420.724L30.5234 430.634L36.9414 431.412C38.4574 431.568 39.7713 432.657 40.3272 434.11C41.2369 436.497 42.3486 438.831 43.7636 440.959C44.6227 442.256 44.6732 443.968 43.9658 445.317L40.8326 451.128L48.2107 457.561L53.2642 453.411C54.4771 452.425 56.0942 452.217 57.5092 452.892C59.7833 453.93 62.209 454.76 64.6346 455.227C66.1507 455.538 67.3635 456.679 67.7678 458.184L69.5365 464.566L79.1888 463.736L79.9468 457.146C80.0984 455.59 81.1596 454.241 82.5746 453.67C84.8993 452.736 87.1733 451.595 89.2453 450.142C90.5087 449.26 92.1763 449.208 93.4902 449.935L99.1502 453.151L105.417 445.576L101.374 440.388C100.414 439.143 100.211 437.482 100.868 436.03C101.879 433.695 102.688 431.204 103.142 428.714C103.446 427.157 104.557 425.912 106.023 425.497L112.239 423.681L111.43 413.771L105.012 412.993C103.496 412.785 102.182 411.696 101.626 410.243ZM73.0235 447.34C59.48 448.482 47.6043 438.157 46.442 424.252C45.3302 410.347 55.3867 398.154 68.9301 396.961C82.4736 395.819 94.3493 406.144 95.5116 420.049C96.6234 433.954 86.5669 446.147 73.0235 447.34Z" fill="#EEB89A"/>
<path d="M54.6286 423.583C53.8706 414.295 60.5918 406.15 69.587 405.371C78.6328 404.593 86.5668 411.494 87.3249 420.729C88.0829 430.016 81.3617 438.162 72.3665 438.94C63.3207 439.719 55.3867 432.87 54.6286 423.583Z" fill="#EEB89A"/>
<path d="M180.309 341.967C177.883 339.736 175.255 337.764 172.375 336.156C170.606 335.17 169.595 333.25 169.646 331.227L169.898 322.614L157.669 319.708L154.232 327.543C153.424 329.411 151.655 330.656 149.634 330.76C146.4 330.915 143.165 331.486 140.032 332.42C138.112 332.991 136.04 332.42 134.675 330.915L128.965 324.637L118.302 331.434L121.233 339.528C121.941 341.448 121.536 343.627 120.172 345.131C117.999 347.622 116.078 350.32 114.512 353.277C113.552 355.093 111.682 356.131 109.711 356.079L101.322 355.82L98.4922 368.376L106.123 371.904C107.942 372.734 109.155 374.55 109.256 376.625C109.408 379.946 109.964 383.266 110.823 386.483C111.379 388.455 110.823 390.582 109.357 391.983L103.242 397.846L109.863 408.793L117.746 405.732C119.616 405.006 121.688 405.421 123.204 406.822C125.63 409.053 128.257 411.024 131.138 412.633C132.907 413.618 133.968 415.538 133.867 417.562L133.614 426.174L145.844 429.08L149.28 421.245C150.089 419.378 151.857 418.132 153.879 418.029C157.113 417.873 160.347 417.302 163.48 416.42C165.401 415.849 167.473 416.42 168.837 417.925L174.548 424.203L185.211 417.406L182.279 409.312C181.572 407.392 181.976 405.213 183.341 403.709C185.514 401.218 187.434 398.52 189.001 395.563C189.961 393.747 191.831 392.709 193.801 392.761L202.19 393.02L205.02 380.465L197.39 376.936C195.57 376.106 194.357 374.29 194.256 372.215C194.105 368.894 193.549 365.574 192.69 362.357C192.134 360.385 192.69 358.258 194.155 356.857L200.27 350.994L193.65 340.047L185.766 343.056C183.897 343.731 181.825 343.316 180.309 341.967ZM168.686 402.204C153.727 411.803 134.018 407.081 124.669 391.723C115.32 376.366 119.919 356.131 134.878 346.532C149.836 336.934 169.545 341.655 178.894 357.013C188.192 372.423 183.644 392.605 168.686 402.204Z" fill="#CCE9FF"/>
<path d="M133.718 385.914C127.502 375.693 130.534 362.203 140.54 355.821C150.546 349.44 163.635 352.553 169.85 362.826C176.066 373.047 173.034 386.537 163.028 392.919C153.073 399.3 139.934 396.187 133.718 385.914Z" fill="#CCE9FF"/>
<path d="M533.905 100.446C531.934 103.04 530.317 105.842 529.003 108.851C528.195 110.667 526.477 111.912 524.506 112.016L516.268 112.431L514.449 124.935L522.181 127.789C524 128.463 525.314 130.175 525.567 132.147C525.971 135.416 526.729 138.581 527.892 141.642C528.599 143.51 528.195 145.637 526.881 147.142L521.373 153.368L528.7 163.537L536.179 159.957C537.948 159.127 540.02 159.334 541.587 160.58C544.113 162.603 546.842 164.263 549.773 165.612C551.542 166.442 552.755 168.206 552.856 170.23L553.26 178.687L565.439 180.555L568.219 172.617C568.876 170.749 570.543 169.4 572.464 169.14C575.647 168.725 578.73 167.947 581.712 166.754C583.531 166.027 585.603 166.442 587.068 167.791L593.132 173.499L603.037 165.975L599.55 158.297C598.742 156.481 598.944 154.353 600.157 152.745C602.128 150.151 603.745 147.349 605.059 144.34C605.867 142.524 607.586 141.279 609.556 141.175L617.794 140.76L619.613 128.256L611.881 125.402C610.062 124.728 608.748 123.015 608.495 121.044C608.091 117.775 607.333 114.61 606.171 111.549C605.463 109.681 605.867 107.554 607.181 106.049L612.74 99.8233L605.413 89.654L597.933 93.234C596.165 94.0641 594.093 93.8566 592.526 92.6114C589.999 90.5879 587.27 88.9276 584.339 87.5786C582.571 86.7485 581.358 84.9844 581.257 82.9609L580.852 74.5038L568.673 72.636L565.894 80.5743C565.237 82.4421 563.569 83.7911 561.649 84.0505C558.465 84.4656 555.383 85.2438 552.401 86.4372C550.582 87.1635 548.51 86.7485 547.044 85.3995L540.98 79.6922L531.075 87.2154L534.562 94.8943C535.32 96.7102 535.118 98.8375 533.905 100.446ZM592.172 107.45C602.431 121.718 599.5 141.901 585.603 152.434C571.706 162.966 552.047 159.957 541.789 145.689C531.53 131.421 534.461 111.238 548.358 100.705C562.306 90.1728 581.914 93.1821 592.172 107.45Z" fill="#EEB89A"/>
<path d="M579.387 143.822C570.089 150.878 557.05 148.855 550.178 139.308C543.305 129.761 545.276 116.375 554.574 109.319C563.873 102.263 576.911 104.286 583.784 113.833C590.656 123.328 588.686 136.766 579.387 143.822Z" fill="#EEB89A"/>
<path d="M409.184 58.5253C408.426 62.7279 408.174 66.9824 408.325 71.2369C408.426 73.8311 407.163 76.3215 404.939 77.6186L395.691 83.0664L400.795 98.6317L411.408 97.2308C413.935 96.9195 416.411 98.061 417.826 100.188C420.201 103.716 422.93 106.933 425.962 109.787C427.832 111.551 428.59 114.249 427.933 116.739L425.153 127.272L439.455 134.587L446.024 125.923C447.591 123.847 450.118 122.862 452.594 123.329C456.687 124.107 460.831 124.418 464.975 124.211C467.502 124.107 469.928 125.404 471.191 127.687L476.497 137.182L491.658 131.941L490.293 121.046C489.99 118.451 491.102 115.909 493.174 114.456C496.61 112.07 499.743 109.216 502.523 106.103C504.241 104.183 506.869 103.405 509.294 104.08L519.604 106.933L526.729 92.1981L518.239 85.4531C516.218 83.8447 515.258 81.2505 515.712 78.7082C516.47 74.5056 516.774 70.2511 516.571 65.9966C516.47 63.4024 517.784 60.9119 519.957 59.6148L529.205 54.167L524.101 38.6018L513.489 40.0026C510.962 40.3139 508.486 39.1725 507.071 37.0452C504.746 33.5171 501.967 30.3003 498.935 27.4467C497.065 25.6826 496.307 22.9847 496.964 20.4942L499.743 9.90986L485.492 2.59421L478.923 11.2589C477.356 13.3342 474.829 14.32 472.353 13.8531C468.26 13.0748 464.116 12.7635 459.972 12.971C457.445 13.0748 455.02 11.7777 453.756 9.49479L448.45 0L433.29 5.2403L434.654 16.136C434.957 18.7302 433.845 21.2725 431.773 22.7252C428.337 25.1119 425.204 27.9655 422.424 31.0786C420.706 32.9983 418.078 33.7766 415.653 33.1021L405.344 30.2484L398.218 44.9835L406.658 51.7285C408.729 53.3369 409.69 55.9311 409.184 58.5253ZM480.59 31.1823C500.703 41.4554 508.89 66.5154 498.935 87.1653C488.929 107.815 464.52 116.22 444.407 105.999C424.294 95.7262 416.108 70.6661 426.063 50.0163C436.069 29.3664 460.477 20.9612 480.59 31.1823Z" fill="#CCE9FF"/>
<path d="M486.755 80.9879C480.085 94.7371 463.812 100.393 450.42 93.5438C437.029 86.6951 431.52 69.9884 438.191 56.2391C444.862 42.4899 461.134 36.8345 474.526 43.6832C487.968 50.48 493.426 67.1867 486.755 80.9879Z" fill="#CCE9FF"/>
</svg>
