<svg width="253" height="252" viewBox="0 0 253 252" fill="none" xmlns="http://www.w3.org/2000/svg">
<g filter="url(#filter0_d_43_774)">
<rect x="16" y="18" width="197" height="196" rx="50" fill="black"/>
<ellipse cx="114.5" cy="116.403" rx="7.22576" ry="7.22576" fill="white"/>
<path d="M171.68 141.157C174.619 142.45 175.975 145.895 174.437 148.714C169.36 158.015 162.174 166.032 153.424 172.103C143.077 179.282 130.947 183.459 118.374 184.173C105.801 184.888 93.2761 182.112 82.1828 176.152C71.0894 170.192 61.8604 161.28 55.5158 150.402C49.1713 139.524 45.9586 127.103 46.2327 114.513C46.5069 101.923 50.2573 89.6545 57.0693 79.063C63.8813 68.4715 73.4896 59.97 84.8318 54.4985C94.4239 49.8713 104.94 47.5636 115.536 47.7244C118.746 47.7731 121.077 50.6497 120.756 53.8444V53.8444C120.434 57.0391 117.58 59.3369 114.369 59.3443C105.914 59.3638 97.5437 61.2762 89.8838 64.9713C80.473 69.511 72.5009 76.5648 66.8488 85.3528C61.1968 94.1407 58.085 104.32 57.8576 114.767C57.6301 125.213 60.2958 135.518 65.5599 144.544C70.8241 153.57 78.4816 160.964 87.6859 165.909C96.8902 170.854 107.283 173.157 117.714 172.565C128.146 171.972 138.211 168.506 146.796 162.55C153.783 157.702 159.569 151.358 163.749 144.008C165.336 141.217 168.741 139.864 171.68 141.157V141.157Z" fill="#FC5223"/>
<path d="M150.286 132.05C153.377 133.401 154.821 137.029 153.066 139.909C149.819 145.239 145.49 149.857 140.335 153.452C133.504 158.216 125.488 160.999 117.174 161.492C108.86 161.984 100.571 160.169 93.2248 156.245C85.8783 152.321 79.7598 146.443 75.5459 139.259C71.3321 132.075 69.1869 123.865 69.3476 115.539C69.5083 107.212 71.9686 99.0914 76.4565 92.0756C80.9444 85.0598 87.2851 79.4218 94.7776 75.7848C100.432 73.0402 106.576 71.5158 112.812 71.2827C116.182 71.1568 118.644 74.1882 118.315 77.5445V77.5445C117.985 80.901 114.98 83.2956 111.62 83.5903C107.639 83.9396 103.737 85.0118 100.111 86.7718C94.6451 89.4252 90.0192 93.5385 86.745 98.6569C83.4708 103.775 81.6759 109.7 81.5587 115.774C81.4414 121.849 83.0065 127.839 86.0807 133.08C89.155 138.321 93.6188 142.61 98.9785 145.472C104.338 148.335 110.385 149.66 116.451 149.3C122.516 148.94 128.364 146.91 133.348 143.435C136.654 141.129 139.494 138.247 141.742 134.943C143.639 132.154 147.196 130.7 150.286 132.05V132.05Z" fill="#FC5223"/>
<path d="M127.824 124.899C130.562 126.644 131.408 130.36 128.993 132.53C127.501 133.872 125.822 135.006 124.002 135.894C120.408 137.647 116.401 138.371 112.421 137.988C108.442 137.604 104.646 136.128 101.453 133.722C98.2608 131.316 95.7957 128.074 94.3307 124.354C92.8657 120.635 92.4578 116.582 93.1522 112.645C93.8466 108.708 95.6162 105.04 98.2654 102.046C100.915 99.0518 104.34 96.8487 108.163 95.68C110.1 95.0879 112.102 94.773 114.108 94.7367C117.354 94.678 119.269 97.9722 118.456 101.116L118.35 101.528C117.595 104.444 114.481 106.044 111.6 106.925V106.925C109.851 107.459 108.284 108.467 107.071 109.837C105.859 111.207 105.049 112.886 104.732 114.688C104.414 116.489 104.601 118.343 105.271 120.045C105.941 121.747 107.069 123.231 108.53 124.332C109.991 125.433 111.728 126.108 113.549 126.284C115.37 126.459 117.204 126.128 118.848 125.326V125.326C121.555 124.006 124.925 123.052 127.465 124.671L127.824 124.899Z" fill="#FC5223"/>
<path d="M115.25 88.8776C115.33 85.9288 117.802 83.5597 120.699 84.1159C124.018 84.7532 127.23 85.9006 130.218 87.5267C134.775 90.0071 138.68 93.5309 141.614 97.8098C144.549 102.089 146.429 107.001 147.1 112.146C147.541 115.519 147.454 118.928 146.852 122.254C146.327 125.157 143.227 126.61 140.447 125.622V125.622C137.667 124.635 136.286 121.57 136.582 118.635C136.753 116.942 136.73 115.229 136.508 113.529C136.054 110.056 134.785 106.74 132.804 103.851C130.824 100.963 128.187 98.5838 125.111 96.9093C123.606 96.09 122.016 95.4507 120.375 95.0002C117.53 94.2194 115.169 91.8264 115.25 88.8776V88.8776Z" fill="white"/>
<path d="M115.946 66.1811C116.029 63.2062 118.515 60.8362 121.469 61.2018C128.533 62.0763 135.387 64.2752 141.664 67.6997C149.523 71.9865 156.255 78.0723 161.31 85.4594C166.365 92.8465 169.601 101.325 170.752 110.202C171.671 117.294 171.239 124.478 169.496 131.38C168.768 134.266 165.658 135.725 162.855 134.726V134.726C160.052 133.727 158.622 130.648 159.287 127.747C160.496 122.463 160.764 116.992 160.064 111.588C159.132 104.397 156.511 97.5296 152.416 91.546C148.321 85.5625 142.868 80.633 136.503 77.1607C131.72 74.5511 126.523 72.8201 121.159 72.0345C118.215 71.6031 115.862 69.1559 115.946 66.1811V66.1811Z" fill="white"/>
</g>
<defs>
<filter id="filter0_d_43_774" x="0" y="0" width="253" height="252" filterUnits="userSpaceOnUse" color-interpolation-filters="sRGB">
<feFlood flood-opacity="0" result="BackgroundImageFix"/>
<feColorMatrix in="SourceAlpha" type="matrix" values="0 0 0 0 0 0 0 0 0 0 0 0 0 0 0 0 0 0 127 0" result="hardAlpha"/>
<feMorphology radius="10" operator="dilate" in="SourceAlpha" result="effect1_dropShadow_43_774"/>
<feOffset dx="12" dy="10"/>
<feGaussianBlur stdDeviation="9"/>
<feComposite in2="hardAlpha" operator="out"/>
<feColorMatrix type="matrix" values="0 0 0 0 0 0 0 0 0 0 0 0 0 0 0 0 0 0 0.25 0"/>
<feBlend mode="normal" in2="BackgroundImageFix" result="effect1_dropShadow_43_774"/>
<feBlend mode="normal" in="SourceGraphic" in2="effect1_dropShadow_43_774" result="shape"/>
</filter>
</defs>
</svg>
