<svg width="24" height="24" viewBox="0 0 24 24" fill="none" xmlns="http://www.w3.org/2000/svg">
<path fill-rule="evenodd" clip-rule="evenodd" d="M19.0003 21C21.2094 21 23.0003 19.2091 23.0003 17V8.02268C23.0006 8.00739 23.0006 7.99206 23.0003 7.9767V7C23.0003 4.79086 21.2094 3 19.0003 3H5.00027C2.79113 3 1.00027 4.79086 1.00027 7V7.97671C0.999911 7.99206 0.999912 8.00739 1.00027 8.02268V17C1.00027 19.2091 2.79113 21 5.00027 21H19.0003ZM3.00027 17C3.00027 18.1046 3.8957 19 5.00027 19H19.0003C20.1048 19 21.0003 18.1046 21.0003 17V9.47703L13.4858 12.4828C12.5322 12.8643 11.4683 12.8643 10.5147 12.4828L3.00027 9.47703V17ZM12.743 10.6259L21.0003 7.32297V7C21.0003 5.89543 20.1048 5 19.0003 5H5.00027C3.8957 5 3.00027 5.89543 3.00027 7V7.32297L11.2575 10.6259C11.7343 10.8166 12.2662 10.8166 12.743 10.6259Z" fill="#FF5A3D"/>
</svg>
