<svg width="149" height="51" viewBox="0 0 149 51" fill="none" xmlns="http://www.w3.org/2000/svg">
<rect width="148.61" height="50.435" rx="8" fill="black"/>
<path d="M33.8622 32.8774C32.725 33.8906 31.4833 33.7307 30.2881 33.2507C29.0233 32.7601 27.8629 32.7388 26.5284 33.2507C24.8574 33.912 23.9755 33.72 22.9775 32.8774C17.3147 27.5128 18.1502 19.3431 24.5789 19.0445C26.1455 19.1192 27.2362 19.8337 28.153 19.8977C29.5222 19.6418 30.8335 18.9059 32.2956 19.0018C34.0478 19.1298 35.3707 19.7697 36.241 20.9216C32.6205 22.916 33.4792 27.2995 36.798 28.526C36.1366 30.1258 35.2779 31.7149 33.8506 32.8881L33.8622 32.8774ZM28.0369 18.9805C27.8629 16.6021 29.9632 14.6397 32.3768 14.4478C32.7134 17.1994 29.6615 19.2471 28.0369 18.9805Z" fill="white"/>
<path d="M55.3499 17V10H57.4999C58.3265 10 59.0032 10.1433 59.5299 10.43C60.0632 10.71 60.4565 11.1133 60.7099 11.64C60.9699 12.16 61.0999 12.7867 61.0999 13.52C61.0999 14.24 60.9699 14.86 60.7099 15.38C60.4565 15.9 60.0632 16.3 59.5299 16.58C59.0032 16.86 58.3265 17 57.4999 17H55.3499ZM56.1899 16.3H57.4799C58.1465 16.3 58.6799 16.1933 59.0799 15.98C59.4865 15.76 59.7799 15.4433 59.9599 15.03C60.1399 14.61 60.2299 14.1067 60.2299 13.52C60.2299 12.5667 60.0099 11.86 59.5699 11.4C59.1299 10.9333 58.4332 10.7 57.4799 10.7H56.1899V16.3ZM64.5528 17.12C64.0994 17.12 63.6828 17.02 63.3028 16.82C62.9228 16.6133 62.6194 16.3167 62.3928 15.93C62.1661 15.5367 62.0528 15.0633 62.0528 14.51C62.0528 13.9833 62.1628 13.5267 62.3828 13.14C62.6094 12.7533 62.9128 12.4533 63.2928 12.24C63.6794 12.0267 64.1128 11.92 64.5928 11.92C65.0528 11.92 65.4728 12.02 65.8528 12.22C66.2394 12.42 66.5494 12.7133 66.7828 13.1C67.0161 13.4867 67.1328 13.9567 67.1328 14.51C67.1328 15.0167 67.0228 15.4667 66.8028 15.86C66.5828 16.2533 66.2761 16.5633 65.8828 16.79C65.4961 17.01 65.0528 17.12 64.5528 17.12ZM64.5528 16.39C64.8794 16.39 65.1728 16.3133 65.4328 16.16C65.6928 16 65.8994 15.78 66.0528 15.5C66.2061 15.22 66.2828 14.89 66.2828 14.51C66.2828 14.15 66.2161 13.83 66.0828 13.55C65.9494 13.27 65.7561 13.05 65.5028 12.89C65.2494 12.73 64.9428 12.65 64.5828 12.65C64.2161 12.65 63.9061 12.7333 63.6528 12.9C63.4061 13.0667 63.2194 13.29 63.0928 13.57C62.9661 13.85 62.9028 14.1633 62.9028 14.51C62.9028 14.95 62.9828 15.31 63.1428 15.59C63.3028 15.8633 63.5094 16.0667 63.7628 16.2C64.0161 16.3267 64.2794 16.39 64.5528 16.39ZM69.1124 17L67.6624 12.04H68.5024L69.5524 15.93L70.7124 12.04H71.6624L72.8324 15.93L73.8724 12.04H74.7224L73.2724 17H72.4124L71.1924 12.91L69.9724 17H69.1124ZM75.6514 17V12.04H76.4114L76.4614 12.93C76.6214 12.6167 76.8514 12.37 77.1514 12.19C77.4514 12.01 77.7914 11.92 78.1714 11.92C78.7581 11.92 79.2248 12.1 79.5714 12.46C79.9248 12.8133 80.1014 13.36 80.1014 14.1V17H79.2614V14.19C79.2614 13.6767 79.1548 13.29 78.9414 13.03C78.7281 12.77 78.4081 12.64 77.9814 12.64C77.5548 12.64 77.1981 12.7967 76.9114 13.11C76.6314 13.4167 76.4914 13.8567 76.4914 14.43V17H75.6514ZM81.3838 17V10H82.2238V17H81.3838ZM85.8906 17.12C85.4373 17.12 85.0206 17.02 84.6406 16.82C84.2606 16.6133 83.9573 16.3167 83.7306 15.93C83.504 15.5367 83.3906 15.0633 83.3906 14.51C83.3906 13.9833 83.5006 13.5267 83.7206 13.14C83.9473 12.7533 84.2506 12.4533 84.6306 12.24C85.0173 12.0267 85.4506 11.92 85.9306 11.92C86.3906 11.92 86.8106 12.02 87.1906 12.22C87.5773 12.42 87.8873 12.7133 88.1206 13.1C88.354 13.4867 88.4706 13.9567 88.4706 14.51C88.4706 15.0167 88.3606 15.4667 88.1406 15.86C87.9206 16.2533 87.614 16.5633 87.2206 16.79C86.834 17.01 86.3906 17.12 85.8906 17.12ZM85.8906 16.39C86.2173 16.39 86.5106 16.3133 86.7706 16.16C87.0306 16 87.2373 15.78 87.3906 15.5C87.544 15.22 87.6206 14.89 87.6206 14.51C87.6206 14.15 87.554 13.83 87.4206 13.55C87.2873 13.27 87.094 13.05 86.8406 12.89C86.5873 12.73 86.2806 12.65 85.9206 12.65C85.554 12.65 85.244 12.7333 84.9906 12.9C84.744 13.0667 84.5573 13.29 84.4306 13.57C84.304 13.85 84.2406 14.1633 84.2406 14.51C84.2406 14.95 84.3206 15.31 84.4806 15.59C84.6406 15.8633 84.8473 16.0667 85.1006 16.2C85.354 16.3267 85.6173 16.39 85.8906 16.39ZM91.2858 17.12C90.9458 17.12 90.6358 17.0633 90.3558 16.95C90.0758 16.8367 89.8525 16.6667 89.6858 16.44C89.5258 16.2067 89.4458 15.9233 89.4458 15.59C89.4458 15.2033 89.5458 14.8967 89.7458 14.67C89.9458 14.4367 90.2091 14.27 90.5358 14.17C90.8691 14.0633 91.2258 14.01 91.6058 14.01H92.9458C92.9458 13.6633 92.8858 13.39 92.7658 13.19C92.6525 12.99 92.5025 12.8467 92.3158 12.76C92.1291 12.6733 91.9225 12.63 91.6958 12.63C91.3691 12.63 91.0858 12.71 90.8458 12.87C90.6125 13.0233 90.4658 13.2633 90.4058 13.59H89.5458C89.5791 13.23 89.6991 12.9267 89.9058 12.68C90.1125 12.4333 90.3725 12.2467 90.6858 12.12C91.0058 11.9867 91.3425 11.92 91.6958 11.92C92.1958 11.92 92.5991 12.0133 92.9058 12.2C93.2125 12.38 93.4358 12.6233 93.5758 12.93C93.7158 13.2367 93.7858 13.5767 93.7858 13.95V15.47C93.7858 15.7167 93.8158 15.9033 93.8758 16.03C93.9358 16.1567 94.0891 16.2333 94.3358 16.26V17C94.1158 17 93.9158 16.9733 93.7358 16.92C93.5558 16.86 93.4025 16.7667 93.2758 16.64C93.1558 16.5067 93.0691 16.3333 93.0158 16.12C92.8491 16.4 92.6191 16.6367 92.3258 16.83C92.0391 17.0233 91.6925 17.12 91.2858 17.12ZM91.4158 16.41C91.7491 16.41 92.0291 16.3267 92.2558 16.16C92.4825 15.9867 92.6525 15.7667 92.7658 15.5C92.8858 15.2333 92.9458 14.9567 92.9458 14.67V14.66H91.6758C91.4425 14.66 91.2225 14.6867 91.0158 14.74C90.8091 14.7867 90.6425 14.8767 90.5158 15.01C90.3891 15.1367 90.3258 15.3167 90.3258 15.55C90.3258 15.85 90.4325 16.07 90.6458 16.21C90.8591 16.3433 91.1158 16.41 91.4158 16.41ZM97.4815 17.12C96.9748 17.12 96.5382 17.0033 96.1715 16.77C95.8048 16.5367 95.5215 16.2233 95.3215 15.83C95.1215 15.4367 95.0215 14.9967 95.0215 14.51C95.0215 14.03 95.1182 13.5933 95.3115 13.2C95.5115 12.8067 95.7948 12.4967 96.1615 12.27C96.5282 12.0367 96.9715 11.92 97.4915 11.92C97.8982 11.92 98.2582 12.0033 98.5715 12.17C98.8848 12.3367 99.1282 12.57 99.3015 12.87V10H100.142V17H99.3815L99.3015 16.18C99.1415 16.42 98.9115 16.6367 98.6115 16.83C98.3115 17.0233 97.9348 17.12 97.4815 17.12ZM97.5715 16.39C97.9382 16.39 98.2482 16.3067 98.5015 16.14C98.7548 15.9667 98.9448 15.74 99.0715 15.46C99.2048 15.1733 99.2715 14.86 99.2715 14.52C99.2715 14.16 99.2048 13.84 99.0715 13.56C98.9382 13.28 98.7448 13.06 98.4915 12.9C98.2382 12.7333 97.9315 12.65 97.5715 12.65C97.2515 12.65 96.9648 12.7267 96.7115 12.88C96.4582 13.0333 96.2548 13.25 96.1015 13.53C95.9548 13.8033 95.8815 14.1333 95.8815 14.52C95.8815 14.9067 95.9582 15.24 96.1115 15.52C96.2648 15.8 96.4682 16.0167 96.7215 16.17C96.9815 16.3167 97.2648 16.39 97.5715 16.39ZM106.447 17.12C105.994 17.12 105.577 17.02 105.197 16.82C104.817 16.6133 104.514 16.3167 104.287 15.93C104.061 15.5367 103.947 15.0633 103.947 14.51C103.947 13.9833 104.057 13.5267 104.277 13.14C104.504 12.7533 104.807 12.4533 105.187 12.24C105.574 12.0267 106.007 11.92 106.487 11.92C106.947 11.92 107.367 12.02 107.747 12.22C108.134 12.42 108.444 12.7133 108.677 13.1C108.911 13.4867 109.027 13.9567 109.027 14.51C109.027 15.0167 108.917 15.4667 108.697 15.86C108.477 16.2533 108.171 16.5633 107.777 16.79C107.391 17.01 106.947 17.12 106.447 17.12ZM106.447 16.39C106.774 16.39 107.067 16.3133 107.327 16.16C107.587 16 107.794 15.78 107.947 15.5C108.101 15.22 108.177 14.89 108.177 14.51C108.177 14.15 108.111 13.83 107.977 13.55C107.844 13.27 107.651 13.05 107.397 12.89C107.144 12.73 106.837 12.65 106.477 12.65C106.111 12.65 105.801 12.7333 105.547 12.9C105.301 13.0667 105.114 13.29 104.987 13.57C104.861 13.85 104.797 14.1633 104.797 14.51C104.797 14.95 104.877 15.31 105.037 15.59C105.197 15.8633 105.404 16.0667 105.657 16.2C105.911 16.3267 106.174 16.39 106.447 16.39ZM110.192 17V12.04H110.952L111.002 12.93C111.162 12.6167 111.392 12.37 111.692 12.19C111.992 12.01 112.332 11.92 112.712 11.92C113.299 11.92 113.766 12.1 114.112 12.46C114.466 12.8133 114.642 13.36 114.642 14.1V17H113.802V14.19C113.802 13.6767 113.696 13.29 113.482 13.03C113.269 12.77 112.949 12.64 112.522 12.64C112.096 12.64 111.739 12.7967 111.452 13.11C111.172 13.4167 111.032 13.8567 111.032 14.43V17H110.192ZM118.571 17V12.04H119.331L119.391 12.76C119.551 12.4933 119.765 12.2867 120.031 12.14C120.298 11.9933 120.598 11.92 120.931 11.92C121.325 11.92 121.661 12 121.941 12.16C122.228 12.32 122.448 12.5633 122.601 12.89C122.775 12.59 123.011 12.3533 123.311 12.18C123.618 12.0067 123.948 11.92 124.301 11.92C124.701 11.92 125.045 12 125.331 12.16C125.625 12.3133 125.851 12.5533 126.011 12.88C126.171 13.2 126.251 13.6067 126.251 14.1V17H125.421V14.19C125.421 13.6767 125.318 13.29 125.111 13.03C124.905 12.77 124.608 12.64 124.221 12.64C123.821 12.64 123.488 12.7967 123.221 13.11C122.961 13.4167 122.831 13.8567 122.831 14.43V17H121.991V14.19C121.991 13.6767 121.888 13.29 121.681 13.03C121.475 12.77 121.178 12.64 120.791 12.64C120.398 12.64 120.068 12.7967 119.801 13.11C119.541 13.4167 119.411 13.8567 119.411 14.43V17H118.571ZM129.747 17.12C129.287 17.12 128.87 17.0133 128.497 16.8C128.13 16.5867 127.84 16.2867 127.627 15.9C127.413 15.5067 127.307 15.0467 127.307 14.52C127.307 14 127.407 13.5467 127.607 13.16C127.813 12.7667 128.1 12.4633 128.467 12.25C128.84 12.03 129.273 11.92 129.767 11.92C130.233 11.92 130.64 12.0233 130.987 12.23C131.333 12.4367 131.603 12.7167 131.797 13.07C131.997 13.4167 132.097 13.8067 132.097 14.24C132.097 14.3333 132.097 14.4067 132.097 14.46C132.097 14.5133 132.093 14.5967 132.087 14.71H128.137C128.157 15.0367 128.233 15.33 128.367 15.59C128.507 15.8433 128.693 16.0433 128.927 16.19C129.167 16.3367 129.44 16.41 129.747 16.41C130.093 16.41 130.383 16.33 130.617 16.17C130.85 16.01 131.02 15.7933 131.127 15.52H131.957C131.87 15.8267 131.727 16.1 131.527 16.34C131.327 16.58 131.077 16.77 130.777 16.91C130.483 17.05 130.14 17.12 129.747 17.12ZM128.147 14.06H131.267C131.247 13.6133 131.093 13.2633 130.807 13.01C130.52 12.7567 130.167 12.63 129.747 12.63C129.347 12.63 128.99 12.7533 128.677 13C128.37 13.24 128.193 13.5933 128.147 14.06Z" fill="white"/>
<path d="M54.9779 37.4349L59.0739 26.2349H61.0899L65.1859 37.4349H63.2659L62.3379 34.7789H57.8099L56.8659 37.4349H54.9779ZM58.3379 33.3229H61.8259L60.0659 28.3629L58.3379 33.3229ZM66.3954 40.9549V29.4989H68.1554L68.2034 30.6669C68.4914 30.2616 68.87 29.9363 69.3394 29.6909C69.8087 29.4349 70.3474 29.3069 70.9554 29.3069C71.734 29.3069 72.4007 29.4936 72.9554 29.8669C73.5207 30.2296 73.9527 30.7256 74.2514 31.3549C74.5607 31.9843 74.7154 32.6829 74.7154 33.4509C74.7154 34.2189 74.5607 34.9229 74.2514 35.5629C73.942 36.1923 73.5047 36.6936 72.9394 37.0669C72.3847 37.4403 71.718 37.6269 70.9394 37.6269C70.278 37.6269 69.7127 37.4936 69.2434 37.2269C68.7847 36.9496 68.438 36.6296 68.2034 36.2669V40.9549H66.3954ZM70.5394 36.0429C70.998 36.0429 71.4034 35.9309 71.7554 35.7069C72.1074 35.4723 72.3794 35.1576 72.5714 34.7629C72.774 34.3683 72.8754 33.9309 72.8754 33.4509C72.8754 32.9283 72.7687 32.4749 72.5554 32.0909C72.3527 31.7069 72.0754 31.4136 71.7234 31.2109C71.3714 30.9976 70.9767 30.8909 70.5394 30.8909C70.0914 30.8909 69.6914 31.0029 69.3394 31.2269C68.9874 31.4403 68.71 31.7443 68.5074 32.1389C68.3047 32.5229 68.2034 32.9656 68.2034 33.4669C68.2034 33.9469 68.2994 34.3843 68.4914 34.7789C68.694 35.1629 68.966 35.4723 69.3074 35.7069C69.6594 35.9309 70.07 36.0429 70.5394 36.0429ZM76.1297 40.9549V29.4989H77.8897L77.9377 30.6669C78.2257 30.2616 78.6044 29.9363 79.0737 29.6909C79.5431 29.4349 80.0817 29.3069 80.6897 29.3069C81.4684 29.3069 82.1351 29.4936 82.6897 29.8669C83.2551 30.2296 83.6871 30.7256 83.9857 31.3549C84.2951 31.9843 84.4497 32.6829 84.4497 33.4509C84.4497 34.2189 84.2951 34.9229 83.9857 35.5629C83.6764 36.1923 83.2391 36.6936 82.6737 37.0669C82.1191 37.4403 81.4524 37.6269 80.6737 37.6269C80.0124 37.6269 79.4471 37.4936 78.9777 37.2269C78.5191 36.9496 78.1724 36.6296 77.9377 36.2669V40.9549H76.1297ZM80.2737 36.0429C80.7324 36.0429 81.1377 35.9309 81.4897 35.7069C81.8417 35.4723 82.1137 35.1576 82.3057 34.7629C82.5084 34.3683 82.6097 33.9309 82.6097 33.4509C82.6097 32.9283 82.5031 32.4749 82.2897 32.0909C82.0871 31.7069 81.8097 31.4136 81.4577 31.2109C81.1057 30.9976 80.7111 30.8909 80.2737 30.8909C79.8257 30.8909 79.4257 31.0029 79.0737 31.2269C78.7217 31.4403 78.4444 31.7443 78.2417 32.1389C78.0391 32.5229 77.9377 32.9656 77.9377 33.4669C77.9377 33.9469 78.0337 34.3843 78.2257 34.7789C78.4284 35.1629 78.7004 35.4723 79.0417 35.7069C79.3937 35.9309 79.8044 36.0429 80.2737 36.0429ZM93.7071 37.6269C92.9391 37.6269 92.2404 37.4936 91.6111 37.2269C90.9818 36.9496 90.4804 36.5496 90.1071 36.0269C89.7444 35.4936 89.5578 34.8376 89.5471 34.0589H91.4511C91.4618 34.6563 91.6698 35.1469 92.0751 35.5309C92.4804 35.9043 93.0191 36.0909 93.6911 36.0909C94.2884 36.0909 94.7684 35.9523 95.1311 35.6749C95.4938 35.3976 95.6751 35.0083 95.6751 34.5069C95.6751 34.2189 95.6271 33.9789 95.5311 33.7869C95.4351 33.5843 95.2751 33.4083 95.0511 33.2589C94.8271 33.0989 94.5284 32.9496 94.1551 32.8109C93.7818 32.6616 93.3071 32.4909 92.7311 32.2989C92.0591 32.0749 91.5098 31.8189 91.0831 31.5309C90.6564 31.2323 90.3418 30.8909 90.1391 30.5069C89.9471 30.1123 89.8511 29.6749 89.8511 29.1949C89.8511 28.5123 90.0111 27.9363 90.3311 27.4669C90.6618 26.9976 91.1044 26.6456 91.6591 26.4109C92.2244 26.1656 92.8484 26.0429 93.5311 26.0429C94.2244 26.0429 94.8484 26.1656 95.4031 26.4109C95.9578 26.6563 96.4058 27.0189 96.7471 27.4989C97.0884 27.9683 97.2644 28.5443 97.2751 29.2269H95.3391C95.3391 28.7683 95.1684 28.3789 94.8271 28.0589C94.4858 27.7389 94.0324 27.5789 93.4671 27.5789C92.9871 27.5683 92.5764 27.6909 92.2351 27.9469C91.9044 28.2029 91.7391 28.5763 91.7391 29.0669C91.7391 29.4083 91.8458 29.6909 92.0591 29.9149C92.2831 30.1389 92.5978 30.3363 93.0031 30.5069C93.4084 30.6776 93.8991 30.8643 94.4751 31.0669C94.8271 31.1843 95.1844 31.3229 95.5471 31.4829C95.9204 31.6429 96.2564 31.8509 96.5551 32.1069C96.8644 32.3523 97.1151 32.6616 97.3071 33.0349C97.4991 33.3976 97.5951 33.8509 97.5951 34.3949C97.5951 35.0669 97.4191 35.6483 97.0671 36.1389C96.7258 36.6189 96.2618 36.9869 95.6751 37.2429C95.0884 37.4989 94.4324 37.6269 93.7071 37.6269ZM102.218 37.4349C101.408 37.4349 100.789 37.2376 100.362 36.8429C99.9358 36.4483 99.7225 35.8189 99.7225 34.9549V31.0189H98.5865V29.4989H99.7225V27.5789H101.546V29.4989H103.482V31.0189H101.546V34.9709C101.546 35.3336 101.632 35.5843 101.802 35.7229C101.973 35.8509 102.229 35.9149 102.57 35.9149H103.482V37.4349H102.218ZM108.516 37.6269C107.737 37.6269 107.039 37.4563 106.42 37.1149C105.801 36.7736 105.311 36.2936 104.948 35.6749C104.596 35.0456 104.42 34.3096 104.42 33.4669C104.42 32.6029 104.607 31.8616 104.98 31.2429C105.353 30.6243 105.855 30.1496 106.484 29.8189C107.113 29.4776 107.812 29.3069 108.58 29.3069C109.359 29.3069 110.057 29.4776 110.676 29.8189C111.305 30.1496 111.801 30.6243 112.164 31.2429C112.537 31.8616 112.724 32.6029 112.724 33.4669C112.724 34.2669 112.543 34.9816 112.18 35.6109C111.828 36.2403 111.332 36.7363 110.692 37.0989C110.063 37.4509 109.337 37.6269 108.516 37.6269ZM108.532 36.0589C108.991 36.0589 109.391 35.9469 109.732 35.7229C110.084 35.4883 110.361 35.1736 110.564 34.7789C110.767 34.3843 110.868 33.9363 110.868 33.4349C110.868 32.9123 110.767 32.4589 110.564 32.0749C110.361 31.6909 110.084 31.3976 109.732 31.1949C109.391 30.9816 108.996 30.8749 108.548 30.8749C108.079 30.8749 107.668 30.9869 107.316 31.2109C106.975 31.4349 106.713 31.7443 106.532 32.1389C106.351 32.5229 106.26 32.9656 106.26 33.4669C106.26 34.0109 106.361 34.4803 106.564 34.8749C106.777 35.2589 107.055 35.5523 107.396 35.7549C107.748 35.9576 108.127 36.0589 108.532 36.0589ZM114.13 37.4349V29.4989H115.89L115.922 30.7949C116.188 30.3256 116.546 29.9629 116.994 29.7069C117.452 29.4403 117.98 29.3069 118.578 29.3069V31.2109H118.082C117.356 31.2109 116.818 31.3923 116.466 31.7549C116.114 32.1176 115.938 32.6829 115.938 33.4509V37.4349H114.13ZM123.217 37.6269C122.417 37.6269 121.718 37.4509 121.121 37.0989C120.523 36.7363 120.054 36.2456 119.713 35.6269C119.382 34.9976 119.217 34.2776 119.217 33.4669C119.217 32.6243 119.382 31.8936 119.713 31.2749C120.054 30.6563 120.523 30.1763 121.121 29.8349C121.729 29.4829 122.433 29.3069 123.233 29.3069C124.011 29.3069 124.689 29.4776 125.265 29.8189C125.841 30.1496 126.294 30.6083 126.625 31.1949C126.955 31.7816 127.121 32.4483 127.121 33.1949C127.121 33.3443 127.115 33.4776 127.105 33.5949C127.105 33.7123 127.094 33.8403 127.073 33.9789H121.041C121.073 34.3949 121.179 34.7683 121.361 35.0989C121.542 35.4189 121.787 35.6696 122.097 35.8509C122.417 36.0323 122.779 36.1229 123.185 36.1229C123.622 36.1229 123.99 36.0269 124.289 35.8349C124.598 35.6429 124.838 35.3656 125.009 35.0029H126.913C126.763 35.4829 126.523 35.9203 126.193 36.3149C125.873 36.7096 125.462 37.0296 124.961 37.2749C124.47 37.5096 123.889 37.6269 123.217 37.6269ZM121.057 32.7149H125.265C125.254 32.1283 125.046 31.6643 124.641 31.3229C124.235 30.9816 123.75 30.8109 123.185 30.8109C122.673 30.8109 122.209 30.9656 121.793 31.2749C121.387 31.5843 121.142 32.0643 121.057 32.7149Z" fill="white"/>
</svg>
