<svg width="121" height="96" viewBox="0 0 121 96" fill="none" xmlns="http://www.w3.org/2000/svg">
<path d="M120.107 86.0038C120.276 85.4781 119.987 84.9147 119.461 84.7454L110.894 81.9871C110.369 81.8179 109.805 82.1068 109.636 82.6325C109.467 83.1582 109.756 83.7216 110.281 83.8909L117.896 86.3427L115.444 93.9577C115.275 94.4834 115.564 95.0468 116.09 95.2161C116.616 95.3853 117.179 95.0964 117.348 94.5707L120.107 86.0038ZM1.83694 0.108299L0.842828 -8.73241e-05C0.766166 0.70305 0.694881 1.40117 0.628914 2.09431L1.62442 2.18905L2.61992 2.28379C2.68501 1.59985 2.75536 0.910824 2.83105 0.216686L1.83694 0.108299ZM1.29422 6.26017L0.296441 6.19358C0.205511 7.55603 0.13586 8.89835 0.0869899 10.2208L1.08631 10.2577L2.08563 10.2947C2.13375 8.99238 2.20236 7.66983 2.292 6.32676L1.29422 6.26017ZM1.00097 14.3786L0.000976207 14.3745C-0.00457397 15.7368 0.0127967 17.077 0.0524909 18.3954L1.05204 18.3653L2.05159 18.3352C2.01259 17.04 1.9955 15.7226 2.00096 14.3827L1.00097 14.3786ZM1.25399 22.4914L0.256314 22.5595C0.349577 23.9253 0.467839 25.2663 0.610359 26.5829L1.60455 26.4753L2.59874 26.3677C2.45912 25.0778 2.34316 23.7631 2.25167 22.4233L1.25399 22.4914ZM2.13638 30.5594L1.14786 30.7105C1.35537 32.068 1.58989 33.3979 1.85051 34.7008L2.83109 34.5046L3.81166 34.3084C3.55712 33.036 3.32787 31.7361 3.1249 30.4083L2.13638 30.5594ZM3.7371 38.5136L2.7676 38.7587C3.10708 40.1014 3.47573 41.4132 3.8724 42.6947L4.82768 42.399L5.78297 42.1034C5.3968 40.8558 5.0376 39.5777 4.70659 38.2685L3.7371 38.5136ZM6.13973 46.2545L5.20256 46.6033C5.6893 47.9108 6.20685 49.1841 6.75376 50.4239L7.66869 50.0202L8.58362 49.6166C8.05276 48.4132 7.55002 47.1765 7.07689 45.9056L6.13973 46.2545ZM9.40713 53.6574L8.51861 54.1162C9.16186 55.3618 9.83651 56.5703 10.5408 57.7427L11.398 57.2277L12.2552 56.7127C11.5731 55.5772 10.9193 54.4061 10.2957 53.1985L9.40713 53.6574ZM13.5985 60.634L12.7767 61.2039C13.5659 62.3419 14.3847 63.4419 15.2313 64.505L16.0136 63.8821L16.7959 63.2592C15.9766 62.2304 15.1841 61.1657 14.4202 60.0642L13.5985 60.634ZM18.6566 66.9832L17.9175 67.6569C18.8502 68.68 19.8102 69.6647 20.7953 70.6121L21.4885 69.8913L22.1816 69.1705C21.2277 68.2531 20.2983 67.2999 19.3956 66.3096L18.6566 66.9832ZM24.5003 72.6057L23.855 73.3696C24.9109 74.2617 25.9906 75.1159 27.0917 75.9336L27.6879 75.1308L28.2841 74.328C27.2159 73.5346 26.1689 72.7063 25.1456 71.8418L24.5003 72.6057ZM31.0212 77.4528L30.4744 78.2901C31.6265 79.0425 32.7978 79.759 33.986 80.441L34.4838 79.5737L34.9816 78.7064C33.8257 78.043 32.6871 77.3465 31.5681 76.6156L31.0212 77.4528ZM38.0612 81.4978L37.6115 82.391C38.8388 83.0088 40.0807 83.593 41.3347 84.145L41.7375 83.2297L42.1404 82.3144C40.917 81.776 39.7064 81.2064 38.5108 80.6046L38.0612 81.4978ZM45.4955 84.7743L45.1378 85.7081C46.4186 86.1987 47.7091 86.6581 49.0069 87.0877L49.3212 86.1384L49.6355 85.1891C48.3659 84.7688 47.1043 84.3196 45.8532 83.8404L45.4955 84.7743ZM53.2063 87.3307L52.9336 88.2927C54.2539 88.667 55.5792 89.0125 56.907 89.3305L57.1399 88.358L57.3729 87.3855C56.071 87.0737 54.7722 86.7351 53.479 86.3686L53.2063 87.3307ZM61.1092 89.2268L60.9142 90.2077C62.2584 90.4748 63.6026 90.7155 64.9441 90.931L65.1027 89.9436L65.2613 88.9563C63.9434 88.7446 62.6235 88.5083 61.3041 88.246L61.1092 89.2268ZM69.1319 90.5174L69.0083 91.5098C70.3742 91.6799 71.7347 91.8252 73.087 91.9471L73.1768 90.9512L73.2667 89.9552C71.9363 89.8352 70.5984 89.6923 69.2555 89.5251L69.1319 90.5174ZM77.2283 91.2495L77.1712 92.2478C78.5444 92.3265 79.9061 92.382 81.2532 92.416L81.2785 91.4164L81.3038 90.4167C79.9775 90.3831 78.6371 90.3285 77.2855 90.2511L77.2283 91.2495ZM85.3472 91.455L85.3535 92.455C86.7424 92.4463 88.1116 92.4155 89.4575 92.3647L89.4197 91.3654L89.382 90.3661C88.0568 90.4162 86.7086 90.4465 85.341 90.455L85.3472 91.455ZM93.4832 91.147L93.5529 92.1445C94.9466 92.0472 96.3093 91.9288 97.6364 91.7917L97.5337 90.797L97.431 89.8023C96.1259 89.9371 94.7853 90.0536 93.4135 90.1494L93.4832 91.147ZM101.568 90.3091L101.706 91.2996C103.111 91.1041 104.465 90.8882 105.761 90.6552L105.584 89.6709L105.407 88.6867C104.138 88.9149 102.81 89.1267 101.431 89.3187L101.568 90.3091ZM109.573 88.8606L109.796 89.8354C111.226 89.5085 112.561 89.1611 113.788 88.7992L113.506 87.84L113.223 86.8808C112.039 87.2299 110.744 87.5671 109.35 87.8857L109.573 88.8606ZM117.325 86.5273L117.701 87.4539C118.4 87.1703 119.038 86.8808 119.611 86.5871L119.155 85.6973L118.698 84.8075C118.187 85.0698 117.603 85.3353 116.949 85.6007L117.325 86.5273Z" fill="#FC5C4C"/>
</svg>
