<svg width="161" height="51" viewBox="0 0 161 51" fill="none" xmlns="http://www.w3.org/2000/svg">
<rect width="160.61" height="50.435" rx="8" fill="black"/>
<g clip-path="url(#clip0_10799_3109)">
<path d="M27.2017 23.4894L16.093 34.0176C16.2178 34.4175 16.4419 34.7863 16.7484 35.0958C17.0549 35.4054 17.4355 35.6474 17.8613 35.8035C18.287 35.9595 18.7465 36.0255 19.2048 35.9963C19.663 35.9671 20.1078 35.8434 20.5051 35.6349L33.0045 29.1953L27.2017 23.4894Z" fill="#EA4335"/>
<path d="M38.4388 21.7005L33.0336 18.8999L26.9495 23.7296L33.0584 29.1809L38.4224 26.4103C38.8976 26.1852 39.2956 25.8468 39.5733 25.4317C39.851 25.0165 39.9978 24.5406 39.9978 24.0554C39.9978 23.5702 39.851 23.0942 39.5733 22.6791C39.2956 22.264 38.8976 21.9255 38.4224 21.7004L38.4388 21.7005Z" fill="#FBBC04"/>
<path d="M16.0994 14.0393C16.0323 14.2639 15.9989 14.4956 16 14.7282V33.3284C16.0007 33.5609 16.0341 33.7924 16.0994 34.0173L27.5889 23.7587L16.0994 14.0393Z" fill="#4285F4"/>
<path d="M27.2845 24.0291L33.0293 18.8998L20.5465 12.4301C20.0769 12.1813 19.5427 12.0495 18.9984 12.0482C17.6478 12.0458 16.4603 12.8568 16.093 14.0326L27.2845 24.0291Z" fill="#34A853"/>
</g>
<path d="M58.3599 17.12C57.6932 17.12 57.1132 16.9667 56.6199 16.66C56.1332 16.3467 55.7532 15.92 55.4799 15.38C55.2132 14.8333 55.0799 14.21 55.0799 13.51C55.0799 12.8167 55.2132 12.1967 55.4799 11.65C55.7465 11.1033 56.1332 10.6733 56.6399 10.36C57.1465 10.04 57.7599 9.88 58.4799 9.88C59.2665 9.88 59.9199 10.07 60.4399 10.45C60.9665 10.83 61.3065 11.3533 61.4599 12.02H60.4899C60.3965 11.6 60.1732 11.2667 59.8199 11.02C59.4732 10.7733 59.0265 10.65 58.4799 10.65C57.9265 10.65 57.4599 10.7767 57.0799 11.03C56.6999 11.2833 56.4132 11.6267 56.2199 12.06C56.0332 12.4867 55.9399 12.97 55.9399 13.51C55.9399 14.0567 56.0365 14.5467 56.2299 14.98C56.4232 15.4133 56.7032 15.7533 57.0699 16C57.4365 16.2467 57.8765 16.37 58.3899 16.37C59.1365 16.37 59.6999 16.1533 60.0799 15.72C60.4599 15.28 60.6765 14.68 60.7299 13.92H58.2099V13.26H61.5899V17H60.8199L60.7499 15.85C60.4965 16.2567 60.1865 16.57 59.8199 16.79C59.4532 17.01 58.9665 17.12 58.3599 17.12ZM62.9182 17V10H67.2482V10.69H63.7582V12.96H66.8082V13.64H63.7582V16.31H67.2482V17H62.9182ZM70.2028 17V10.69H68.1128V10H73.1328V10.69H71.0428V17H70.2028ZM76.8049 17V10H77.6449V17H76.8049ZM80.7692 17V10.69H78.6792V10H83.6992V10.69H81.6092V17H80.7692ZM90.5513 17.12C90.018 17.12 89.538 17.03 89.1113 16.85C88.6847 16.6633 88.3213 16.4067 88.0213 16.08C87.7213 15.7533 87.4913 15.37 87.3313 14.93C87.178 14.49 87.1013 14.0133 87.1013 13.5C87.1013 12.9867 87.178 12.51 87.3313 12.07C87.4913 11.63 87.7213 11.2467 88.0213 10.92C88.3213 10.5933 88.6813 10.34 89.1013 10.16C89.528 9.97333 90.0113 9.88 90.5513 9.88C91.0847 9.88 91.5613 9.97 91.9813 10.15C92.408 10.3233 92.7713 10.5733 93.0713 10.9C93.3713 11.22 93.6013 11.6033 93.7613 12.05C93.9213 12.49 94.0013 12.9733 94.0013 13.5C94.0013 14.0267 93.9213 14.5133 93.7613 14.96C93.6013 15.4 93.3713 15.7833 93.0713 16.11C92.7713 16.43 92.408 16.68 91.9813 16.86C91.5613 17.0333 91.0847 17.12 90.5513 17.12ZM90.5513 16.38C91.098 16.38 91.5647 16.2567 91.9513 16.01C92.338 15.7633 92.6313 15.4233 92.8313 14.99C93.038 14.5567 93.1413 14.06 93.1413 13.5C93.1413 12.9267 93.038 12.4267 92.8313 12C92.6313 11.5667 92.338 11.23 91.9513 10.99C91.5647 10.75 91.098 10.63 90.5513 10.63C90.0113 10.63 89.548 10.7533 89.1613 11C88.7747 11.2467 88.478 11.5867 88.2713 12.02C88.0647 12.4467 87.9613 12.94 87.9613 13.5C87.9613 14.0533 88.0647 14.55 88.2713 14.99C88.478 15.4233 88.7747 15.7633 89.1613 16.01C89.548 16.2567 90.0113 16.38 90.5513 16.38ZM95.2131 17V10H96.0531L99.7831 15.61V10H100.623V17H99.7831L96.0531 11.39V17H95.2131Z" fill="white"/>
<path d="M60.5619 37.6269C59.4952 37.6269 58.5672 37.3869 57.7779 36.9069C56.9992 36.4163 56.3912 35.7389 55.9539 34.8749C55.5165 34.0109 55.2979 33.0136 55.2979 31.8829C55.2979 30.7843 55.5112 29.7923 55.9379 28.9069C56.3645 28.0216 56.9885 27.3229 57.8099 26.8109C58.6419 26.2989 59.6552 26.0429 60.8499 26.0429C62.1405 26.0429 63.2125 26.3576 64.0659 26.9869C64.9192 27.6056 65.4739 28.4589 65.7299 29.5469H63.6819C63.5219 28.9816 63.1965 28.5336 62.7059 28.2029C62.2259 27.8723 61.6072 27.7069 60.8499 27.7069C60.0499 27.7069 59.3725 27.8829 58.8179 28.2349C58.2739 28.5869 57.8579 29.0776 57.5699 29.7069C57.2925 30.3256 57.1539 31.0563 57.1539 31.8989C57.1539 32.7309 57.2925 33.4563 57.5699 34.0749C57.8579 34.6936 58.2685 35.1736 58.8019 35.5149C59.3352 35.8456 59.9699 36.0109 60.7059 36.0109C61.7405 36.0109 62.5299 35.7336 63.0739 35.1789C63.6179 34.6136 63.9485 33.8563 64.0659 32.9069H60.3539V31.4029H65.9379V37.4349H64.2739L64.1299 35.8349C63.7459 36.4109 63.2765 36.8536 62.7219 37.1629C62.1672 37.4723 61.4472 37.6269 60.5619 37.6269ZM71.4534 37.6269C70.6747 37.6269 69.976 37.4563 69.3574 37.1149C68.7387 36.7736 68.248 36.2936 67.8854 35.6749C67.5334 35.0456 67.3574 34.3096 67.3574 33.4669C67.3574 32.6029 67.544 31.8616 67.9174 31.2429C68.2907 30.6243 68.792 30.1496 69.4214 29.8189C70.0507 29.4776 70.7494 29.3069 71.5174 29.3069C72.296 29.3069 72.9947 29.4776 73.6134 29.8189C74.2427 30.1496 74.7387 30.6243 75.1014 31.2429C75.4747 31.8616 75.6614 32.6029 75.6614 33.4669C75.6614 34.2669 75.48 34.9816 75.1174 35.6109C74.7654 36.2403 74.2694 36.7363 73.6294 37.0989C73 37.4509 72.2747 37.6269 71.4534 37.6269ZM71.4694 36.0589C71.928 36.0589 72.328 35.9469 72.6694 35.7229C73.0214 35.4883 73.2987 35.1736 73.5014 34.7789C73.704 34.3843 73.8054 33.9363 73.8054 33.4349C73.8054 32.9123 73.704 32.4589 73.5014 32.0749C73.2987 31.6909 73.0214 31.3976 72.6694 31.1949C72.328 30.9816 71.9334 30.8749 71.4854 30.8749C71.016 30.8749 70.6054 30.9869 70.2534 31.2109C69.912 31.4349 69.6507 31.7443 69.4694 32.1389C69.288 32.5229 69.1974 32.9656 69.1974 33.4669C69.1974 34.0109 69.2987 34.4803 69.5014 34.8749C69.7147 35.2589 69.992 35.5523 70.3334 35.7549C70.6854 35.9576 71.064 36.0589 71.4694 36.0589ZM80.8752 37.6269C80.0966 37.6269 79.3979 37.4563 78.7792 37.1149C78.1606 36.7736 77.6699 36.2936 77.3072 35.6749C76.9552 35.0456 76.7792 34.3096 76.7792 33.4669C76.7792 32.6029 76.9659 31.8616 77.3392 31.2429C77.7126 30.6243 78.2139 30.1496 78.8432 29.8189C79.4726 29.4776 80.1712 29.3069 80.9392 29.3069C81.7179 29.3069 82.4166 29.4776 83.0352 29.8189C83.6646 30.1496 84.1606 30.6243 84.5232 31.2429C84.8966 31.8616 85.0832 32.6029 85.0832 33.4669C85.0832 34.2669 84.9019 34.9816 84.5392 35.6109C84.1872 36.2403 83.6912 36.7363 83.0512 37.0989C82.4219 37.4509 81.6966 37.6269 80.8752 37.6269ZM80.8912 36.0589C81.3499 36.0589 81.7499 35.9469 82.0912 35.7229C82.4432 35.4883 82.7206 35.1736 82.9232 34.7789C83.1259 34.3843 83.2272 33.9363 83.2272 33.4349C83.2272 32.9123 83.1259 32.4589 82.9232 32.0749C82.7206 31.6909 82.4432 31.3976 82.0912 31.1949C81.7499 30.9816 81.3552 30.8749 80.9072 30.8749C80.4379 30.8749 80.0272 30.9869 79.6752 31.2109C79.3339 31.4349 79.0726 31.7443 78.8912 32.1389C78.7099 32.5229 78.6192 32.9656 78.6192 33.4669C78.6192 34.0109 78.7206 34.4803 78.9232 34.8749C79.1366 35.2589 79.4139 35.5523 79.7552 35.7549C80.1072 35.9576 80.4859 36.0589 80.8912 36.0589ZM89.7561 41.1469C89.0628 41.1469 88.4281 41.0669 87.8521 40.9069C87.2761 40.7469 86.8121 40.4856 86.4601 40.1229C86.1188 39.7603 85.9481 39.2803 85.9481 38.6829C85.9481 38.2883 86.0334 37.9523 86.2041 37.6749C86.3854 37.3976 86.6414 37.1683 86.9721 36.9869C86.7054 36.8269 86.4974 36.6296 86.3481 36.3949C86.1988 36.1496 86.1241 35.8723 86.1241 35.5629C86.1241 34.8803 86.4441 34.3469 87.0841 33.9629C86.8494 33.7176 86.6681 33.4403 86.5401 33.1309C86.4228 32.8216 86.3641 32.4909 86.3641 32.1389C86.3641 31.5523 86.4974 31.0509 86.7641 30.6349C87.0414 30.2083 87.4201 29.8829 87.9001 29.6589C88.3908 29.4243 88.9508 29.3069 89.5801 29.3069C90.0281 29.3069 90.4494 29.3709 90.8441 29.4989H93.6441V30.9069H92.4921C92.5774 31.0989 92.6468 31.2963 92.7001 31.4989C92.7641 31.7016 92.7961 31.9149 92.7961 32.1389C92.7961 32.7043 92.6521 33.2003 92.3641 33.6269C92.0761 34.0536 91.6921 34.3843 91.2121 34.6189C90.7321 34.8429 90.1881 34.9549 89.5801 34.9549C89.3028 34.9549 89.0468 34.9283 88.8121 34.8749C88.5774 34.8216 88.3481 34.7416 88.1241 34.6349C87.8788 34.7629 87.7561 34.9603 87.7561 35.2269C87.7561 35.7176 88.1668 35.9629 88.9881 35.9629H90.3961C91.0254 35.9629 91.5641 36.0483 92.0121 36.2189C92.4708 36.3789 92.8228 36.6456 93.0681 37.0189C93.3134 37.3816 93.4361 37.8509 93.4361 38.4269C93.4361 39.0029 93.2654 39.4936 92.9241 39.8989C92.5934 40.3043 92.1454 40.6136 91.5801 40.8269C91.0254 41.0403 90.4174 41.1469 89.7561 41.1469ZM89.7401 39.7069C90.2948 39.7069 90.7641 39.6109 91.1481 39.4189C91.5428 39.2269 91.7401 38.9389 91.7401 38.5549C91.7401 37.8296 91.2601 37.4669 90.3001 37.4669H89.0841C88.6254 37.4669 88.2681 37.5576 88.0121 37.7389C87.7668 37.9309 87.6441 38.2029 87.6441 38.5549C87.6441 38.8429 87.7401 39.0669 87.9321 39.2269C88.1241 39.3976 88.3801 39.5203 88.7001 39.5949C89.0201 39.6696 89.3668 39.7069 89.7401 39.7069ZM89.5481 33.5149C90.0068 33.5149 90.3801 33.3869 90.6681 33.1309C90.9668 32.8749 91.1161 32.5443 91.1161 32.1389C91.1161 31.7336 90.9668 31.4029 90.6681 31.1469C90.3801 30.8803 90.0068 30.7469 89.5481 30.7469C89.1001 30.7469 88.7321 30.8803 88.4441 31.1469C88.1668 31.4029 88.0281 31.7336 88.0281 32.1389C88.0281 32.5443 88.1614 32.8749 88.4281 33.1309C88.7054 33.3869 89.0788 33.5149 89.5481 33.5149ZM94.8172 37.4349V26.2349H96.6252V37.4349H94.8172ZM101.998 37.6269C101.198 37.6269 100.499 37.4509 99.902 37.0989C99.3047 36.7363 98.8353 36.2456 98.494 35.6269C98.1633 34.9976 97.998 34.2776 97.998 33.4669C97.998 32.6243 98.1633 31.8936 98.494 31.2749C98.8353 30.6563 99.3047 30.1763 99.902 29.8349C100.51 29.4829 101.214 29.3069 102.014 29.3069C102.793 29.3069 103.47 29.4776 104.046 29.8189C104.622 30.1496 105.075 30.6083 105.406 31.1949C105.737 31.7816 105.902 32.4483 105.902 33.1949C105.902 33.3443 105.897 33.4776 105.886 33.5949C105.886 33.7123 105.875 33.8403 105.854 33.9789H99.822C99.854 34.3949 99.9607 34.7683 100.142 35.0989C100.323 35.4189 100.569 35.6696 100.878 35.8509C101.198 36.0323 101.561 36.1229 101.966 36.1229C102.403 36.1229 102.771 36.0269 103.07 35.8349C103.379 35.6429 103.619 35.3656 103.79 35.0029H105.694C105.545 35.4829 105.305 35.9203 104.974 36.3149C104.654 36.7096 104.243 37.0296 103.742 37.2749C103.251 37.5096 102.67 37.6269 101.998 37.6269ZM99.838 32.7149H104.046C104.035 32.1283 103.827 31.6643 103.422 31.3229C103.017 30.9816 102.531 30.8109 101.966 30.8109C101.454 30.8109 100.99 30.9656 100.574 31.2749C100.169 31.5843 99.9233 32.0643 99.838 32.7149ZM111.307 37.4349V26.2349H115.307C116.086 26.2349 116.768 26.3629 117.355 26.6189C117.942 26.8643 118.4 27.2323 118.731 27.7229C119.062 28.2136 119.227 28.8163 119.227 29.5309C119.227 30.2456 119.056 30.8536 118.715 31.3549C118.384 31.8456 117.926 32.2189 117.339 32.4749C116.752 32.7203 116.075 32.8429 115.307 32.8429H113.131V37.4349H111.307ZM113.131 31.2909H115.259C116.038 31.2909 116.582 31.1363 116.891 30.8269C117.211 30.5069 117.371 30.0749 117.371 29.5309C117.371 28.9976 117.211 28.5709 116.891 28.2509C116.582 27.9309 116.038 27.7709 115.259 27.7709H113.131V31.2909ZM120.552 37.4349V26.2349H122.36V37.4349H120.552ZM126.563 37.6269C126.073 37.6269 125.614 37.5363 125.187 37.3549C124.771 37.1629 124.435 36.8856 124.179 36.5229C123.934 36.1603 123.811 35.7283 123.811 35.2269C123.811 34.6296 123.961 34.1443 124.259 33.7709C124.558 33.3976 124.963 33.1256 125.475 32.9549C125.987 32.7736 126.553 32.6829 127.171 32.6829H129.155C129.155 32.2563 129.086 31.9096 128.947 31.6429C128.809 31.3656 128.617 31.1629 128.371 31.0349C128.126 30.8963 127.838 30.8269 127.507 30.8269C127.081 30.8269 126.707 30.9229 126.387 31.1149C126.067 31.3069 125.87 31.6216 125.795 32.0589H123.971C124.025 31.4829 124.217 30.9923 124.547 30.5869C124.889 30.1709 125.321 29.8563 125.843 29.6429C126.366 29.4189 126.926 29.3069 127.523 29.3069C128.291 29.3069 128.926 29.4509 129.427 29.7389C129.939 30.0163 130.323 30.4056 130.579 30.9069C130.846 31.4083 130.979 31.9896 130.979 32.6509V35.0669C130.99 35.3549 131.059 35.5629 131.187 35.6909C131.326 35.8189 131.539 35.8883 131.827 35.8989V37.4349C131.379 37.4349 130.995 37.3869 130.675 37.2909C130.355 37.1949 130.089 37.0509 129.875 36.8589C129.673 36.6669 129.507 36.4163 129.379 36.1069C129.123 36.5336 128.745 36.8963 128.243 37.1949C127.753 37.4829 127.193 37.6269 126.563 37.6269ZM127.027 36.1549C127.443 36.1549 127.806 36.0589 128.115 35.8669C128.435 35.6643 128.686 35.3976 128.867 35.0669C129.059 34.7256 129.155 34.3523 129.155 33.9469V33.8989H127.299C127.022 33.8989 126.755 33.9363 126.499 34.0109C126.243 34.0856 126.041 34.2083 125.891 34.3789C125.742 34.5389 125.667 34.7629 125.667 35.0509C125.667 35.4349 125.801 35.7176 126.067 35.8989C126.334 36.0696 126.654 36.1549 127.027 36.1549ZM133.351 40.9549L135.095 37.0829L131.815 29.4989H133.831L136.071 35.1629L138.391 29.4989H140.295L135.255 40.9549H133.351Z" fill="white"/>
<defs>
<clipPath id="clip0_10799_3109">
<rect width="24" height="24" fill="white" transform="translate(16 13.2175)"/>
</clipPath>
</defs>
</svg>
