<svg width="23" height="27" viewBox="0 0 23 27" fill="none" xmlns="http://www.w3.org/2000/svg">
<path d="M19.2298 14.268C19.2176 12.0558 20.232 10.386 22.2851 9.15635C21.1363 7.53484 19.4009 6.64271 17.1095 6.46791C14.9402 6.29916 12.5693 7.71569 11.7017 7.71569C10.7851 7.71569 8.68307 6.52823 7.03321 6.52823C3.62354 6.58244 0 9.21062 0 14.5573C0 16.1367 0.293305 17.7682 0.879916 19.452C1.66206 21.6642 4.48512 27.0893 7.43041 26.9989C8.97027 26.9628 10.0579 25.9199 12.0622 25.9199C14.0053 25.9199 15.0135 26.9989 16.7306 26.9989C19.7003 26.9567 22.2545 22.0259 23 19.8076C19.0159 17.9571 19.2298 14.3825 19.2298 14.268ZM15.7712 4.37022C17.4394 2.41718 17.2867 0.638955 17.2378 0C15.7651 0.0843902 14.0603 0.988573 13.0888 2.10373C12.0194 3.29725 11.39 4.77408 11.5245 6.43778C13.1193 6.55836 14.5736 5.75063 15.7712 4.37022Z" fill="#1C1C1C"/>
</svg>
