<svg width="24" height="24" viewBox="0 0 24 24" fill="none" xmlns="http://www.w3.org/2000/svg">
<path d="M22.5006 12.2332C22.5006 11.3699 22.4291 10.7399 22.2744 10.0865H12.2148V13.9832H18.1196C18.0006 14.9516 17.3577 16.4099 15.9291 17.3898L15.909 17.5203L19.0897 19.935L19.3101 19.9565C21.3339 18.1249 22.5006 15.4298 22.5006 12.2332Z" fill="#4285F4"/>
<path d="M12.2159 22.5001C15.1088 22.5001 17.5373 21.5667 19.3112 19.9567L15.9302 17.3899C15.0254 18.0083 13.8111 18.4399 12.2159 18.4399C9.38267 18.4399 6.97791 16.6084 6.12069 14.0767L5.99504 14.0871L2.68778 16.5955L2.64453 16.7133C4.40642 20.1433 8.02547 22.5001 12.2159 22.5001Z" fill="#1A7338"/>
<path d="M6.119 14.0766C5.89282 13.4233 5.76191 12.7232 5.76191 11.9999C5.76191 11.2766 5.89282 10.5766 6.1071 9.92327L6.10111 9.78407L2.7524 7.23547L2.64284 7.28655C1.91668 8.70992 1.5 10.3082 1.5 11.9999C1.5 13.6916 1.91668 15.2899 2.64284 16.7132L6.119 14.0766Z" fill="#EBA000"/>
<path d="M12.216 5.55997C14.2279 5.55997 15.585 6.41164 16.3589 7.12335L19.3826 4.23C17.5256 2.53834 15.1088 1.5 12.216 1.5C8.02547 1.5 4.40642 3.85665 2.64453 7.28662L6.10881 9.92332C6.97794 7.39166 9.38267 5.55997 12.216 5.55997Z" fill="#EB4335"/>
</svg>
