<svg width="22" height="18" viewBox="0 0 22 18" fill="none" xmlns="http://www.w3.org/2000/svg">
<path d="M4.29289 11.9597C3.90237 12.3502 3.90237 12.9833 4.29289 13.3739C4.68342 13.7644 5.31658 13.7644 5.70711 13.3739L9.06777 10.0132L10.3675 11.0746C10.7759 11.4081 11.3731 11.3673 11.7322 10.9812L15.0028 7.46524L16.2705 8.81737C16.6482 9.22028 17.281 9.24069 17.6839 8.86296C18.0869 8.48523 18.1073 7.8524 17.7295 7.44948L15.7295 5.31615C15.54 5.11401 15.2751 4.99956 14.9981 5.00009C14.721 5.00063 14.4565 5.11611 14.2678 5.31899L10.9064 8.93253L9.63253 7.89223C9.23489 7.56748 8.65592 7.59662 8.29289 7.95965L4.29289 11.9597Z" fill="#1A2373"/>
<path fill-rule="evenodd" clip-rule="evenodd" d="M4 0C1.79086 0 0 1.79086 0 4V14C0 16.2091 1.79086 18 4 18H18C20.2091 18 22 16.2091 22 14V4C22 1.79086 20.2091 0 18 0H4ZM2 4C2 2.89543 2.89543 2 4 2H18C19.1046 2 20 2.89543 20 4V14C20 15.1046 19.1046 16 18 16H4C2.89543 16 2 15.1046 2 14V4Z" fill="#1A2373"/>
</svg>
