<svg width="495" height="470" viewBox="0 0 495 470" fill="none" xmlns="http://www.w3.org/2000/svg">
<path fill-rule="evenodd" clip-rule="evenodd" d="M481.778 102.927C508.599 144.938 484.995 200.702 473.154 249.058C463.747 287.475 444.533 321.239 420.614 352.702C398.788 381.412 371.684 403.677 341.096 422.768C307.311 443.854 273.491 471.698 233.703 469.359C193.369 466.987 165 431.488 130.499 410.385C89.4191 385.259 34.1277 376.13 11.6365 333.532C-11.4055 289.891 5.5567 237.262 13.3917 188.586C22.0373 134.875 19.751 72.5033 59.6 35.5523C99.4771 -1.42467 161.346 -1.69897 215.702 0.989421C262.906 3.32411 301.724 32.7925 345.887 49.7119C392.252 67.475 455.042 61.048 481.778 102.927Z" fill="#F9FAFB"/>
</svg>
