<svg width="25" height="25" viewBox="0 0 25 25" fill="none" xmlns="http://www.w3.org/2000/svg">
<path d="M18.0213 19.8349C16.874 20.8572 15.6213 20.6958 14.4154 20.2116C13.1393 19.7166 11.9686 19.6951 10.6222 20.2116C8.93634 20.8787 8.04658 20.685 7.03975 19.8349C1.32655 14.4225 2.16948 6.18017 8.65537 5.87888C10.2359 5.95421 11.3364 6.67514 12.2612 6.73971C13.6427 6.48146 14.9656 5.739 16.4408 5.83584C18.2086 5.96497 19.5432 6.61058 20.4213 7.77269C16.7686 9.78486 17.6349 14.2073 20.9832 15.4448C20.3159 17.0588 19.4496 18.6621 18.0096 19.8457L18.0213 19.8349ZM12.1442 5.81432C11.9686 3.41478 14.0876 1.4349 16.5227 1.24121C16.8622 4.01736 13.7832 6.08333 12.1442 5.81432Z" fill="white"/>
</svg>
