<svg width="366" height="63" viewBox="0 0 366 63" fill="none" xmlns="http://www.w3.org/2000/svg">
<path d="M31.0346 33.6649C32.4107 33.6649 33.5262 32.5493 33.5262 31.1733C33.5262 29.7972 32.4107 28.6816 31.0346 28.6816C29.6585 28.6816 28.543 29.7972 28.543 31.1733C28.543 32.5493 29.6585 33.6649 31.0346 33.6649Z" fill="white"/>
<path d="M50.7511 39.7088C51.7647 40.1545 52.2321 41.3428 51.7016 42.3145C49.9513 45.5219 47.4731 48.2864 44.456 50.3798C40.888 52.855 36.7054 54.2954 32.3699 54.5418C28.0345 54.7883 23.7155 53.831 19.8903 51.7759C16.065 49.7206 12.8826 46.6477 10.6949 42.8968C8.50715 39.1457 7.39933 34.8628 7.49386 30.5214C7.58839 26.18 8.88162 21.9495 11.2306 18.2973C13.5795 14.6451 16.8927 11.7136 20.8037 9.82688C24.1113 8.2313 27.7375 7.43555 31.3912 7.49099C32.4983 7.50778 33.3021 8.4997 33.1912 9.60131C33.0803 10.7029 32.0961 11.4952 30.9891 11.4978C28.0734 11.5045 25.1871 12.164 22.5458 13.4381C19.3007 15.0035 16.5517 17.4358 14.6028 20.4661C12.6538 23.4964 11.5808 27.0068 11.5024 30.6086C11.4239 34.2108 12.3431 37.7643 14.1583 40.8766C15.9735 43.9889 18.614 46.5385 21.7879 48.2438C24.9619 49.9491 28.5453 50.7434 32.1425 50.5388C35.7396 50.3345 39.2102 49.1393 42.1705 47.0854C44.5798 45.4138 46.5749 43.2264 48.0163 40.692C48.5634 39.7294 49.7377 39.2628 50.7511 39.7088Z" fill="white"/>
<path d="M43.3733 36.5686C44.439 37.0343 44.937 38.2856 44.3318 39.2787C43.2124 41.1163 41.7196 42.7087 39.9419 43.9485C37.5863 45.5913 34.8223 46.5508 31.9555 46.7207C29.0886 46.8906 26.2305 46.2645 23.6973 44.9115C21.164 43.5586 19.0542 41.5314 17.6012 39.0543C16.1481 36.5771 15.4084 33.7464 15.4638 30.875C15.5193 28.0037 16.3676 25.2036 17.9152 22.7845C19.4627 20.3653 21.6491 18.4211 24.2327 17.167C26.1824 16.2206 28.301 15.695 30.4515 15.6146C31.6136 15.5712 32.4625 16.6165 32.3489 17.7738C32.2353 18.9312 31.199 19.7569 30.0404 19.8586C28.6676 19.979 27.3221 20.3487 26.072 20.9556C24.1871 21.8706 22.5919 23.2889 21.4629 25.0539C20.3339 26.8189 19.7149 28.8616 19.6745 30.9565C19.6341 33.0512 20.1737 35.1165 21.2338 36.9237C22.2939 38.7308 23.8331 40.2099 25.6814 41.1968C27.5294 42.184 29.6146 42.6407 31.7061 42.5169C33.7978 42.3928 35.8142 41.6929 37.5327 40.4942C38.6726 39.6993 39.6521 38.7054 40.4272 37.566C41.0813 36.6045 42.3076 36.1029 43.3733 36.5686Z" fill="white"/>
<path d="M35.6279 34.1024C36.5719 34.7038 36.8637 35.985 36.031 36.7335C35.5165 37.1962 34.9377 37.5874 34.3098 37.8936C33.0707 38.4978 31.6889 38.7477 30.3167 38.6154C28.9444 38.4834 27.6355 37.9741 26.5347 37.1446C25.4337 36.3149 24.5837 35.1969 24.0786 33.9142C23.5734 32.6316 23.4328 31.2343 23.6722 29.8766C23.9117 28.5192 24.5219 27.2542 25.4354 26.2219C26.3488 25.1894 27.5301 24.4297 28.8484 24.0267C29.5164 23.8225 30.2064 23.7139 30.8983 23.7014C32.0178 23.6812 32.678 24.8171 32.3977 25.901L32.3609 26.0432C32.1007 27.0486 31.0268 27.6005 30.0337 27.9042C29.4305 28.0886 28.8898 28.4362 28.4719 28.9086C28.0539 29.381 27.7745 29.9598 27.6652 30.581C27.5555 31.2021 27.6198 31.8415 27.851 32.4285C28.0823 33.0153 28.4712 33.527 28.9748 33.9065C29.4786 34.2862 30.0775 34.5192 30.7054 34.5798C31.3333 34.6401 31.9657 34.5259 32.5328 34.2494C33.4661 33.7941 34.628 33.4653 35.504 34.0234L35.6279 34.1024Z" fill="white"/>
<path d="M31.2937 21.6818C31.3213 20.665 32.1737 19.848 33.1726 20.0398C34.3172 20.2596 35.4248 20.6552 36.455 21.216C38.0262 22.0712 39.373 23.2863 40.3848 24.7618C41.3966 26.2374 42.0447 27.9312 42.2764 29.7052C42.4284 30.8683 42.3985 32.0441 42.191 33.191C42.0101 34.1918 40.9407 34.6926 39.9822 34.352C39.0239 34.0117 38.5472 32.955 38.6496 31.9429C38.7087 31.3591 38.7005 30.7684 38.624 30.1823C38.4675 28.9846 38.03 27.8412 37.347 26.8451C36.6638 25.8489 35.7549 25.0287 34.694 24.4513C34.175 24.1688 33.6268 23.9483 33.0607 23.793C32.08 23.5237 31.266 22.6986 31.2937 21.6818Z" fill="white"/>
<path d="M31.532 13.8549C31.5609 12.829 32.418 12.0118 33.4366 12.1379C35.8726 12.4395 38.2359 13.1977 40.4004 14.3785C43.11 15.8567 45.4315 17.9552 47.1746 20.5025C48.918 23.0497 50.0335 25.9734 50.4304 29.0343C50.7473 31.4796 50.5986 33.9572 49.9976 36.3372C49.7465 37.3321 48.6743 37.8352 47.7076 37.4908C46.7408 37.1463 46.248 36.0846 46.477 35.0842C46.894 33.2621 46.9865 31.3757 46.7451 29.5122C46.4236 27.0328 45.5199 24.6646 44.1079 22.6013C42.6959 20.538 40.8155 18.8382 38.6206 17.6409C36.9712 16.741 35.1792 16.1442 33.3297 15.8732C32.3144 15.7245 31.5031 14.8807 31.532 13.8549Z" fill="white"/>
<path d="M79.4778 42.0216C77.9486 42.0216 76.5556 41.7597 75.2987 41.2361C74.0628 40.7124 73.0782 39.9373 72.3451 38.9109C71.6119 37.8635 71.2244 36.5647 71.1825 35.0146H75.4244C75.4663 36.041 75.8329 36.8999 76.5241 37.5911C77.2364 38.2824 78.2104 38.6281 79.4464 38.6281C80.5147 38.6281 81.3631 38.3767 81.9915 37.8739C82.6199 37.3712 82.9342 36.6904 82.9342 35.8315C82.9342 35.3916 82.8608 35.0041 82.7142 34.6689C82.5885 34.3338 82.3371 34.0196 81.9601 33.7263C81.583 33.433 81.0489 33.1502 80.3576 32.8779C79.6873 32.5846 78.797 32.2599 77.6867 31.9038C76.2414 31.422 75.0788 30.8669 74.1989 30.2385C73.3191 29.6101 72.6802 28.9083 72.2822 28.1332C71.9052 27.3372 71.7166 26.4784 71.7166 25.5567C71.7166 24.1741 72.0413 23.022 72.6907 22.1003C73.361 21.1576 74.2513 20.4559 75.3615 19.995C76.4927 19.5132 77.7391 19.2723 79.1007 19.2723C80.4833 19.2723 81.7297 19.5132 82.8399 19.995C83.9711 20.4768 84.8823 21.1891 85.5736 22.1317C86.2649 23.0744 86.621 24.237 86.6419 25.6195H82.3371C82.3162 24.8235 82.002 24.1322 81.3945 23.5457C80.808 22.9591 79.991 22.6659 78.9436 22.6659C78.1057 22.6659 77.3935 22.8858 76.8069 23.3257C76.2204 23.7656 75.9271 24.415 75.9271 25.2739C75.9271 25.9023 76.1576 26.4365 76.6184 26.8764C77.1002 27.3163 77.7391 27.7038 78.5351 28.039C79.3521 28.3532 80.2528 28.6884 81.2374 29.0445C81.782 29.233 82.3895 29.4739 83.0598 29.7672C83.7511 30.0604 84.411 30.4584 85.0394 30.9612C85.6678 31.443 86.1811 32.0609 86.5791 32.8151C86.998 33.5482 87.2075 34.4595 87.2075 35.5487C87.2075 36.8894 86.8619 38.0415 86.1706 39.0051C85.5003 39.9687 84.5786 40.7124 83.4055 41.2361C82.2534 41.7597 80.9441 42.0216 79.4778 42.0216ZM92.0423 24.0484C91.33 24.0484 90.7121 23.7971 90.1884 23.2943C89.6856 22.7706 89.4343 22.1527 89.4343 21.4404C89.4343 20.7073 89.6856 20.0893 90.1884 19.5866C90.7121 19.0838 91.33 18.8324 92.0423 18.8324C92.7754 18.8324 93.3934 19.0838 93.8961 19.5866C94.3989 20.0893 94.6503 20.7073 94.6503 21.4404C94.6503 22.1527 94.3989 22.7706 93.8961 23.2943C93.3934 23.7971 92.7754 24.0484 92.0423 24.0484ZM90.0313 41.6445V26.0594H94.0532V41.6445H90.0313ZM103.12 41.6445C101.445 41.6445 100.177 41.2361 99.3183 40.4191C98.4804 39.6021 98.0615 38.3767 98.0615 36.7428V29.4215H96.0505V26.0594H98.0615V22.2574H102.083V26.0594H105.634V29.4215H102.083V36.7742C102.083 37.3607 102.241 37.7587 102.555 37.9682C102.869 38.1777 103.277 38.2824 103.78 38.2824H105.634V41.6445H103.12ZM115.057 42.0216C113.423 42.0216 112.009 41.6655 110.815 40.9533C109.642 40.241 108.731 39.267 108.082 38.031C107.432 36.7951 107.107 35.4021 107.107 33.852C107.107 32.1971 107.443 30.7622 108.113 29.5472C108.783 28.3322 109.715 27.3896 110.909 26.7193C112.103 26.028 113.486 25.6823 115.057 25.6823C116.607 25.6823 117.958 26.0175 119.111 26.6878C120.284 27.3582 121.195 28.2799 121.844 29.4529C122.515 30.626 122.85 31.9771 122.85 33.5063C122.85 33.7787 122.839 34.051 122.818 34.3233C122.797 34.5747 122.766 34.8156 122.724 35.046H111.161C111.224 35.7792 111.412 36.4285 111.726 36.9941C112.062 37.5388 112.501 37.9682 113.046 38.2824C113.612 38.5757 114.251 38.7223 114.963 38.7223C115.696 38.7223 116.324 38.5652 116.848 38.251C117.393 37.9368 117.822 37.455 118.136 36.8056H122.441C122.148 37.7273 121.677 38.5862 121.027 39.3822C120.378 40.1782 119.55 40.8171 118.545 41.2989C117.56 41.7807 116.398 42.0216 115.057 42.0216ZM111.192 32.3752H118.702C118.681 31.3278 118.294 30.5003 117.539 29.8928C116.806 29.2854 115.937 28.9816 114.931 28.9816C114.073 28.9816 113.277 29.2539 112.543 29.7986C111.81 30.3223 111.36 31.1811 111.192 32.3752ZM124.978 41.6445V19.6494H129V41.6445H124.978ZM133.297 48.5573L136.722 40.9218L130.406 26.0594H134.899L138.921 36.6799L143.038 26.0594H147.279L137.539 48.5573H133.297ZM154.794 41.6445C153.118 41.6445 151.851 41.2361 150.992 40.4191C150.154 39.6021 149.735 38.3767 149.735 36.7428V29.4215H147.724V26.0594H149.735V22.2574H153.757V26.0594H157.308V29.4215H153.757V36.7742C153.757 37.3607 153.914 37.7587 154.229 37.9682C154.543 38.1777 154.951 38.2824 155.454 38.2824H157.308V41.6445H154.794ZM161.851 24.0484C161.139 24.0484 160.521 23.7971 159.997 23.2943C159.494 22.7706 159.243 22.1527 159.243 21.4404C159.243 20.7073 159.494 20.0893 159.997 19.5866C160.521 19.0838 161.139 18.8324 161.851 18.8324C162.584 18.8324 163.202 19.0838 163.705 19.5866C164.208 20.0893 164.459 20.7073 164.459 21.4404C164.459 22.1527 164.208 22.7706 163.705 23.2943C163.202 23.7971 162.584 24.0484 161.851 24.0484ZM159.84 41.6445V26.0594H163.862V41.6445H159.84ZM174.123 42.0216C172.552 42.0216 171.18 41.676 170.007 40.9847C168.834 40.2725 167.923 39.3089 167.273 38.0939C166.624 36.858 166.299 35.444 166.299 33.852C166.299 32.2809 166.613 30.8774 167.242 29.6415C167.891 28.4056 168.802 27.442 169.975 26.7507C171.149 26.0385 172.531 25.6823 174.123 25.6823C176.008 25.6823 177.6 26.1537 178.899 27.0963C180.219 28.039 181.109 29.432 181.57 31.2754H177.265C177.077 30.6679 176.71 30.1547 176.166 29.7357C175.642 29.2958 174.951 29.0759 174.092 29.0759C173.233 29.0759 172.531 29.2958 171.986 29.7357C171.442 30.1756 171.033 30.7622 170.761 31.4953C170.51 32.2076 170.384 32.9931 170.384 33.852C170.384 34.7108 170.51 35.5068 170.761 36.24C171.033 36.9522 171.442 37.5283 171.986 37.9682C172.531 38.3872 173.233 38.5966 174.092 38.5966C174.909 38.5966 175.579 38.4186 176.103 38.0625C176.626 37.6854 177.014 37.1408 177.265 36.4285H181.57C181.298 37.6016 180.805 38.6071 180.093 39.445C179.402 40.2829 178.543 40.9218 177.517 41.3617C176.511 41.8016 175.38 42.0216 174.123 42.0216ZM190.272 42.0216C189.099 42.0216 187.999 41.8121 186.973 41.3932C185.946 40.9533 185.098 40.3353 184.428 39.5393C183.778 38.7433 183.422 37.8111 183.359 36.7428H187.381C187.486 37.4131 187.811 37.9368 188.355 38.3138C188.921 38.6909 189.549 38.8794 190.241 38.8794C190.827 38.8794 191.372 38.7537 191.875 38.5024C192.398 38.23 192.66 37.8111 192.66 37.2455C192.66 36.8056 192.472 36.46 192.095 36.2086C191.718 35.9572 191.278 35.7582 190.775 35.6116C190.272 35.4649 189.811 35.3393 189.392 35.2345C188.345 34.9831 187.392 34.6899 186.533 34.3547C185.674 33.9986 184.993 33.5168 184.491 32.9093C183.988 32.2809 183.736 31.4535 183.736 30.427C183.736 29.4215 184.019 28.5627 184.585 27.8504C185.171 27.1382 185.936 26.604 186.879 26.2479C187.842 25.8709 188.879 25.6823 189.989 25.6823C191.728 25.6823 193.194 26.1223 194.388 27.0021C195.582 27.8819 196.232 29.1806 196.336 30.8983H192.534C192.472 30.228 192.189 29.7253 191.686 29.3901C191.204 29.034 190.597 28.8559 189.864 28.8559C189.277 28.8559 188.753 28.9607 188.293 29.1701C187.832 29.3796 187.601 29.7776 187.601 30.3642C187.601 30.7831 187.79 31.1288 188.167 31.4011C188.544 31.6525 188.994 31.8619 189.518 32.0295C190.042 32.1761 190.503 32.3018 190.901 32.4066C191.99 32.6789 192.943 32.9931 193.76 33.3492C194.598 33.7053 195.258 34.1871 195.739 34.7946C196.221 35.4021 196.473 36.2191 196.494 37.2455C196.494 38.2719 196.2 39.1413 195.614 39.8535C195.048 40.5657 194.294 41.1104 193.351 41.4874C192.409 41.8435 191.382 42.0216 190.272 42.0216Z" fill="white"/>
</svg>
