<svg width="25" height="25" viewBox="0 0 25 25" fill="none" xmlns="http://www.w3.org/2000/svg">
<g clip-path="url(#clip0_11173_35089)">
<path d="M11.3053 10.3633L0.0976562 20.9852C0.223517 21.3887 0.449692 21.7608 0.758892 22.0731C1.06809 22.3854 1.45213 22.6296 1.88165 22.787C2.31117 22.9445 2.77481 23.011 3.23711 22.9815C3.69941 22.952 4.14814 22.8273 4.549 22.6169L17.1597 16.12L11.3053 10.3633Z" fill="#EA4335"/>
<path d="M22.6424 8.55798L17.1891 5.73242L11.0508 10.6051L17.2141 16.1049L22.6259 13.3097C23.1053 13.0826 23.5068 12.7411 23.787 12.3223C24.0672 11.9035 24.2153 11.4233 24.2153 10.9338C24.2153 10.4442 24.0672 9.96405 23.787 9.54524C23.5068 9.12643 23.1053 8.78497 22.6259 8.55789L22.6424 8.55798Z" fill="#FBBC04"/>
<path d="M0.100289 0.829102C0.0325846 1.05566 -0.00113735 1.28942 2.92611e-05 1.52411V20.2899C0.000697792 20.5245 0.0343886 20.758 0.100289 20.985L11.6921 10.635L0.100289 0.829102Z" fill="#4285F4"/>
<path d="M11.3888 10.9078L17.1847 5.73284L4.5908 -0.794403C4.11696 -1.04542 3.57804 -1.17836 3.02893 -1.17968C1.66625 -1.18208 0.468239 -0.363947 0.0976562 0.82235L11.3888 10.9078Z" fill="#34A853"/>
</g>
<defs>
<clipPath id="clip0_11173_35089">
<rect width="24.2136" height="24.2136" fill="white"/>
</clipPath>
</defs>
</svg>
