<svg width="18" height="18" viewBox="0 0 18 18" fill="none" xmlns="http://www.w3.org/2000/svg">
<path d="M5.00806 0H12.2611C15.0242 0 17.2692 2.24499 17.2692 5.00806V12.2611C17.2692 13.5893 16.7415 14.8632 15.8024 15.8024C14.8632 16.7415 13.5893 17.2692 12.2611 17.2692H5.00806C2.24499 17.2692 0 15.0242 0 12.2611V5.00806C0 3.67984 0.527634 2.40602 1.46683 1.46683C2.40602 0.527634 3.67984 0 5.00806 0ZM4.83537 1.72692C4.01096 1.72692 3.22031 2.05441 2.63736 2.63736C2.05441 3.22031 1.72692 4.01096 1.72692 4.83537V12.4338C1.72692 14.1521 3.11709 15.5423 4.83537 15.5423H12.4338C13.2582 15.5423 14.0489 15.2148 14.6318 14.6318C15.2148 14.0489 15.5423 13.2582 15.5423 12.4338V4.83537C15.5423 3.11709 14.1521 1.72692 12.4338 1.72692H4.83537ZM13.1677 3.02211C13.454 3.02211 13.7285 3.13582 13.9309 3.33823C14.1334 3.54065 14.2471 3.81518 14.2471 4.10143C14.2471 4.38768 14.1334 4.66222 13.9309 4.86463C13.7285 5.06704 13.454 5.18075 13.1677 5.18075C12.8815 5.18075 12.607 5.06704 12.4046 4.86463C12.2021 4.66222 12.0884 4.38768 12.0884 4.10143C12.0884 3.81518 12.2021 3.54065 12.4046 3.33823C12.607 3.13582 12.8815 3.02211 13.1677 3.02211ZM8.63459 4.3173C9.77961 4.3173 10.8777 4.77215 11.6874 5.5818C12.497 6.39145 12.9519 7.48957 12.9519 8.63459C12.9519 9.77961 12.497 10.8777 11.6874 11.6874C10.8777 12.497 9.77961 12.9519 8.63459 12.9519C7.48957 12.9519 6.39145 12.497 5.5818 11.6874C4.77215 10.8777 4.3173 9.77961 4.3173 8.63459C4.3173 7.48957 4.77215 6.39145 5.5818 5.5818C6.39145 4.77215 7.48957 4.3173 8.63459 4.3173ZM8.63459 6.04421C7.94758 6.04421 7.28871 6.31713 6.80292 6.80292C6.31713 7.28871 6.04421 7.94758 6.04421 8.63459C6.04421 9.3216 6.31713 9.98047 6.80292 10.4663C7.28871 10.9521 7.94758 11.225 8.63459 11.225C9.3216 11.225 9.98047 10.9521 10.4663 10.4663C10.9521 9.98047 11.225 9.3216 11.225 8.63459C11.225 7.94758 10.9521 7.28871 10.4663 6.80292C9.98047 6.31713 9.3216 6.04421 8.63459 6.04421Z" fill="white"/>
</svg>
