<svg width="17" height="19" viewBox="0 0 17 19" fill="none" xmlns="http://www.w3.org/2000/svg">
<path d="M3.54744 1.75784C3.55117 2.23758 3.3679 2.69953 3.03726 3.0438C2.70663 3.38806 2.2552 3.58698 1.78059 3.59754C1.30697 3.58015 0.858067 3.37952 0.526673 3.03713C0.195279 2.69473 0.00672965 2.23675 0 1.75784C0.0204679 1.29112 0.215866 0.849757 0.546545 0.523303C0.877224 0.196848 1.31841 0.00975909 1.78059 0C2.2414 0.00994555 2.68102 0.197503 3.00948 0.524285C3.33794 0.851066 3.53039 1.29236 3.54744 1.75784ZM0.190826 6.86626C0.190826 5.80906 0.856658 5.97416 1.78059 5.97416C2.70451 5.97416 3.35662 5.80906 3.35662 6.86626V17.1663C3.35662 18.2374 2.69079 18.0182 1.78059 18.0182C0.870387 18.0182 0.190826 18.2374 0.190826 17.1663V6.86626ZM6.10232 6.86765C6.10232 6.27661 6.31923 6.05602 6.65832 5.98803C6.99742 5.92005 8.16846 5.98803 8.57482 5.98803C8.98256 5.98803 9.14593 6.66092 9.1322 7.16871C9.48136 6.6963 9.94436 6.32206 10.4771 6.08164C11.0099 5.84121 11.5947 5.7426 12.1758 5.79518C12.7466 5.75996 13.3183 5.84647 13.8538 6.04907C14.3893 6.25167 14.8767 6.56585 15.2843 6.97119C15.6918 7.37653 16.0105 7.86397 16.2195 8.40186C16.4285 8.93975 16.5232 9.51606 16.4975 10.0934V17.1247C16.4975 18.1958 15.8454 17.9766 14.9201 17.9766C13.9948 17.9766 13.3441 18.1958 13.3441 17.1247V11.632C13.368 11.3493 13.3315 11.0648 13.237 10.7977C13.1424 10.5306 12.9921 10.2871 12.7963 10.0839C12.6004 9.8807 12.3635 9.72247 12.1018 9.61996C11.8401 9.51746 11.5596 9.47308 11.2793 9.48984C11.0002 9.48241 10.7227 9.53503 10.4652 9.64421C10.2077 9.75339 9.97615 9.91665 9.78584 10.1231C9.59553 10.3296 9.45083 10.5747 9.36133 10.842C9.27184 11.1093 9.23959 11.3928 9.26674 11.6736V17.1663C9.26674 18.2374 8.6009 18.0182 7.67698 18.0182C6.75305 18.0182 6.10095 18.2374 6.10095 17.1663L6.10232 6.86765Z" fill="white"/>
</svg>
