<svg width="148" height="33" viewBox="0 0 148 33" fill="none" xmlns="http://www.w3.org/2000/svg">
<path d="M14.8951 3.80425C14.953 3.49416 15.1176 3.21409 15.3602 3.01255C15.6029 2.81101 15.9084 2.70068 16.2239 2.70068C16.5393 2.70068 16.8448 2.81101 17.0875 3.01255C17.3302 3.21409 17.4947 3.49416 17.5527 3.80425L18.9733 11.3173C19.0742 11.8514 19.3338 12.3427 19.7182 12.7271C20.1026 13.1115 20.5939 13.3711 21.128 13.472L28.6411 14.8927C28.9512 14.9506 29.2312 15.1151 29.4328 15.3578C29.6343 15.6005 29.7446 15.906 29.7446 16.2214C29.7446 16.5369 29.6343 16.8424 29.4328 17.0851C29.2312 17.3277 28.9512 17.4923 28.6411 17.5502L21.128 18.9709C20.5939 19.0718 20.1026 19.3314 19.7182 19.7158C19.3338 20.1001 19.0742 20.5915 18.9733 21.1256L17.5527 28.6386C17.4947 28.9487 17.3302 29.2288 17.0875 29.4303C16.8448 29.6319 16.5393 29.7422 16.2239 29.7422C15.9084 29.7422 15.6029 29.6319 15.3602 29.4303C15.1176 29.2288 14.953 28.9487 14.8951 28.6386L13.4744 21.1256C13.3735 20.5915 13.1139 20.1001 12.7296 19.7158C12.3452 19.3314 11.8539 19.0718 11.3197 18.9709L3.80669 17.5502C3.4966 17.4923 3.21653 17.3277 3.01499 17.0851C2.81345 16.8424 2.70312 16.5369 2.70312 16.2214C2.70312 15.906 2.81345 15.6005 3.01499 15.3578C3.21653 15.1151 3.4966 14.9506 3.80669 14.8927L11.3197 13.472C11.8539 13.3711 12.3452 13.1115 12.7296 12.7271C13.1139 12.3427 13.3735 11.8514 13.4744 11.3173L14.8951 3.80425Z" stroke="#FF5A3D" stroke-width="1.84546" stroke-linecap="round" stroke-linejoin="round"/>
<path d="M26.7627 3.70068C26.8578 3.44355 27.2215 3.44356 27.3166 3.70068L28.0878 5.78476C28.1177 5.8656 28.1814 5.92933 28.2623 5.95925L30.3464 6.73042C30.6035 6.82557 30.6035 7.18924 30.3464 7.28439L28.2623 8.05556C28.1814 8.08548 28.1177 8.14921 28.0878 8.23005L27.3166 10.3141C27.2215 10.5713 26.8578 10.5713 26.7626 10.3141L25.9915 8.23005C25.9616 8.14921 25.8978 8.08548 25.817 8.05556L23.7329 7.28439C23.4758 7.18924 23.4758 6.82557 23.7329 6.73042L25.817 5.95925C25.8978 5.92933 25.9616 5.8656 25.9915 5.78476L26.7627 3.70068Z" fill="#FF5A3D"/>
<g clip-path="url(#clip0_10799_3646)">
<path d="M7.38544 30.3637C8.65974 30.3637 9.69276 29.3306 9.69276 28.0563C9.69276 26.782 8.65974 25.749 7.38544 25.749C6.11115 25.749 5.07812 26.782 5.07812 28.0563C5.07812 29.3306 6.11115 30.3637 7.38544 30.3637Z" stroke="#FF5A3D" stroke-width="1.18135" stroke-linecap="round" stroke-linejoin="round"/>
</g>
<path d="M45.2385 22.9702C44.2419 22.9702 43.3352 22.7972 42.5185 22.4511C41.7019 22.0912 41.0513 21.5721 40.5668 20.8939C40.0962 20.2018 39.854 19.3505 39.8401 18.34H42.3109C42.3248 19.1152 42.5947 19.7519 43.1207 20.2502C43.6467 20.7347 44.3457 20.9769 45.2177 20.9769C45.9929 20.9769 46.6158 20.797 47.0864 20.4371C47.557 20.0772 47.7923 19.572 47.7923 18.9214C47.7923 18.5477 47.73 18.2362 47.6055 17.9871C47.4809 17.7241 47.2732 17.4957 46.9826 17.3019C46.6919 17.0943 46.3043 16.9005 45.8198 16.7205C45.3354 16.5268 44.7194 16.3053 43.9719 16.0561C43.0999 15.7654 42.387 15.4332 41.8334 15.0595C41.2797 14.6719 40.8713 14.229 40.6084 13.7307C40.3592 13.2185 40.2346 12.651 40.2346 12.0281C40.2346 11.1422 40.4422 10.3948 40.8575 9.78573C41.2866 9.17668 41.861 8.7199 42.5808 8.41538C43.3145 8.09701 44.1242 7.93783 45.0101 7.93783C45.9098 7.93783 46.7196 8.09701 47.4394 8.41538C48.1591 8.73374 48.7405 9.20437 49.1834 9.82725C49.6264 10.4363 49.8548 11.1838 49.8686 12.0696H47.3563C47.3563 11.4744 47.1348 10.9692 46.6919 10.554C46.2489 10.1387 45.6607 9.93107 44.927 9.93107C44.3042 9.91723 43.7712 10.0764 43.3283 10.4086C42.8992 10.7408 42.6846 11.2253 42.6846 11.862C42.6846 12.305 42.8231 12.6718 43.0999 12.9625C43.3906 13.2531 43.7989 13.5092 44.3249 13.7307C44.8509 13.9522 45.4876 14.1944 46.2351 14.4574C46.6919 14.6096 47.1556 14.7896 47.6262 14.9972C48.1107 15.2048 48.5467 15.4748 48.9343 15.807C49.3357 16.1253 49.661 16.5268 49.9101 17.0112C50.1593 17.4818 50.2839 18.0701 50.2839 18.7761C50.2839 19.6481 50.0555 20.4025 49.5987 21.0392C49.1558 21.6621 48.5536 22.1397 47.7923 22.4719C47.031 22.8041 46.1797 22.9702 45.2385 22.9702ZM53.5428 10.7823C53.1137 10.7823 52.7469 10.6301 52.4424 10.3256C52.1379 10.021 51.9856 9.65423 51.9856 9.22513C51.9856 8.79603 52.1379 8.43614 52.4424 8.14546C52.7469 7.84094 53.1137 7.68867 53.5428 7.68867C53.9719 7.68867 54.3387 7.84094 54.6433 8.14546C54.9478 8.43614 55.1001 8.79603 55.1001 9.22513C55.1001 9.65423 54.9478 10.021 54.6433 10.3256C54.3387 10.6301 53.9719 10.7823 53.5428 10.7823ZM52.3594 22.721V12.4226H54.7263V22.721H52.3594ZM61.089 22.721C60.037 22.721 59.2342 22.4649 58.6805 21.9528C58.1268 21.4406 57.85 20.624 57.85 19.5028V14.3951H56.3758V12.4226H57.85V9.93107H60.217V12.4226H62.7293V14.3951H60.217V19.5235C60.217 19.9942 60.3277 20.3194 60.5492 20.4994C60.7707 20.6655 61.1029 20.7485 61.5458 20.7485H62.7293V22.721H61.089ZM69.1364 22.9702C68.0983 22.9702 67.1916 22.7418 66.4165 22.285C65.6413 21.8144 65.0323 21.1776 64.5894 20.3748C64.1603 19.5581 63.9457 18.6238 63.9457 17.5718C63.9457 16.4783 64.1603 15.5301 64.5894 14.7273C65.0323 13.9245 65.6413 13.3016 66.4165 12.8586C67.2055 12.4019 68.119 12.1735 69.1572 12.1735C70.1677 12.1735 71.0466 12.3949 71.7941 12.8379C72.5415 13.267 73.1298 13.8622 73.5589 14.6235C73.988 15.3848 74.2026 16.2499 74.2026 17.2189C74.2026 17.4126 74.1957 17.5857 74.1818 17.7379C74.1818 17.8902 74.168 18.0563 74.1403 18.2362H66.3127C66.3542 18.7761 66.4926 19.2605 66.7279 19.6896C66.9632 20.1049 67.2816 20.4302 67.683 20.6655C68.0983 20.9008 68.5689 21.0185 69.0949 21.0185C69.6624 21.0185 70.14 20.8939 70.5275 20.6447C70.929 20.3956 71.2404 20.0357 71.4619 19.5651H73.9327C73.7389 20.1879 73.4274 20.7555 72.9983 21.2676C72.5831 21.7798 72.0502 22.195 71.3996 22.5134C70.7629 22.8179 70.0085 22.9702 69.1364 22.9702ZM66.3334 16.596H71.7941C71.7802 15.8347 71.5103 15.2325 70.9843 14.7896C70.4583 14.3466 69.8285 14.1252 69.0949 14.1252C68.4305 14.1252 67.8284 14.3259 67.2885 14.7273C66.7625 15.1287 66.4442 15.7516 66.3334 16.596ZM75.8972 22.721V12.4226H78.1811L78.2226 13.7099C78.5687 13.1978 79.0116 12.8171 79.5515 12.568C80.0913 12.305 80.6796 12.1735 81.3163 12.1735C82.1053 12.1735 82.8182 12.3396 83.4549 12.6718C84.1055 12.9901 84.6038 13.4954 84.9498 14.1875C85.3097 13.5507 85.7942 13.0593 86.4032 12.7133C87.0261 12.3534 87.7044 12.1735 88.438 12.1735C89.2408 12.1735 89.9537 12.3396 90.5766 12.6718C91.2133 12.9901 91.7116 13.4815 92.0715 14.1459C92.4314 14.8104 92.6113 15.6478 92.6113 16.6583V22.721H90.2859V16.9697C90.2859 16.0977 90.0852 15.4194 89.6838 14.9349C89.2962 14.4505 88.7148 14.2082 87.9397 14.2082C87.1507 14.2082 86.5347 14.4712 86.0918 14.9972C85.6488 15.5094 85.4274 16.2222 85.4274 17.1358V22.721H83.1019V16.9697C83.1019 16.0838 82.8943 15.4056 82.479 14.9349C82.0776 14.4505 81.4963 14.2082 80.735 14.2082C80.0567 14.2082 79.4684 14.4505 78.9701 14.9349C78.4856 15.4056 78.2434 16.1392 78.2434 17.1358V22.721H75.8972ZM97.8715 22.9702C97.2348 22.9702 96.6396 22.8525 96.0859 22.6172C95.546 22.3681 95.11 22.0082 94.7778 21.5375C94.4595 21.0669 94.3003 20.5063 94.3003 19.8557C94.3003 19.0806 94.4941 18.4508 94.8816 17.9663C95.2692 17.4818 95.7952 17.1289 96.4596 16.9074C97.124 16.6721 97.8577 16.5544 98.6605 16.5544H101.235C101.235 16.0008 101.145 15.5509 100.965 15.2048C100.785 14.845 100.536 14.582 100.218 14.4159C99.8993 14.2359 99.5256 14.1459 99.0965 14.1459C98.5428 14.1459 98.0584 14.2705 97.6431 14.5197C97.2278 14.7688 96.9718 15.1772 96.8749 15.7447H94.5079C94.5771 14.9972 94.8263 14.3605 95.2554 13.8345C95.6983 13.2947 96.2589 12.8863 96.9372 12.6095C97.6154 12.3188 98.3421 12.1735 99.1173 12.1735C100.114 12.1735 100.937 12.3603 101.588 12.7341C102.252 13.094 102.751 13.5992 103.083 14.2498C103.429 14.9003 103.602 15.6547 103.602 16.5129V19.6481C103.616 20.0218 103.706 20.2918 103.872 20.4579C104.052 20.624 104.329 20.7139 104.702 20.7278V22.721C104.121 22.721 103.623 22.6587 103.208 22.5342C102.792 22.4096 102.446 22.2227 102.169 21.9736C101.906 21.7244 101.692 21.3991 101.526 20.9977C101.194 21.5514 100.702 22.022 100.052 22.4096C99.4149 22.7833 98.6882 22.9702 97.8715 22.9702ZM98.4736 21.06C99.0135 21.06 99.4841 20.9354 99.8855 20.6863C100.301 20.4233 100.626 20.0772 100.861 19.6481C101.111 19.2052 101.235 18.7207 101.235 18.1947V18.1324H98.8266C98.4667 18.1324 98.1206 18.1809 97.7884 18.2778C97.4562 18.3747 97.1932 18.5338 96.9995 18.7553C96.8057 18.9629 96.7088 19.2536 96.7088 19.6273C96.7088 20.1257 96.8818 20.4925 97.2278 20.7278C97.5739 20.9493 97.9891 21.06 98.4736 21.06ZM109.853 22.721C108.801 22.721 107.999 22.4649 107.445 21.9528C106.891 21.4406 106.614 20.624 106.614 19.5028V14.3951H105.14V12.4226H106.614V9.93107H108.981V12.4226H111.494V14.3951H108.981V19.5235C108.981 19.9942 109.092 20.3194 109.314 20.4994C109.535 20.6655 109.867 20.7485 110.31 20.7485H111.494V22.721H109.853ZM117.901 22.9702C116.863 22.9702 115.956 22.7418 115.181 22.285C114.406 21.8144 113.797 21.1776 113.354 20.3748C112.925 19.5581 112.71 18.6238 112.71 17.5718C112.71 16.4783 112.925 15.5301 113.354 14.7273C113.797 13.9245 114.406 13.3016 115.181 12.8586C115.97 12.4019 116.884 12.1735 117.922 12.1735C118.932 12.1735 119.811 12.3949 120.559 12.8379C121.306 13.267 121.894 13.8622 122.323 14.6235C122.752 15.3848 122.967 16.2499 122.967 17.2189C122.967 17.4126 122.96 17.5857 122.946 17.7379C122.946 17.8902 122.932 18.0563 122.905 18.2362H115.077C115.119 18.7761 115.257 19.2605 115.492 19.6896C115.728 20.1049 116.046 20.4302 116.447 20.6655C116.863 20.9008 117.333 21.0185 117.859 21.0185C118.427 21.0185 118.904 20.8939 119.292 20.6447C119.693 20.3956 120.005 20.0357 120.226 19.5651H122.697C122.503 20.1879 122.192 20.7555 121.763 21.2676C121.348 21.7798 120.815 22.195 120.164 22.5134C119.527 22.8179 118.773 22.9702 117.901 22.9702ZM115.098 16.596H120.559C120.545 15.8347 120.275 15.2325 119.749 14.7896C119.223 14.3466 118.593 14.1252 117.859 14.1252C117.195 14.1252 116.593 14.3259 116.053 14.7273C115.527 15.1287 115.209 15.7516 115.098 16.596ZM129.006 22.721L134.322 8.18698H136.938L142.253 22.721H139.762L138.557 19.2744H132.681L131.456 22.721H129.006ZM133.367 17.385H137.893L135.609 10.9485L133.367 17.385ZM144.113 22.721V8.18698H146.48V22.721H144.113Z" fill="#1A2373"/>
<defs>
<clipPath id="clip0_10799_3646">
<rect width="5.90673" height="5.90673" fill="white" transform="translate(4.42969 25.103)"/>
</clipPath>
</defs>
</svg>
