<svg width="64" height="64" viewBox="0 0 64 64" fill="none" xmlns="http://www.w3.org/2000/svg">
<path d="M29.1683 7.45015C29.2817 6.84291 29.6039 6.29446 30.0792 5.89978C30.5544 5.50511 31.1527 5.28906 31.7704 5.28906C32.3881 5.28906 32.9864 5.50511 33.4617 5.89978C33.9369 6.29446 34.2591 6.84291 34.3725 7.45015L37.1546 22.1628C37.3522 23.2088 37.8606 24.1709 38.6133 24.9236C39.366 25.6764 40.3281 26.1847 41.3741 26.3823L56.0868 29.1644C56.694 29.2778 57.2424 29.6 57.6371 30.0753C58.0318 30.5505 58.2478 31.1488 58.2478 31.7665C58.2478 32.3842 58.0318 32.9825 57.6371 33.4578C57.2424 33.933 56.694 34.2552 56.0868 34.3686L41.3741 37.1507C40.3281 37.3483 39.366 37.8566 38.6133 38.6094C37.8606 39.3621 37.3522 40.3242 37.1546 41.3702L34.3725 56.0829C34.2591 56.6901 33.9369 57.2385 33.4617 57.6332C32.9864 58.0279 32.3881 58.2439 31.7704 58.2439C31.1527 58.2439 30.5544 58.0279 30.0792 57.6332C29.6039 57.2385 29.2817 56.6901 29.1683 56.0829L26.3862 41.3702C26.1886 40.3242 25.6803 39.3621 24.9276 38.6094C24.1748 37.8566 23.2127 37.3483 22.1667 37.1507L7.45405 34.3686C6.84682 34.2552 6.29837 33.933 5.90369 33.4578C5.50902 32.9825 5.29297 32.3842 5.29297 31.7665C5.29297 31.1488 5.50902 30.5505 5.90369 30.0753C6.29837 29.6 6.84682 29.2778 7.45405 29.1644L22.1667 26.3823C23.2127 26.1847 24.1748 25.6764 24.9276 24.9236C25.6803 24.1709 26.1886 23.2088 26.3862 22.1628L29.1683 7.45015Z" stroke="#FF5A3D" stroke-width="3.61393" stroke-linecap="round" stroke-linejoin="round"/>
<path d="M52.3989 7.24709C52.5852 6.74356 53.2974 6.74356 53.4837 7.24709L54.9939 11.3283C55.0525 11.4866 55.1773 11.6114 55.3356 11.67L59.4168 13.1802C59.9204 13.3665 59.9204 14.0787 59.4168 14.265L55.3356 15.7752C55.1773 15.8338 55.0525 15.9586 54.9939 16.1169L53.4837 20.1981C53.2974 20.7016 52.5852 20.7016 52.3989 20.1981L50.8887 16.1169C50.8302 15.9586 50.7053 15.8338 50.547 15.7752L46.4658 14.265C45.9623 14.0787 45.9623 13.3665 46.4658 13.1802L50.547 11.67C50.7053 11.6114 50.8302 11.4866 50.8887 11.3283L52.3989 7.24709Z" fill="#FF5A3D"/>
<g clip-path="url(#clip0_11173_35035)">
<path d="M14.4598 59.4606C16.9552 59.4606 18.9782 57.4376 18.9782 54.9422C18.9782 52.4468 16.9552 50.4238 14.4598 50.4238C11.9644 50.4238 9.94141 52.4468 9.94141 54.9422C9.94141 57.4376 11.9644 59.4606 14.4598 59.4606Z" stroke="#FF5A3D" stroke-width="2.31341" stroke-linecap="round" stroke-linejoin="round"/>
</g>
<defs>
<clipPath id="clip0_11173_35035">
<rect width="11.567" height="11.567" fill="white" transform="translate(8.67578 49.1582)"/>
</clipPath>
</defs>
</svg>
