<svg width="97" height="31" viewBox="0 0 97 31" fill="none" xmlns="http://www.w3.org/2000/svg">
<path d="M15.3102 16.6076C15.9891 16.6076 16.5394 16.0573 16.5394 15.3784C16.5394 14.6995 15.9891 14.1492 15.3102 14.1492C14.6314 14.1492 14.0811 14.6995 14.0811 15.3784C14.0811 16.0573 14.6314 16.6076 15.3102 16.6076Z" fill="#1A2373"/>
<path d="M25.0369 19.5893C25.5369 19.8092 25.7675 20.3954 25.5058 20.8747C24.6423 22.4571 23.4198 23.8208 21.9314 24.8536C20.1712 26.0746 18.1078 26.7852 15.969 26.9068C13.8303 27.0283 11.6996 26.5561 9.81254 25.5423C7.92545 24.5283 6.35549 23.0124 5.27623 21.162C4.19697 19.3115 3.65045 17.1987 3.69709 15.0569C3.74372 12.9152 4.3817 10.8282 5.54049 9.02648C6.69928 7.22476 8.33373 5.77859 10.2632 4.84784C11.8949 4.0607 13.6838 3.66814 15.4862 3.69549C16.0323 3.70377 16.4289 4.19311 16.3742 4.73656C16.3195 5.28002 15.834 5.67088 15.2878 5.67215C13.8495 5.67545 12.4256 6.00078 11.1226 6.62935C9.52169 7.4016 8.16555 8.60152 7.20409 10.0964C6.24262 11.5913 5.71328 13.3231 5.67458 15.1C5.63589 16.877 6.08935 18.63 6.98483 20.1654C7.88031 21.7007 9.18293 22.9586 10.7487 23.7998C12.3145 24.641 14.0823 25.0329 15.8568 24.932C17.6314 24.8312 19.3435 24.2416 20.8039 23.2284C21.9925 22.4037 22.9767 21.3246 23.6878 20.0743C23.9577 19.5995 24.537 19.3693 25.0369 19.5893Z" fill="#FF5A3D"/>
<path d="M21.3978 18.0401C21.9235 18.2698 22.1692 18.8871 21.8706 19.3771C21.3184 20.2836 20.582 21.0691 19.7049 21.6808C18.5429 22.4912 17.1794 22.9645 15.7651 23.0484C14.3508 23.1322 12.9408 22.8233 11.6911 22.1559C10.4414 21.4884 9.40059 20.4884 8.68377 19.2663C7.96694 18.0443 7.60202 16.6478 7.62936 15.2313C7.6567 13.8148 8.07522 12.4335 8.83866 11.2401C9.6021 10.0466 10.6807 9.08752 11.9552 8.46882C12.9171 8.00194 13.9623 7.74263 15.0231 7.70298C15.5964 7.68155 16.0152 8.19723 15.9592 8.76818C15.9031 9.33914 15.3919 9.74649 14.8203 9.79662C14.1431 9.85603 13.4793 10.0384 12.8626 10.3378C11.9327 10.7892 11.1458 11.4889 10.5888 12.3596C10.0319 13.2303 9.72652 14.238 9.70659 15.2715C9.68664 16.3049 9.95286 17.3237 10.4758 18.2152C10.9988 19.1068 11.7581 19.8364 12.6699 20.3233C13.5816 20.8103 14.6103 21.0356 15.642 20.9745C16.6739 20.9133 17.6687 20.568 18.5165 19.9767C19.0788 19.5845 19.562 19.0942 19.9444 18.5321C20.267 18.0578 20.872 17.8104 21.3978 18.0401Z" fill="#FF5A3D"/>
<path d="M17.5761 16.8238C18.0419 17.1206 18.1858 17.7526 17.775 18.1218C17.5212 18.3501 17.2356 18.5431 16.9259 18.6941C16.3146 18.9922 15.6329 19.1155 14.956 19.0502C14.279 18.9851 13.6333 18.7338 13.0903 18.3247C12.5471 17.9153 12.1278 17.3638 11.8786 16.731C11.6294 16.0983 11.56 15.4089 11.6781 14.7392C11.7962 14.0695 12.0973 13.4455 12.5479 12.9362C12.9986 12.4268 13.5813 12.0521 14.2317 11.8533C14.5612 11.7526 14.9016 11.699 15.2429 11.6928C15.7952 11.6828 16.1209 12.2432 15.9826 12.7779L15.9644 12.8481C15.8361 13.3441 15.3063 13.6163 14.8164 13.7662C14.5188 13.8571 14.2521 14.0286 14.0459 14.2616C13.8397 14.4947 13.7019 14.7802 13.6479 15.0867C13.5939 15.3931 13.6256 15.7085 13.7396 15.9981C13.8537 16.2876 14.0456 16.54 14.294 16.7272C14.5425 16.9146 14.838 17.0295 15.1478 17.0593C15.4575 17.0891 15.7695 17.0328 16.0492 16.8964C16.5097 16.6718 17.0829 16.5095 17.515 16.7849L17.5761 16.8238Z" fill="#FF5A3D"/>
<path d="M15.4378 10.696C15.4515 10.1944 15.872 9.79137 16.3648 9.88599C16.9294 9.9944 17.4758 10.1896 17.9841 10.4662C18.7592 10.8881 19.4235 11.4876 19.9227 12.2155C20.4219 12.9434 20.7416 13.779 20.8559 14.6541C20.9309 15.2279 20.9161 15.808 20.8137 16.3738C20.7245 16.8675 20.1969 17.1146 19.7241 16.9465C19.2513 16.7786 19.0162 16.2574 19.0667 15.7581C19.0959 15.4701 19.0918 15.1786 19.0541 14.8895C18.9769 14.2987 18.761 13.7346 18.4241 13.2432C18.0871 12.7518 17.6387 12.3471 17.1153 12.0623C16.8593 11.9229 16.5888 11.8141 16.3096 11.7375C15.8258 11.6047 15.4242 11.1976 15.4378 10.696Z" fill="#1A2373"/>
<path d="M15.556 6.83513C15.5703 6.32907 15.9931 5.9259 16.4956 5.9881C17.6974 6.13688 18.8632 6.51093 19.931 7.09345C21.2677 7.82269 22.413 8.85793 23.2729 10.1146C24.1329 11.3712 24.6833 12.8135 24.8791 14.3235C25.0354 15.5298 24.962 16.7521 24.6656 17.9262C24.5416 18.417 24.0127 18.6652 23.5358 18.4953C23.0589 18.3253 22.8158 17.8016 22.9287 17.3081C23.1345 16.4092 23.1801 15.4786 23.061 14.5593C22.9024 13.3361 22.4566 12.1678 21.76 11.15C21.0635 10.1321 20.1358 9.29354 19.053 8.70286C18.2393 8.25894 17.3553 7.9645 16.4429 7.83085C15.942 7.75747 15.5418 7.34118 15.556 6.83513Z" fill="#1A2373"/>
<path d="M39.2085 20.5506C38.4541 20.5506 37.7669 20.4215 37.1469 20.1631C36.5372 19.9048 36.0515 19.5224 35.6898 19.016C35.3281 18.4993 35.1369 17.8586 35.1163 17.0939H37.2089C37.2296 17.6003 37.4104 18.024 37.7514 18.365C38.1028 18.706 38.5833 18.8765 39.193 18.8765C39.7201 18.8765 40.1386 18.7525 40.4486 18.5045C40.7586 18.2565 40.9136 17.9206 40.9136 17.4969C40.9136 17.2799 40.8775 17.0887 40.8051 16.9234C40.7431 16.7581 40.6191 16.603 40.4331 16.4584C40.2471 16.3137 39.9836 16.1742 39.6426 16.0398C39.3119 15.8952 38.8727 15.735 38.325 15.5593C37.6119 15.3216 37.0384 15.0478 36.6044 14.7378C36.1703 14.4277 35.8551 14.0815 35.6588 13.6992C35.4728 13.3065 35.3798 12.8828 35.3798 12.4281C35.3798 11.7461 35.54 11.1777 35.8603 10.723C36.191 10.258 36.6302 9.91177 37.1779 9.68442C37.7359 9.44674 38.3508 9.3279 39.0225 9.3279C39.7046 9.3279 40.3194 9.44674 40.8671 9.68442C41.4252 9.9221 41.8747 10.2735 42.2157 10.7385C42.5567 11.2035 42.7324 11.7771 42.7428 12.4591H40.6191C40.6088 12.0664 40.4538 11.7254 40.1541 11.436C39.8647 11.1467 39.4617 11.002 38.945 11.002C38.5317 11.002 38.1803 11.1105 37.8909 11.3275C37.6016 11.5445 37.4569 11.8649 37.4569 12.2886C37.4569 12.5986 37.5706 12.8621 37.7979 13.0791C38.0356 13.2962 38.3508 13.4873 38.7435 13.6527C39.1465 13.8077 39.5909 13.973 40.0766 14.1487C40.3453 14.2417 40.645 14.3606 40.9756 14.5052C41.3167 14.6499 41.6422 14.8463 41.9522 15.0943C42.2622 15.332 42.5154 15.6368 42.7118 16.0088C42.9184 16.3705 43.0218 16.8201 43.0218 17.3574C43.0218 18.0188 42.8513 18.5872 42.5102 19.0625C42.1796 19.5379 41.7249 19.9048 41.1462 20.1631C40.5778 20.4215 39.9319 20.5506 39.2085 20.5506ZM45.4069 11.6841C45.0555 11.6841 44.7507 11.56 44.4923 11.312C44.2443 11.0537 44.1203 10.7488 44.1203 10.3975C44.1203 10.0358 44.2443 9.73092 44.4923 9.48291C44.7507 9.23489 45.0555 9.11088 45.4069 9.11088C45.7686 9.11088 46.0734 9.23489 46.3214 9.48291C46.5695 9.73092 46.6935 10.0358 46.6935 10.3975C46.6935 10.7488 46.5695 11.0537 46.3214 11.312C46.0734 11.56 45.7686 11.6841 45.4069 11.6841ZM44.4148 20.3646V12.6761H46.3989V20.3646H44.4148ZM50.872 20.3646C50.0452 20.3646 49.42 20.1631 48.9963 19.7601C48.583 19.3571 48.3763 18.7525 48.3763 17.9465V14.3347H47.3842V12.6761H48.3763V10.8005H50.3604V12.6761H52.112V14.3347H50.3604V17.962C50.3604 18.2513 50.4379 18.4477 50.5929 18.551C50.7479 18.6543 50.9495 18.706 51.1975 18.706H52.112V20.3646H50.872ZM56.7607 20.5506C55.9546 20.5506 55.2571 20.375 54.668 20.0236C54.0893 19.6722 53.6398 19.1917 53.3194 18.582C52.9991 17.9723 52.8389 17.2851 52.8389 16.5204C52.8389 15.704 53.0042 14.9961 53.3349 14.3967C53.6656 13.7974 54.1255 13.3323 54.7145 13.0016C55.3036 12.6606 55.9856 12.4901 56.7607 12.4901C57.5254 12.4901 58.1919 12.6554 58.7603 12.9861C59.339 13.3168 59.7885 13.7715 60.1089 14.3502C60.4396 14.9289 60.6049 15.5955 60.6049 16.3499C60.6049 16.4842 60.5997 16.6185 60.5894 16.7529C60.5791 16.8769 60.5636 16.9957 60.5429 17.1094H54.8385C54.8695 17.4711 54.9625 17.7915 55.1175 18.0705C55.2829 18.3392 55.4999 18.551 55.7686 18.706C56.0476 18.8507 56.3628 18.923 56.7141 18.923C57.0758 18.923 57.3859 18.8455 57.6442 18.6905C57.9129 18.5355 58.1247 18.2978 58.2798 17.9775H60.4034C60.2587 18.4322 60.0262 18.8559 59.7058 19.2486C59.3855 19.6412 58.9773 19.9564 58.4813 20.1941C57.9956 20.4318 57.422 20.5506 56.7607 20.5506ZM54.854 15.7918H58.5588C58.5484 15.2751 58.3573 14.8669 57.9852 14.5672C57.6235 14.2676 57.1947 14.1177 56.6986 14.1177C56.275 14.1177 55.8823 14.2521 55.5206 14.5207C55.1589 14.7791 54.9367 15.2028 54.854 15.7918Z" fill="#1A2373"/>
<path d="M61.6549 20.3646V9.51391H63.639V20.3646H61.6549ZM65.7588 23.7748L67.4484 20.0081L64.3327 12.6761H66.5493L68.5334 17.9155L70.5641 12.6761H72.6567L67.8514 23.7748H65.7588ZM76.3639 20.3646C75.5372 20.3646 74.9119 20.1631 74.4882 19.7601C74.0749 19.3571 73.8682 18.7525 73.8682 17.9465V14.3347H72.8761V12.6761H73.8682V10.8005H75.8523V12.6761H77.604V14.3347H75.8523V17.962C75.8523 18.2513 75.9298 18.4477 76.0849 18.551C76.2399 18.6543 76.4414 18.706 76.6894 18.706H77.604V20.3646H76.3639ZM79.8452 11.6841C79.4938 11.6841 79.189 11.56 78.9306 11.312C78.6826 11.0537 78.5586 10.7488 78.5586 10.3975C78.5586 10.0358 78.6826 9.73092 78.9306 9.48291C79.189 9.23489 79.4938 9.11088 79.8452 9.11088C80.2069 9.11088 80.5117 9.23489 80.7597 9.48291C81.0078 9.73092 81.1318 10.0358 81.1318 10.3975C81.1318 10.7488 81.0078 11.0537 80.7597 11.312C80.5117 11.56 80.2069 11.6841 79.8452 11.6841ZM78.8531 20.3646V12.6761H80.8372V20.3646H78.8531ZM85.8993 20.5506C85.1243 20.5506 84.4474 20.3801 83.8687 20.0391C83.29 19.6877 82.8404 19.2124 82.5201 18.613C82.1997 18.0033 82.0395 17.3058 82.0395 16.5204C82.0395 15.7453 82.1946 15.0529 82.5046 14.4432C82.8249 13.8335 83.2745 13.3582 83.8532 13.0171C84.4319 12.6658 85.1139 12.4901 85.8993 12.4901C86.8294 12.4901 87.6148 12.7226 88.2555 13.1877C88.9065 13.6527 89.3457 14.3399 89.573 15.2493H87.4494C87.3564 14.9496 87.1756 14.6964 86.9069 14.4897C86.6485 14.2727 86.3075 14.1642 85.8838 14.1642C85.4601 14.1642 85.1139 14.2727 84.8452 14.4897C84.5765 14.7068 84.375 14.9961 84.2407 15.3578C84.1167 15.7092 84.0547 16.0967 84.0547 16.5204C84.0547 16.9441 84.1167 17.3368 84.2407 17.6984C84.375 18.0498 84.5765 18.334 84.8452 18.551C85.1139 18.7577 85.4601 18.861 85.8838 18.861C86.2868 18.861 86.6175 18.7732 86.8759 18.5975C87.1342 18.4115 87.3254 18.1428 87.4494 17.7915H89.573C89.4387 18.3702 89.1959 18.8662 88.8445 19.2796C88.5035 19.6929 88.0798 20.0081 87.5734 20.2251C87.0774 20.4421 86.5193 20.5506 85.8993 20.5506ZM93.866 20.5506C93.2873 20.5506 92.7447 20.4473 92.2384 20.2406C91.732 20.0236 91.3135 19.7187 90.9828 19.3261C90.6624 18.9334 90.4868 18.4735 90.4558 17.9465H92.4399C92.4916 18.2772 92.6517 18.5355 92.9204 18.7215C93.1994 18.9075 93.5095 19.0005 93.8505 19.0005C94.1398 19.0005 94.4085 18.9385 94.6565 18.8145C94.9149 18.6802 95.0441 18.4735 95.0441 18.1945C95.0441 17.9775 94.9511 17.807 94.765 17.6829C94.579 17.5589 94.362 17.4608 94.114 17.3884C93.866 17.3161 93.6386 17.2541 93.432 17.2024C92.9153 17.0784 92.4451 16.9337 92.0214 16.7684C91.5977 16.5927 91.2618 16.355 91.0138 16.0553C90.7658 15.7453 90.6418 15.3371 90.6418 14.8308C90.6418 14.3347 90.7813 13.911 91.0603 13.5597C91.3496 13.2083 91.7268 12.9448 92.1919 12.7691C92.6672 12.5831 93.1788 12.4901 93.7265 12.4901C94.5842 12.4901 95.3076 12.7071 95.8966 13.1411C96.4857 13.5752 96.806 14.2159 96.8577 15.0633H94.9821C94.9511 14.7326 94.8115 14.4846 94.5635 14.3192C94.3258 14.1435 94.0262 14.0557 93.6645 14.0557C93.3751 14.0557 93.1168 14.1074 92.8894 14.2107C92.6621 14.3141 92.5484 14.5104 92.5484 14.7998C92.5484 15.0064 92.6414 15.1769 92.8274 15.3113C93.0134 15.4353 93.2356 15.5386 93.494 15.6213C93.7523 15.6936 93.9797 15.7557 94.176 15.8073C94.7134 15.9417 95.1836 16.0967 95.5866 16.2724C96 16.448 96.3255 16.6857 96.5632 16.9854C96.8008 17.2851 96.9249 17.6881 96.9352 18.1945C96.9352 18.7008 96.7905 19.1297 96.5012 19.4811C96.2221 19.8324 95.8501 20.1011 95.3851 20.2871C94.9201 20.4628 94.4137 20.5506 93.866 20.5506Z" fill="#FF5A3D"/>
</svg>
