<svg width="135" height="59" viewBox="0 0 135 59" fill="none" xmlns="http://www.w3.org/2000/svg">
<path d="M28.9408 31.3942C30.224 31.3942 31.2643 30.3539 31.2643 29.0707C31.2643 27.7874 30.224 26.7471 28.9408 26.7471C27.6575 26.7471 26.6172 27.7874 26.6172 29.0707C26.6172 30.3539 27.6575 31.3942 28.9408 31.3942Z" fill="#1A2373"/>
<path d="M47.3296 37.03C48.2748 37.4456 48.7107 38.5538 48.216 39.46C46.5835 42.4511 44.2727 45.0291 41.4588 46.9814C38.1317 49.2896 34.2311 50.6329 30.188 50.8627C26.145 51.0925 22.1173 50.1998 18.55 48.2833C14.9827 46.3666 12.0149 43.5009 9.97475 40.003C7.93456 36.5048 6.90142 32.5108 6.98958 28.4622C7.07774 24.4136 8.28374 20.4684 10.4743 17.0625C12.6648 13.6566 15.7545 10.9228 19.4018 9.16331C22.4864 7.67533 25.868 6.93325 29.2753 6.98495C30.3077 7.00061 31.0573 7.92563 30.9539 8.95295C30.8505 9.98028 29.9327 10.7192 28.9003 10.7215C26.1813 10.7278 23.4896 11.3428 21.0264 12.531C18.0002 13.9908 15.4366 16.2591 13.6191 19.0851C11.8016 21.911 10.8009 25.1846 10.7278 28.5435C10.6546 31.9027 11.5118 35.2166 13.2046 38.119C14.8974 41.0214 17.3598 43.3991 20.3196 44.9894C23.2793 46.5796 26.6213 47.3204 29.9759 47.1296C33.3305 46.9391 36.567 45.8245 39.3276 43.9091C41.5745 42.3503 43.435 40.3104 44.7792 37.9468C45.2895 37.0492 46.3846 36.614 47.3296 37.03Z" fill="#FC5223"/>
<path d="M40.4479 34.1007C41.4417 34.535 41.9062 35.7019 41.3418 36.6281C40.2978 38.3417 38.9058 39.8267 37.2479 40.9829C35.0512 42.5149 32.4736 43.4097 29.8001 43.5681C27.1266 43.7266 24.4612 43.1427 22.0989 41.881C19.7364 40.6193 17.7689 38.7288 16.4139 36.4187C15.0588 34.1086 14.369 31.4688 14.4207 28.7911C14.4723 26.1134 15.2635 23.5022 16.7067 21.2462C18.1499 18.9901 20.1888 17.1771 22.5982 16.0075C24.4164 15.125 26.3921 14.6348 28.3976 14.5598C29.4813 14.5193 30.273 15.4941 30.167 16.5734C30.0611 17.6528 29.0947 18.4228 28.0142 18.5176C26.7339 18.6299 25.4792 18.9747 24.3135 19.5406C22.5556 20.3939 21.068 21.7166 20.0152 23.3625C18.9623 25.0085 18.3851 26.9134 18.3474 28.8671C18.3097 30.8205 18.8129 32.7465 19.8015 34.4318C20.7901 36.1171 22.2255 37.4964 23.9491 38.4168C25.6725 39.3374 27.6171 39.7633 29.5675 39.6478C31.5182 39.5321 33.3987 38.8794 35.0012 37.7615C36.0643 37.0203 36.9777 36.0934 37.7005 35.0308C38.3105 34.1342 39.4541 33.6664 40.4479 34.1007Z" fill="#FC5223"/>
<path d="M33.2258 31.8023C34.1064 32.3632 34.3783 33.558 33.602 34.256C33.1222 34.6875 32.5824 35.0523 31.9969 35.3378C30.8413 35.9013 29.5527 36.1344 28.2731 36.011C26.9933 35.8878 25.7727 35.4129 24.7461 34.6394C23.7193 33.8656 22.9267 32.823 22.4556 31.6268C21.9845 30.4307 21.8534 29.1276 22.0767 27.8615C22.3 26.5956 22.869 25.4159 23.721 24.4533C24.5728 23.4904 25.6744 22.7819 26.9038 22.4061C27.5268 22.2157 28.1702 22.1145 28.8154 22.1028C29.8594 22.0839 30.4752 23.1432 30.2138 24.154L30.1794 24.2867C29.9368 25.2242 28.9353 25.7389 28.0091 26.0221C27.4464 26.1941 26.9424 26.5182 26.5527 26.9588C26.1628 27.3993 25.9023 27.9391 25.8003 28.5184C25.6981 29.0976 25.7581 29.6939 25.9737 30.2413C26.1893 30.7885 26.552 31.2658 27.0216 31.6196C27.4914 31.9738 28.05 32.191 28.6356 32.2475C29.2211 32.3037 29.8108 32.1973 30.3397 31.9394C31.2101 31.5148 32.2936 31.2081 33.1106 31.7286L33.2258 31.8023Z" fill="#FC5223"/>
<path d="M29.1823 20.2185C29.2081 19.2703 30.003 18.5085 30.9345 18.6873C32.0019 18.8923 33.0348 19.2613 33.9956 19.7842C35.4608 20.5818 36.7167 21.7149 37.6603 23.0909C38.6039 24.4669 39.2083 26.0465 39.4244 27.7009C39.5661 28.7855 39.5382 29.882 39.3447 30.9516C39.176 31.8849 38.1787 32.352 37.2848 32.0343C36.3912 31.7169 35.9467 30.7315 36.0422 29.7877C36.0973 29.2433 36.0896 28.6923 36.0182 28.1458C35.8723 27.0289 35.4643 25.9626 34.8274 25.0336C34.1903 24.1047 33.3426 23.3397 32.3533 22.8013C31.8693 22.5378 31.3581 22.3322 30.8302 22.1874C29.9156 21.9363 29.1565 21.1668 29.1823 20.2185Z" fill="#1A2373"/>
<path d="M29.405 12.9208C29.4319 11.9642 30.2313 11.202 31.1811 11.3196C33.4529 11.6008 35.6568 12.3079 37.6753 13.4091C40.2022 14.7877 42.3671 16.7446 43.9927 19.1201C45.6185 21.4955 46.6587 24.222 47.0289 27.0767C47.3244 29.3571 47.1857 31.6674 46.6253 33.8869C46.3908 34.8147 45.391 35.2839 44.4897 34.9627C43.5881 34.6414 43.1285 33.6513 43.3421 32.7184C43.731 31.0192 43.8172 29.26 43.5921 27.5222C43.2923 25.21 42.4496 23.0015 41.1328 21.0774C39.816 19.1532 38.0624 17.5681 36.0156 16.4515C34.4774 15.6123 32.8063 15.0557 31.0815 14.8031C30.1346 14.6644 29.378 13.8774 29.405 12.9208Z" fill="#1A2373"/>
<path d="M63.0211 34.7476C62.186 34.7476 61.4378 34.6121 60.7765 34.3409C60.115 34.07 59.5836 33.6687 59.1825 33.1373C58.7922 32.6062 58.5861 31.9662 58.5645 31.2181H61.5247C61.5679 31.6409 61.7143 31.9662 61.9638 32.194C62.2132 32.411 62.5385 32.5193 62.9398 32.5193C63.3517 32.5193 63.677 32.4272 63.9157 32.2428C64.1541 32.0476 64.2735 31.782 64.2735 31.4458C64.2735 31.1639 64.1759 30.9309 63.9807 30.7464C63.7962 30.5621 63.5632 30.4104 63.2813 30.2909C63.0102 30.1717 62.6198 30.0363 62.1102 29.8843C61.3727 29.6566 60.7709 29.4289 60.3048 29.2012C59.8385 28.9735 59.4372 28.6375 59.1012 28.1927C58.765 27.7482 58.597 27.1681 58.597 26.4524C58.597 25.3898 58.9818 24.5603 59.7518 23.9638C60.5216 23.3567 61.5247 23.0531 62.7608 23.0531C64.0186 23.0531 65.0324 23.3567 65.8024 23.9638C66.5722 24.5603 66.9842 25.3952 67.0386 26.4687H64.0295C64.0077 26.1001 63.8722 25.8127 63.6229 25.6066C63.3733 25.3898 63.0536 25.2813 62.6632 25.2813C62.327 25.2813 62.0559 25.3735 61.85 25.5578C61.6439 25.7314 61.541 25.9863 61.541 26.3223C61.541 26.691 61.7143 26.9784 62.0614 27.1843C62.4084 27.3904 62.9504 27.6128 63.6879 27.8512C64.4252 28.1007 65.0217 28.3391 65.4771 28.5668C65.9432 28.7946 66.3445 29.1254 66.6807 29.559C67.0167 29.9928 67.1849 30.5512 67.1849 31.2343C67.1849 31.8849 67.0167 32.476 66.6807 33.0072C66.3554 33.5386 65.8782 33.9615 65.2494 34.2759C64.6204 34.5905 63.8776 34.7476 63.0211 34.7476ZM70.2953 24.6144C69.8073 24.6144 69.406 24.4736 69.0917 24.1915C68.788 23.8988 68.6362 23.5409 68.6362 23.1181C68.6362 22.6844 68.788 22.3266 69.0917 22.0446C69.406 21.7519 69.8073 21.6055 70.2953 21.6055C70.7723 21.6055 71.1627 21.7519 71.4664 22.0446C71.7807 22.3266 71.9381 22.6844 71.9381 23.1181C71.9381 23.5409 71.7807 23.8988 71.4664 24.1915C71.1627 24.4736 70.7723 24.6144 70.2953 24.6144ZM71.6778 25.5578V34.6337H68.8965V25.5578H71.6778ZM78.7519 32.2753V34.6337H77.3369C76.3285 34.6337 75.5422 34.3897 74.9785 33.9018C74.4145 33.4031 74.1327 32.5952 74.1327 31.4783V27.8674H73.0267V25.5578H74.1327V23.3458H76.914V25.5578H78.7357V27.8674H76.914V31.5108C76.914 31.782 76.9791 31.9772 77.1092 32.0964C77.2393 32.2158 77.4561 32.2753 77.7598 32.2753H78.7519ZM88.8565 29.9494C88.8565 30.2096 88.8402 30.4808 88.8077 30.7626H82.5131C82.5566 31.3266 82.7355 31.7604 83.0499 32.0638C83.3752 32.3566 83.7709 32.503 84.2372 32.503C84.9313 32.503 85.4137 32.2102 85.6848 31.6247H88.6451C88.4933 32.2211 88.2168 32.7579 87.8155 33.2349C87.4252 33.7122 86.9319 34.0863 86.3354 34.3572C85.739 34.6284 85.0721 34.7638 84.3348 34.7638C83.4456 34.7638 82.6542 34.5742 81.9601 34.1946C81.2661 33.8151 80.724 33.273 80.3336 32.568C79.9432 31.8633 79.7481 31.0391 79.7481 30.0958C79.7481 29.1524 79.9379 28.3284 80.3173 27.6235C80.7077 26.9187 81.2498 26.3766 81.9438 25.997C82.6379 25.6175 83.4349 25.4277 84.3348 25.4277C85.2131 25.4277 85.9938 25.6122 86.677 25.9807C87.3601 26.3495 87.8915 26.8753 88.271 27.5584C88.6613 28.2415 88.8565 29.0385 88.8565 29.9494ZM86.0101 29.2174C86.0101 28.7404 85.8475 28.361 85.5222 28.0789C85.1969 27.797 84.7902 27.656 84.3023 27.656C83.8359 27.656 83.4402 27.7917 83.1149 28.0626C82.8006 28.3338 82.6054 28.7188 82.5294 29.2174H86.0101Z" fill="#1A2373"/>
<path d="M93.2012 22.5976V34.6337H90.4199V22.5976H93.2012ZM104.488 25.5578L98.7953 38.944H95.8025L97.8844 34.3247L94.1923 25.5578H97.2989L99.3971 31.2343L101.479 25.5578H104.488ZM110.552 32.2753V34.6337H109.137C108.129 34.6337 107.343 34.3897 106.779 33.9018C106.215 33.4031 105.933 32.5952 105.933 31.4783V27.8674H104.827V25.5578H105.933V23.3458H108.714V25.5578H110.536V27.8674H108.714V31.5108C108.714 31.782 108.779 31.9772 108.909 32.0964C109.039 32.2158 109.256 32.2753 109.56 32.2753H110.552ZM113.5 24.6144C113.012 24.6144 112.611 24.4736 112.297 24.1915C111.993 23.8988 111.841 23.5409 111.841 23.1181C111.841 22.6844 111.993 22.3266 112.297 22.0446C112.611 21.7519 113.012 21.6055 113.5 21.6055C113.977 21.6055 114.368 21.7519 114.671 22.0446C114.986 22.3266 115.143 22.6844 115.143 23.1181C115.143 23.5409 114.986 23.8988 114.671 24.1915C114.368 24.4736 113.977 24.6144 113.5 24.6144ZM114.883 25.5578V34.6337H112.101V25.5578H114.883ZM116.345 30.0958C116.345 29.1524 116.535 28.3284 116.915 27.6235C117.305 26.9187 117.842 26.3766 118.525 25.997C119.219 25.6175 120.01 25.4277 120.899 25.4277C122.038 25.4277 122.987 25.726 123.746 26.3223C124.516 26.9187 125.02 27.7592 125.259 28.8434H122.298C122.049 28.1495 121.566 27.8024 120.851 27.8024C120.341 27.8024 119.934 28.0031 119.631 28.4042C119.327 28.7946 119.175 29.3585 119.175 30.0958C119.175 30.8333 119.327 31.4025 119.631 31.8036C119.934 32.194 120.341 32.3891 120.851 32.3891C121.566 32.3891 122.049 32.0422 122.298 31.3482H125.259C125.02 32.411 124.516 33.2458 123.746 33.853C122.976 34.4604 122.027 34.7638 120.899 34.7638C120.01 34.7638 119.219 34.5742 118.525 34.1946C117.842 33.8151 117.305 33.273 116.915 32.5681C116.535 31.8633 116.345 31.0391 116.345 30.0958ZM130.438 34.7638C129.647 34.7638 128.942 34.6284 128.324 34.3572C127.706 34.0863 127.218 33.7175 126.86 33.2512C126.502 32.7742 126.302 32.2428 126.258 31.6572H129.007C129.04 31.9718 129.186 32.2265 129.446 32.4217C129.707 32.6168 130.027 32.7144 130.406 32.7144C130.753 32.7144 131.019 32.6494 131.203 32.5193C131.398 32.3784 131.496 32.1995 131.496 31.9825C131.496 31.7223 131.36 31.5327 131.089 31.4132C130.818 31.2831 130.379 31.1423 129.772 30.9903C129.121 30.8386 128.579 30.6813 128.145 30.5187C127.711 30.3453 127.337 30.0795 127.023 29.7217C126.708 29.3531 126.551 28.8596 126.551 28.2415C126.551 27.7211 126.692 27.2494 126.974 26.8265C127.267 26.3929 127.69 26.0513 128.243 25.8018C128.807 25.5525 129.473 25.4277 130.243 25.4277C131.382 25.4277 132.276 25.7098 132.927 26.2735C133.589 26.8374 133.968 27.5856 134.066 28.5181H131.496C131.452 28.2037 131.311 27.9543 131.073 27.7699C130.845 27.5856 130.541 27.4934 130.162 27.4934C129.837 27.4934 129.587 27.5584 129.414 27.6885C129.24 27.808 129.154 27.976 129.154 28.1927C129.154 28.453 129.289 28.6482 129.56 28.7783C129.842 28.9084 130.276 29.0385 130.861 29.1687C131.534 29.3422 132.081 29.5158 132.504 29.6891C132.927 29.8518 133.296 30.1229 133.61 30.5024C133.935 30.8711 134.103 31.37 134.114 31.9988C134.114 32.5302 133.963 33.0072 133.659 33.4301C133.366 33.8423 132.938 34.1676 132.374 34.406C131.821 34.6446 131.176 34.7638 130.438 34.7638Z" fill="#FF5A3D"/>
</svg>
