<svg width="40" height="40" viewBox="0 0 40 40" fill="none" xmlns="http://www.w3.org/2000/svg">
<path d="M0 20C0 8.95431 8.95431 0 20 0C31.0457 0 40 8.95431 40 20C40 31.0457 31.0457 40 20 40C8.95431 40 0 31.0457 0 20Z" fill="#F4F5F9"/>
<path d="M26.235 10.9365C24.463 9.71513 22.315 9 20 9C13.9249 9 9 13.9249 9 20C9 26.0751 13.9249 31 20 31C26.0751 31 31 26.0751 31 20C31 17.685 30.2849 15.537 29.0635 13.765L27.6199 15.2085C28.4942 16.596 29 18.2389 29 20C29 24.9706 24.9706 29 20 29C15.0294 29 11 24.9706 11 20C11 15.0294 15.0294 11 20 11C21.7611 11 23.404 11.5058 24.7915 12.3801L26.235 10.9365Z" fill="#1A2373"/>
<path d="M28 9C28.5523 9 29 9.44772 29 10V11H30C30.5523 11 31 11.4477 31 12C31 12.5523 30.5523 13 30 13H28.4142L21.8509 19.5633C22.2301 19.7054 22.5 20.0712 22.5 20.5C22.5 21.0523 22.0523 21.5 21.5 21.5H19.5C18.9477 21.5 18.5 21.0523 18.5 20.5V18.5C18.5 17.9477 18.9477 17.5 19.5 17.5C19.9288 17.5 20.2946 17.7699 20.4367 18.1491L27 11.5858V10C27 9.44772 27.4477 9 28 9Z" fill="#1A2373"/>
<path d="M20 13C21.2055 13 22.3399 13.3047 23.3302 13.8414L21.8272 15.3444C21.2612 15.1221 20.6449 15 20 15C17.2386 15 15 17.2386 15 20C15 22.7614 17.2386 25 20 25C22.7614 25 25 22.7614 25 20C25 19.3551 24.8779 18.7388 24.6556 18.1728L26.1586 16.6698C26.6953 17.6601 27 18.7945 27 20C27 23.866 23.866 27 20 27C16.134 27 13 23.866 13 20C13 16.134 16.134 13 20 13Z" fill="#1A2373"/>
</svg>
