<svg width="40" height="40" viewBox="0 0 40 40" fill="none" xmlns="http://www.w3.org/2000/svg">
<path d="M0 20C0 8.95431 8.95431 0 20 0C31.0457 0 40 8.95431 40 20C40 31.0457 31.0457 40 20 40C8.95431 40 0 31.0457 0 20Z" fill="#F4F5F9"/>
<path fill-rule="evenodd" clip-rule="evenodd" d="M19.9994 14C16.6857 14 13.9994 16.6863 13.9994 20C13.9994 23.3137 16.6857 26 19.9994 26C23.3131 26 25.9994 23.3137 25.9994 20C25.9994 16.6863 23.3131 14 19.9994 14ZM15.9994 20C15.9994 17.7909 17.7902 16 19.9994 16C22.2085 16 23.9994 17.7909 23.9994 20C23.9994 22.2092 22.2085 24 19.9994 24C17.7902 24 15.9994 22.2092 15.9994 20Z" fill="#1A2373"/>
<path fill-rule="evenodd" clip-rule="evenodd" d="M22.5012 10.0289C21.1063 8.67948 18.8925 8.67948 17.4976 10.0289C17.1433 10.3717 16.6506 10.5318 16.1625 10.4627C14.2408 10.1909 12.4498 11.4921 12.1145 13.4038C12.0293 13.8893 11.7249 14.3084 11.2894 14.5394C9.57495 15.4491 8.89085 17.5545 9.7432 19.2982C9.95969 19.741 9.95969 20.259 9.7432 20.7019C8.89085 22.4456 9.57495 24.551 11.2894 25.4606C11.7249 25.6917 12.0293 26.1107 12.1145 26.5963C12.4498 28.5079 14.2408 29.8092 16.1625 29.5373C16.6506 29.4683 17.1433 29.6284 17.4976 29.9711C18.8925 31.3206 21.1063 31.3206 22.5012 29.9711C22.8555 29.6284 23.3481 29.4683 23.8362 29.5373C25.7579 29.8092 27.5489 28.5079 27.8843 26.5963C27.9694 26.1107 28.2739 25.6917 28.7094 25.4606C30.4238 24.551 31.1079 22.4456 30.2556 20.7019C30.0391 20.259 30.0391 19.741 30.2556 19.2982C31.1079 17.5545 30.4238 15.4491 28.7094 14.5394C28.2739 14.3084 27.9694 13.8893 27.8843 13.4038C27.5489 11.4921 25.7579 10.1909 23.8362 10.4627C23.3481 10.5318 22.8555 10.3717 22.5012 10.0289ZM18.8882 11.4664C19.5077 10.867 20.491 10.867 21.1106 11.4664C21.9083 12.2381 23.0174 12.5984 24.1163 12.443C24.9699 12.3223 25.7654 12.9002 25.9143 13.7493C26.1061 14.8425 26.7916 15.786 27.772 16.3062C28.5335 16.7102 28.8373 17.6454 28.4587 18.4198C27.9713 19.4169 27.9713 20.5831 28.4587 21.5802C28.8373 22.3547 28.5335 23.2899 27.772 23.6939C26.7916 24.2141 26.1061 25.1576 25.9143 26.2507C25.7654 27.0998 24.9699 27.6778 24.1163 27.5571C23.0174 27.4016 21.9083 27.762 21.1106 28.5337C20.491 29.1331 19.5077 29.1331 18.8882 28.5337C18.0905 27.762 16.9813 27.4016 15.8824 27.5571C15.0289 27.6778 14.2334 27.0998 14.0844 26.2507C13.8927 25.1576 13.2072 24.2141 12.2268 23.6939C11.4653 23.2899 11.1614 22.3547 11.54 21.5802C12.0274 20.5831 12.0274 19.4169 11.54 18.4198C11.1614 17.6454 11.4653 16.7102 12.2268 16.3062C13.2072 15.786 13.8927 14.8425 14.0844 13.7493C14.2334 12.9002 15.0289 12.3223 15.8824 12.443C16.9813 12.5984 18.0905 12.2381 18.8882 11.4664Z" fill="#1A2373"/>
</svg>
