<svg width="40" height="40" viewBox="0 0 40 40" fill="none" xmlns="http://www.w3.org/2000/svg">
<path d="M0 20C0 8.95431 8.95431 0 20 0C31.0457 0 40 8.95431 40 20C40 31.0457 31.0457 40 20 40C8.95431 40 0 31.0457 0 20Z" fill="#F4F5F9"/>
<path d="M20.5 17C20.5 16.4477 20.0523 16 19.5 16C18.9477 16 18.5 16.4477 18.5 17V22C18.5 22.5523 18.9477 23 19.5 23H22.5C23.0523 23 23.5 22.5523 23.5 22C23.5 21.4477 23.0523 21 22.5 21H20.5V17Z" fill="#1A2373"/>
<path fill-rule="evenodd" clip-rule="evenodd" d="M17 10C17 9.44772 17.4477 9 18 9H22C22.5523 9 23 9.44772 23 10C23 10.5523 22.5523 11 22 11H21V12C21 12.0179 20.9995 12.0356 20.9986 12.0533C25.6376 12.5512 29.25 16.4788 29.25 21.25C29.25 26.3586 25.1086 30.5 20 30.5C14.8914 30.5 10.75 26.3586 10.75 21.25C10.75 16.4788 14.3624 12.5512 19.0014 12.0533C19.0005 12.0356 19 12.0179 19 12V11H18C17.4477 11 17 10.5523 17 10ZM20 14C15.9959 14 12.75 17.2459 12.75 21.25C12.75 25.2541 15.9959 28.5 20 28.5C24.0041 28.5 27.25 25.2541 27.25 21.25C27.25 17.2459 24.0041 14 20 14Z" fill="#1A2373"/>
</svg>
