<svg width="24" height="24" viewBox="0 0 24 24" fill="none" xmlns="http://www.w3.org/2000/svg">
<path fill-rule="evenodd" clip-rule="evenodd" d="M5.84548 6.78277C4.07936 5.90013 2 7.18341 2 9.15889V14.8416C2 16.8171 4.07936 18.1004 5.84548 17.2178L11 14.6417V14.8416C11 16.8171 13.0794 18.1004 14.8455 17.2178L20.5309 14.3764C22.4897 13.3975 22.4897 10.6031 20.5309 9.62414L14.8455 6.78277C13.0794 5.90013 11 7.18341 11 9.15889V9.3588L5.84548 6.78277ZM13 14.8416C13 15.329 13.5137 15.6475 13.9514 15.4287L19.6368 12.5874C20.1211 12.3454 20.1211 11.6552 19.6368 11.4132L13.9514 8.57179C13.5137 8.35303 13 8.67156 13 9.15889V14.8416ZM11 11.9994C10.9997 11.7666 10.8787 11.534 10.6368 11.4132L4.95139 8.57179C4.51366 8.35303 4 8.67156 4 9.15889V14.8416C4 15.329 4.51366 15.6475 4.95139 15.4287L10.6368 12.5874C10.8787 12.4665 10.9997 12.2339 11 12.0011V11.9994Z" fill="white"/>
</svg>
