<svg width="20" height="20" viewBox="0 0 20 20" fill="none" xmlns="http://www.w3.org/2000/svg">
<path fill-rule="evenodd" clip-rule="evenodd" d="M10.0001 0C4.4773 0 0.000146762 4.47715 0.000146762 10V12.9841C-4.93376e-05 12.9956 -4.85031e-05 13.007 0.000146762 13.0183V15.4118C0.000146762 16.8412 1.15894 18 2.58838 18C4.01782 18 5.17662 16.8412 5.17662 15.4118V13.2507C5.17662 11.3089 3.46177 10.4095 2.00015 10.7078V10C2.00015 5.58172 5.58187 2 10.0001 2C14.4184 2 18.0001 5.58172 18.0001 10V10.6972C16.539 10.3985 14.8237 11.2952 14.8237 13.2389V15.4118C14.8237 15.8882 14.9524 16.3346 15.177 16.718C14.2919 17.1581 13.084 17.5 11.5001 17.5C10.9479 17.5 10.5001 17.9478 10.5001 18.5C10.5001 19.0523 10.9479 19.5 11.5001 19.5C13.944 19.5 15.7557 18.8106 16.9966 17.9669C17.1318 17.9887 17.2705 18 17.4119 18C18.8414 18 20.0001 16.8412 20.0001 15.4118V13.0178C20.0003 13.0068 20.0003 12.9958 20.0001 12.9847V10C20.0001 4.47715 15.523 0 10.0001 0ZM17.2521 15.978C17.3029 15.9923 17.3565 16 17.4119 16C17.7368 16 18.0001 15.7366 18.0001 15.4118V13.0882C17.959 12.8995 17.874 12.8038 17.7964 12.7481C17.6953 12.6756 17.546 12.6306 17.3761 12.6433C17.2062 12.6561 17.0653 12.723 16.9762 12.8098C16.9007 12.8833 16.8237 13.0063 16.8237 13.2389V15.4118C16.8237 15.631 16.9436 15.8222 17.1215 15.9234C17.1661 15.9384 17.2097 15.9567 17.2521 15.978ZM2.00015 15.4118V13.0927C2.04272 12.907 2.1276 12.8125 2.20537 12.7573C2.30692 12.6853 2.45617 12.641 2.62555 12.6544C2.79493 12.6678 2.93538 12.7349 3.02438 12.822C3.09998 12.8959 3.17662 13.0191 3.17662 13.2507V15.4118C3.17662 15.7366 2.91326 16 2.58838 16C2.26351 16 2.00015 15.7366 2.00015 15.4118Z" fill="white"/>
</svg>
