<svg width="24" height="24" viewBox="0 0 24 24" fill="none" xmlns="http://www.w3.org/2000/svg">
<path d="M16.4412 9.90267C16.8033 9.54183 16.7944 8.96541 16.4213 8.61519C16.0482 8.26498 15.4522 8.2736 15.0901 8.63444L10.2835 13.4241L8.90993 12.0553C8.54782 11.6945 7.95183 11.6859 7.57873 12.0361C7.20564 12.3863 7.19673 12.9627 7.55884 13.3236L9.60799 15.3656C9.78527 15.5422 10.029 15.6419 10.2835 15.6419C10.5381 15.6419 10.7818 15.5422 10.9591 15.3656L16.4412 9.90267Z" fill="white"/>
<path fill-rule="evenodd" clip-rule="evenodd" d="M14.3552 2.92149C13.042 1.69284 10.958 1.69284 9.64479 2.92149C9.31125 3.23356 8.84747 3.3793 8.38797 3.31644C6.57887 3.06896 4.89283 4.2537 4.57715 5.99422C4.49697 6.4363 4.21034 6.81785 3.80039 7.02822C2.18639 7.85643 1.54238 9.77339 2.34479 11.361C2.54859 11.7642 2.54859 12.2358 2.34479 12.639C1.54238 14.2266 2.1864 16.1436 3.80039 16.9718C4.21034 17.1821 4.49697 17.5637 4.57715 18.0058C4.89283 19.7463 6.57887 20.931 8.38797 20.6836C8.84747 20.6207 9.31125 20.7664 9.64479 21.0785C10.958 22.3072 13.042 22.3072 14.3552 21.0785C14.6888 20.7664 15.1525 20.6207 15.612 20.6836C17.4211 20.931 19.1072 19.7463 19.4229 18.0058C19.503 17.5637 19.7897 17.1821 20.1996 16.9718C21.8136 16.1436 22.4576 14.2266 21.6552 12.639C21.4514 12.2358 21.4514 11.7642 21.6552 11.361C22.4576 9.77339 21.8136 7.85643 20.1996 7.02822C19.7897 6.81785 19.503 6.4363 19.4229 5.99422C19.1072 4.2537 17.4211 3.06896 15.612 3.31644C15.1525 3.3793 14.6888 3.23356 14.3552 2.92149ZM10.9539 4.23026C11.5372 3.68453 12.4628 3.68453 13.0461 4.23026C13.797 4.93285 14.8412 5.26098 15.8757 5.11946C16.6793 5.00953 17.4281 5.53576 17.5684 6.30884C17.7489 7.30414 18.3942 8.16318 19.3172 8.63679C20.034 9.00465 20.3201 9.8561 19.9637 10.5612C19.5048 11.4691 19.5048 12.5309 19.9637 13.4388C20.3201 14.1439 20.034 14.9953 19.3172 15.3632C18.3942 15.8368 17.7489 16.6959 17.5684 17.6912C17.4281 18.4642 16.6793 18.9905 15.8757 18.8805C14.8412 18.739 13.797 19.0671 13.0461 19.7697C12.4628 20.3155 11.5372 20.3155 10.9539 19.7697C10.203 19.0671 9.1588 18.739 8.12428 18.8805C7.32074 18.9905 6.57186 18.4642 6.43164 17.6912C6.25112 16.6959 5.6058 15.8368 4.68284 15.3632C3.96596 14.9953 3.67991 14.1439 4.03631 13.4388C4.49516 12.5309 4.49516 11.4691 4.03631 10.5612C3.67991 9.8561 3.96596 9.00465 4.68284 8.63679C5.6058 8.16318 6.25112 7.30414 6.43164 6.30884C6.57186 5.53576 7.32074 5.00953 8.12428 5.11946C9.1588 5.26098 10.203 4.93285 10.9539 4.23026Z" fill="white"/>
</svg>
