<svg width="40" height="40" viewBox="0 0 40 40" fill="none" xmlns="http://www.w3.org/2000/svg">
<rect width="40" height="40" rx="20" fill="#F4F5F9"/>
<path d="M12 29C11.45 29 10.9793 28.8043 10.588 28.413C10.1967 28.0217 10.0007 27.5507 10 27V16C10 15.45 10.196 14.9793 10.588 14.588C10.98 14.1967 11.4507 14.0007 12 14H16V12C16 11.45 16.196 10.9793 16.588 10.588C16.98 10.1967 17.4507 10.0007 18 10H22C22.55 10 23.021 10.196 23.413 10.588C23.805 10.98 24.0007 11.4507 24 12V14H28C28.55 14 29.021 14.196 29.413 14.588C29.805 14.98 30.0007 15.4507 30 16V27C30 27.55 29.8043 28.021 29.413 28.413C29.0217 28.805 28.5507 29.0007 28 29H12ZM18 14H22V12H18V14ZM28 23H23V25H17V23H12V27H28V23ZM19 23H21V21H19V23ZM12 21H17V19H23V21H28V16H12V21Z" fill="#1A2373"/>
</svg>
