<svg width="40" height="40" viewBox="0 0 40 40" fill="none" xmlns="http://www.w3.org/2000/svg">
<rect width="40" height="40" rx="20" fill="#F4F5F9"/>
<path d="M17.5 15C17.5 15.5523 17.0523 16 16.5 16H15.5C14.9477 16 14.5 15.5523 14.5 15C14.5 14.4477 14.9477 14 15.5 14H16.5C17.0523 14 17.5 14.4477 17.5 15Z" fill="#1A2373"/>
<path d="M20.5 19C21.0523 19 21.5 18.5523 21.5 18C21.5 17.4477 21.0523 17 20.5 17H19.5C18.9477 17 18.5 17.4477 18.5 18C18.5 18.5523 18.9477 19 19.5 19H20.5Z" fill="#1A2373"/>
<path d="M17.5 21C17.5 21.5523 17.0523 22 16.5 22H15.5C14.9477 22 14.5 21.5523 14.5 21C14.5 20.4477 14.9477 20 15.5 20H16.5C17.0523 20 17.5 20.4477 17.5 21Z" fill="#1A2373"/>
<path d="M20.5 16C21.0523 16 21.5 15.5523 21.5 15C21.5 14.4477 21.0523 14 20.5 14H19.5C18.9477 14 18.5 14.4477 18.5 15C18.5 15.5523 18.9477 16 19.5 16H20.5Z" fill="#1A2373"/>
<path d="M17.5 18C17.5 18.5523 17.0523 19 16.5 19H15.5C14.9477 19 14.5 18.5523 14.5 18C14.5 17.4477 14.9477 17 15.5 17H16.5C17.0523 17 17.5 17.4477 17.5 18Z" fill="#1A2373"/>
<path d="M20.5 22C21.0523 22 21.5 21.5523 21.5 21C21.5 20.4477 21.0523 20 20.5 20H19.5C18.9477 20 18.5 20.4477 18.5 21C18.5 21.5523 18.9477 22 19.5 22H20.5Z" fill="#1A2373"/>
<path d="M17.5 24C17.5 24.5523 17.0523 25 16.5 25H15.5C14.9477 25 14.5 24.5523 14.5 24C14.5 23.4477 14.9477 23 15.5 23H16.5C17.0523 23 17.5 23.4477 17.5 24Z" fill="#1A2373"/>
<path d="M20.5 25C21.0523 25 21.5 24.5523 21.5 24C21.5 23.4477 21.0523 23 20.5 23H19.5C18.9477 23 18.5 23.4477 18.5 24C18.5 24.5523 18.9477 25 19.5 25H20.5Z" fill="#1A2373"/>
<path fill-rule="evenodd" clip-rule="evenodd" d="M12 13C12 11.8954 12.8954 11 14 11H22C23.1046 11 24 11.8954 24 13V17H27C28.1046 17 29 17.8954 29 19V27H30C30.5523 27 31 27.4477 31 28C31 28.5523 30.5523 29 30 29H10C9.44772 29 9 28.5523 9 28C9 27.4477 9.44772 27 10 27H12V13ZM14 27H22V13H14V27ZM27 23V22H26.5C25.9477 22 25.5 21.5523 25.5 21C25.5 20.4477 25.9477 20 26.5 20H27V19H24V27H27V25H26.5C25.9477 25 25.5 24.5523 25.5 24C25.5 23.4477 25.9477 23 26.5 23H27Z" fill="#1A2373"/>
</svg>
