<svg width="40" height="40" viewBox="0 0 40 40" fill="none" xmlns="http://www.w3.org/2000/svg">
<rect width="40" height="40" rx="20" fill="#F4F5F9"/>
<path d="M24.4111 12.5036C24.6222 11.9185 24.3141 11.2748 23.7231 11.0658C23.1321 10.8569 22.4818 11.1618 22.2707 11.7469L16.5889 27.4964C16.3778 28.0815 16.6859 28.7252 17.2769 28.9342C17.8679 29.1431 18.5182 28.8382 18.7293 28.2531L24.4111 12.5036Z" fill="#1A2373"/>
<path d="M16.9001 14.8761C17.2482 15.3931 17.1071 16.0915 16.5849 16.4362L11.185 20L16.5849 23.5638C17.1071 23.9085 17.2482 24.6069 16.9001 25.1239C16.5519 25.6408 15.8464 25.7805 15.3242 25.4359L8.50602 20.936C8.18989 20.7274 8 20.3761 8 20C8 19.6239 8.18989 19.2726 8.50602 19.064L15.3242 14.5641C15.8464 14.2195 16.5519 14.3592 16.9001 14.8761Z" fill="#1A2373"/>
<path d="M24.0999 14.8761C23.7518 15.3931 23.8929 16.0915 24.4151 16.4362L29.815 20L24.4151 23.5638C23.8929 23.9085 23.7518 24.6069 24.0999 25.1239C24.4481 25.6408 25.1536 25.7805 25.6758 25.4359L32.494 20.936C32.8101 20.7274 33 20.3761 33 20C33 19.6239 32.8101 19.2726 32.494 19.064L25.6758 14.5641C25.1536 14.2195 24.4481 14.3592 24.0999 14.8761Z" fill="#1A2373"/>
</svg>
