<svg width="40" height="40" viewBox="0 0 40 40" fill="none" xmlns="http://www.w3.org/2000/svg">
<rect width="40" height="40" rx="20" fill="#F4F5F9"/>
<path fill-rule="evenodd" clip-rule="evenodd" d="M20 9C16.4006 9 13.2049 10.7299 11.1997 13.3994C9.81871 15.238 9 17.5248 9 20C9 22.4752 9.81871 24.762 11.1997 26.6006C13.2049 29.2701 16.4006 31 20 31C23.5994 31 26.7951 29.2701 28.8003 26.6006C30.1813 24.762 31 22.4752 31 20C31 17.5248 30.1813 15.238 28.8003 13.3994C26.7951 10.7299 23.5994 9 20 9ZM12.9015 14.9176C13.1256 14.8968 13.3897 14.8729 13.6844 14.8473C13.6026 16.0619 13.5309 17.4946 13.5078 19H11.0549C11.2194 17.5099 11.7474 16.1305 12.5486 14.9508C12.651 14.941 12.7693 14.9299 12.9015 14.9176ZM12.5486 25.0492C11.7474 23.8695 11.2194 22.4901 11.0549 21H13.5078C13.5309 22.5054 13.6026 23.9381 13.6844 25.1527C13.3897 25.1271 13.1256 25.1032 12.9015 25.0824C12.7693 25.0701 12.651 25.059 12.5486 25.0492ZM15.5081 21C15.533 22.5746 15.6124 24.0714 15.7002 25.3123C16.7745 25.3887 17.9423 25.4564 19 25.4852V21H15.5081ZM15.9193 27.8659C15.9254 27.9251 15.9312 27.9809 15.9366 28.0329C16.8752 28.5086 17.9082 28.8245 19 28.9451V27.4859C17.9876 27.4595 16.8878 27.3986 15.8665 27.3288C15.8846 27.5195 15.9015 27.6907 15.9167 27.8403C15.9176 27.8489 15.9185 27.8574 15.9193 27.8659ZM24.0634 28.0329C23.1248 28.5086 22.0918 28.8245 21 28.9451V27.4859C22.0124 27.4595 23.1122 27.3986 24.1335 27.3288C24.1154 27.5195 24.0985 27.6907 24.0833 27.8403C24.0763 27.9091 24.0696 27.9734 24.0634 28.0329ZM24.2998 25.3123C23.2255 25.3887 22.0577 25.4564 21 25.4852V21H24.4919C24.467 22.5746 24.3876 24.0714 24.2998 25.3123ZM24.2998 14.6877C24.3876 15.9286 24.467 17.4254 24.4919 19H21V14.5148C22.0577 14.5436 23.2255 14.6113 24.2998 14.6877ZM24.1335 12.6712C23.1122 12.6014 22.0124 12.5405 21 12.5141V11.0549C22.0918 11.1755 23.1248 11.4914 24.0634 11.9671C24.0696 12.0266 24.0763 12.0909 24.0833 12.1597C24.0985 12.3093 24.1154 12.4805 24.1335 12.6712ZM15.8665 12.6712C16.8878 12.6014 17.9876 12.5405 19 12.5141V11.0549C17.9082 11.1755 16.8752 11.4914 15.9366 11.9671C15.9304 12.0266 15.9237 12.0909 15.9167 12.1597C15.9015 12.3093 15.8846 12.4805 15.8665 12.6712ZM19 14.5148C17.9423 14.5436 16.7745 14.6113 15.7002 14.6877C15.6124 15.9286 15.533 17.4254 15.5081 19H19V14.5148ZM27.0985 14.9176C26.8744 14.8968 26.6103 14.8729 26.3156 14.8473C26.3974 16.0619 26.4691 17.4946 26.4922 19H28.9451C28.7806 17.5099 28.2526 16.1305 27.4514 14.9508C27.349 14.941 27.2307 14.9299 27.0985 14.9176ZM26.3156 25.1527C26.3974 23.9381 26.4691 22.5054 26.4922 21H28.9451C28.7806 22.4901 28.2526 23.8695 27.4514 25.0492C27.349 25.059 27.2307 25.0701 27.0985 25.0824C26.8744 25.1032 26.6103 25.1271 26.3156 25.1527Z" fill="#1A2373"/>
</svg>
