<svg width="40" height="40" viewBox="0 0 40 40" fill="none" xmlns="http://www.w3.org/2000/svg">
<rect width="40" height="40" rx="20" fill="#F4F5F9"/>
<path fill-rule="evenodd" clip-rule="evenodd" d="M21.0002 12.0298C21.0002 10.7392 19.2417 10.3583 18.7077 11.5332L14.2183 21.4099C13.8572 22.2044 14.438 23.1064 15.3108 23.1064H19.0002V28.1831C19.0002 29.4737 20.7586 29.8545 21.2926 28.6797L25.782 18.803C26.1431 18.0085 25.5623 17.1064 24.6896 17.1064H21.0002V12.0298ZM16.5532 21.1064L19.0002 15.7231V17.9064C19.0002 18.5692 19.5374 19.1064 20.2002 19.1064H23.4472L21.0002 24.4898V22.3064C21.0002 21.6437 20.4629 21.1064 19.8002 21.1064H16.5532Z" fill="#1A2373"/>
</svg>
