<svg width="78" height="34" viewBox="0 0 78 34" fill="none" xmlns="http://www.w3.org/2000/svg">
<g clip-path="url(#clip0_12102_27170)">
<path d="M16.6344 18.0452C17.372 18.0452 17.97 17.4472 17.97 16.7096C17.97 15.972 17.372 15.374 16.6344 15.374C15.8968 15.374 15.2988 15.972 15.2988 16.7096C15.2988 17.4472 15.8968 18.0452 16.6344 18.0452Z" fill="#1A2373"/>
<path d="M27.2056 21.2847C27.7489 21.5236 27.9995 22.1606 27.7151 22.6814C26.7768 24.4007 25.4485 25.8825 23.8312 27.0047C21.9188 28.3314 19.6768 29.1035 17.3529 29.2356C15.029 29.3677 12.7139 28.8546 10.6634 27.753C8.61301 26.6513 6.90715 25.0041 5.73446 22.9936C4.56178 20.9829 3.96795 18.6871 4.01862 16.36C4.06929 14.0329 4.76249 11.7653 6.02158 9.80757C7.28068 7.84989 9.05663 6.27854 11.1531 5.26722C12.926 4.41195 14.8698 3.98541 16.8282 4.01512C17.4216 4.02413 17.8525 4.55582 17.7931 5.14631C17.7336 5.73681 17.2061 6.16151 16.6127 6.16288C15.0498 6.16647 13.5027 6.51996 12.0869 7.20294C10.3474 8.04204 8.87388 9.34583 7.82919 10.9701C6.7845 12.5945 6.20934 14.4761 6.1673 16.4068C6.12525 18.3376 6.61796 20.2424 7.59095 21.9107C8.56395 23.5789 9.97932 24.9456 11.6806 25.8597C13.3818 26.7738 15.3028 27.1995 17.2309 27.0899C19.1591 26.9804 21.0194 26.3397 22.6062 25.2388C23.8977 24.3427 24.9671 23.1702 25.7397 21.8117C26.033 21.2958 26.6625 21.0456 27.2056 21.2847Z" fill="#FC5223"/>
<path d="M23.2489 19.6008C23.8201 19.8504 24.0871 20.5211 23.7627 21.0535C23.1626 22.0385 22.3625 22.892 21.4095 23.5566C20.1469 24.4371 18.6653 24.9515 17.1286 25.0426C15.5919 25.1336 14.0599 24.798 12.702 24.0728C11.3441 23.3476 10.2132 22.261 9.43434 20.9331C8.65547 19.6053 8.25896 18.088 8.28866 16.5489C8.31837 15.0097 8.77312 13.5088 9.60264 12.2121C10.4322 10.9154 11.6042 9.87325 12.989 9.20101C14.0341 8.6937 15.1697 8.41195 16.3225 8.36886C16.9454 8.34559 17.4004 8.9059 17.3395 9.52627C17.2786 10.1467 16.7231 10.5893 16.1021 10.6437C15.3662 10.7083 14.645 10.9065 13.9749 11.2318C12.9645 11.7222 12.1095 12.4825 11.5043 13.4286C10.8991 14.3747 10.5674 15.4696 10.5457 16.5925C10.524 17.7153 10.8133 18.8224 11.3815 19.7911C11.9498 20.7598 12.7748 21.5526 13.7655 22.0816C14.7561 22.6107 15.8738 22.8556 16.9949 22.7892C18.1161 22.7227 19.197 22.3475 20.1182 21.705C20.7292 21.2789 21.2542 20.7462 21.6697 20.1354C22.0203 19.62 22.6776 19.3512 23.2489 19.6008Z" fill="#FC5223"/>
<path d="M19.0982 18.2804C19.6044 18.6028 19.7607 19.2895 19.3145 19.6907C19.0387 19.9388 18.7284 20.1484 18.3918 20.3126C17.7277 20.6365 16.987 20.7704 16.2515 20.6995C15.5158 20.6287 14.8143 20.3557 14.2242 19.9111C13.634 19.4664 13.1784 18.8671 12.9076 18.1796C12.6368 17.492 12.5615 16.743 12.6898 16.0153C12.8182 15.2876 13.1453 14.6096 13.6349 14.0562C14.1246 13.5028 14.7578 13.0956 15.4644 12.8796C15.8225 12.7701 16.1923 12.7119 16.5632 12.7052C17.1633 12.6944 17.5172 13.3033 17.3669 13.8842L17.3472 13.9605C17.2077 14.4994 16.6321 14.7952 16.0997 14.958C15.7763 15.0569 15.4866 15.2432 15.2626 15.4964C15.0385 15.7496 14.8888 16.0599 14.8301 16.3928C14.7714 16.7258 14.8058 17.0685 14.9298 17.3832C15.0537 17.6977 15.2622 17.972 15.5321 18.1754C15.8022 18.379 16.1232 18.5038 16.4598 18.5363C16.7964 18.5686 17.1353 18.5074 17.4393 18.3592C17.9396 18.1152 18.5624 17.9389 19.032 18.238L19.0982 18.2804Z" fill="#FC5223"/>
<path d="M16.7738 11.6208C16.7886 11.0757 17.2455 10.6378 17.781 10.7406C18.3945 10.8584 18.9882 11.0705 19.5404 11.3711C20.3827 11.8295 21.1045 12.4809 21.6469 13.2717C22.1893 14.0627 22.5367 14.9706 22.6609 15.9215C22.7423 16.545 22.7263 17.1752 22.6151 17.79C22.5181 18.3265 21.9449 18.5949 21.4311 18.4124C20.9174 18.2299 20.6619 17.6635 20.7168 17.121C20.7485 16.8081 20.7441 16.4914 20.7031 16.1773C20.6192 15.5353 20.3847 14.9224 20.0186 14.3884C19.6524 13.8545 19.1651 13.4148 18.5965 13.1053C18.3183 12.9539 18.0244 12.8357 17.721 12.7524C17.1953 12.6081 16.759 12.1658 16.7738 11.6208Z" fill="#1A2373"/>
<path d="M16.9027 7.42626C16.9182 6.87641 17.3777 6.43834 17.9237 6.50592C19.2294 6.66756 20.4962 7.07399 21.6564 7.70696C23.1089 8.49931 24.3532 9.62417 25.2876 10.9896C26.2221 12.3549 26.82 13.9221 27.0328 15.563C27.2027 16.8737 27.1229 18.2016 26.8008 19.4774C26.666 20.0107 26.0913 20.2803 25.5733 20.0957C25.0551 19.911 24.7909 19.342 24.9136 18.8057C25.1372 17.829 25.1868 16.8179 25.0573 15.819C24.885 14.49 24.4006 13.2205 23.6438 12.1146C22.8869 11.0086 21.8789 10.0975 20.7024 9.45567C19.8183 8.97332 18.8578 8.6534 17.8664 8.50817C17.3221 8.42845 16.8873 7.97612 16.9027 7.42626Z" fill="#1A2373"/>
<path d="M36.2237 19.9729C35.7437 19.9729 35.3137 19.895 34.9336 19.7392C34.5533 19.5834 34.2479 19.3528 34.0174 19.0473C33.793 18.742 33.6745 18.3742 33.6621 17.9442H35.3636C35.3885 18.1872 35.4726 18.3742 35.616 18.5051C35.7594 18.6298 35.9463 18.6921 36.177 18.6921C36.4138 18.6921 36.6008 18.6392 36.7379 18.5331C36.875 18.421 36.9436 18.2683 36.9436 18.075C36.9436 17.913 36.8875 17.7791 36.7753 17.673C36.6693 17.5671 36.5353 17.4799 36.3733 17.4113C36.2175 17.3428 35.9931 17.2649 35.7002 17.1775C35.2763 17.0467 34.9304 16.9158 34.6625 16.7849C34.3944 16.654 34.1637 16.4609 33.9706 16.2052C33.7774 15.9498 33.6808 15.6163 33.6808 15.2049C33.6808 14.5941 33.902 14.1174 34.3446 13.7745C34.7871 13.4255 35.3636 13.251 36.0742 13.251C36.7971 13.251 37.3798 13.4255 37.8224 13.7745C38.2649 14.1174 38.5017 14.5972 38.5329 15.2143H36.8034C36.7908 15.0024 36.713 14.8372 36.5696 14.7188C36.4262 14.5941 36.2424 14.5318 36.0181 14.5318C35.8248 14.5318 35.6689 14.5848 35.5506 14.6907C35.4321 14.7905 35.373 14.937 35.373 15.1301C35.373 15.3421 35.4726 15.5073 35.6721 15.6256C35.8715 15.7441 36.1831 15.8719 36.607 16.0089C37.0308 16.1524 37.3737 16.2894 37.6354 16.4203C37.9033 16.5512 38.134 16.7413 38.3273 16.9906C38.5204 17.2399 38.6171 17.5609 38.6171 17.9535C38.6171 18.3275 38.5204 18.6672 38.3273 18.9725C38.1403 19.278 37.866 19.5211 37.5045 19.7018C37.143 19.8826 36.716 19.9729 36.2237 19.9729ZM40.4049 14.1485C40.1244 14.1485 39.8937 14.0675 39.713 13.9054C39.5385 13.7371 39.4513 13.5314 39.4513 13.2884C39.4513 13.0391 39.5385 12.8334 39.713 12.6714C39.8937 12.5031 40.1244 12.4189 40.4049 12.4189C40.6791 12.4189 40.9034 12.5031 41.078 12.6714C41.2587 12.8334 41.3491 13.0391 41.3491 13.2884C41.3491 13.5314 41.2587 13.7371 41.078 13.9054C40.9034 14.0675 40.6791 14.1485 40.4049 14.1485ZM41.1995 14.6907V19.9074H39.6009V14.6907H41.1995ZM45.2657 18.5518V19.9074H44.4523C43.8727 19.9074 43.4207 19.7672 43.0967 19.4867C42.7726 19.2001 42.6106 18.7358 42.6106 18.0937V16.0183H41.9748V14.6907H42.6106V13.4192H44.2092V14.6907H45.2563V16.0183H44.2092V18.1124C44.2092 18.2683 44.2466 18.3805 44.3214 18.449C44.3962 18.5177 44.5208 18.5518 44.6954 18.5518H45.2657ZM51.0737 17.2149C51.0737 17.3645 51.0643 17.5204 51.0456 17.6824H47.4276C47.4525 18.0065 47.5554 18.2559 47.7361 18.4303C47.9231 18.5986 48.1505 18.6827 48.4186 18.6827C48.8175 18.6827 49.0948 18.5144 49.2506 18.1779H50.9521C50.8649 18.5207 50.706 18.8292 50.4753 19.1034C50.251 19.3778 49.9674 19.5928 49.6246 19.7485C49.2817 19.9044 48.8984 19.9822 48.4747 19.9822C47.9635 19.9822 47.5086 19.8733 47.1097 19.655C46.7108 19.4369 46.3992 19.1253 46.1748 18.7201C45.9504 18.315 45.8382 17.8413 45.8382 17.2991C45.8382 16.7568 45.9474 16.2832 46.1655 15.878C46.3898 15.473 46.7014 15.1614 47.1004 14.9431C47.4993 14.725 47.9574 14.6159 48.4747 14.6159C48.9795 14.6159 49.4282 14.722 49.8209 14.9338C50.2136 15.1457 50.519 15.448 50.7371 15.8406C50.9615 16.2333 51.0737 16.6914 51.0737 17.2149ZM49.4376 16.7942C49.4376 16.52 49.3441 16.3019 49.1571 16.1398C48.9701 15.9778 48.7364 15.8967 48.456 15.8967C48.1879 15.8967 47.9605 15.9747 47.7735 16.1305C47.5928 16.2863 47.4806 16.5076 47.4369 16.7942H49.4376Z" fill="#1A2373"/>
<path d="M53.5713 12.9892V19.9074H51.9727V12.9892H53.5713ZM60.0589 14.6907L56.7867 22.3849H55.0665L56.2632 19.7298L54.141 14.6907H55.9266L57.1326 17.9535L58.3293 14.6907H60.0589ZM63.5444 18.5518V19.9074H62.7311C62.1514 19.9074 61.6996 19.7672 61.3755 19.4867C61.0513 19.2001 60.8893 18.7358 60.8893 18.0937V16.0183H60.2536V14.6907H60.8893V13.4192H62.488V14.6907H63.5351V16.0183H62.488V18.1124C62.488 18.2683 62.5254 18.3805 62.6002 18.449C62.675 18.5177 62.7996 18.5518 62.9741 18.5518H63.5444ZM65.239 14.1485C64.9585 14.1485 64.7279 14.0675 64.5472 13.9054C64.3726 13.7371 64.2854 13.5314 64.2854 13.2884C64.2854 13.0391 64.3726 12.8334 64.5472 12.6714C64.7279 12.5031 64.9585 12.4189 65.239 12.4189C65.5132 12.4189 65.7376 12.5031 65.9121 12.6714C66.0928 12.8334 66.1833 13.0391 66.1833 13.2884C66.1833 13.5314 66.0928 13.7371 65.9121 13.9054C65.7376 14.0675 65.5132 14.1485 65.239 14.1485ZM66.0337 14.6907V19.9074H64.435V14.6907H66.0337ZM66.8743 17.2991C66.8743 16.7568 66.9834 16.2832 67.2015 15.878C67.4259 15.473 67.7344 15.1614 68.127 14.9431C68.526 14.725 68.9809 14.6159 69.492 14.6159C70.1464 14.6159 70.6917 14.7874 71.1281 15.1301C71.5705 15.473 71.8604 15.956 71.9975 16.5792H70.296C70.1527 16.1804 69.8753 15.9809 69.4639 15.9809C69.1711 15.9809 68.9373 16.0963 68.7628 16.3268C68.5882 16.5512 68.501 16.8753 68.501 17.2991C68.501 17.723 68.5882 18.0502 68.7628 18.2807C68.9373 18.5051 69.1711 18.6173 69.4639 18.6173C69.8753 18.6173 70.1527 18.4179 70.296 18.019H71.9975C71.8604 18.6298 71.5705 19.1097 71.1281 19.4587C70.6856 19.8078 70.1402 19.9822 69.492 19.9822C68.9809 19.9822 68.526 19.8733 68.127 19.655C67.7344 19.4369 67.4259 19.1253 67.2015 18.7201C66.9834 18.315 66.8743 17.8413 66.8743 17.2991ZM74.9749 19.9822C74.5199 19.9822 74.1148 19.9044 73.7595 19.7485C73.4043 19.5928 73.1238 19.3808 72.9181 19.1128C72.7125 18.8386 72.5972 18.5331 72.5722 18.1966H74.1522C74.1709 18.3774 74.255 18.5238 74.4046 18.636C74.5542 18.7482 74.7381 18.8043 74.9562 18.8043C75.1556 18.8043 75.3084 18.7669 75.4143 18.6921C75.5265 18.6111 75.5826 18.5083 75.5826 18.3836C75.5826 18.234 75.5047 18.125 75.3489 18.0563C75.193 17.9816 74.9406 17.9006 74.5916 17.8133C74.2176 17.7261 73.9061 17.6356 73.6567 17.5422C73.4074 17.4425 73.1923 17.2897 73.0116 17.0841C72.8309 16.8722 72.7405 16.5886 72.7405 16.2333C72.7405 15.9341 72.8216 15.663 72.9836 15.4199C73.1519 15.1707 73.3949 14.9744 73.7128 14.8309C74.0369 14.6876 74.4203 14.6159 74.8627 14.6159C75.5172 14.6159 76.0314 14.7781 76.4053 15.1021C76.7855 15.4262 77.0037 15.8563 77.0597 16.3922H75.5826C75.5576 16.2115 75.4767 16.0682 75.3395 15.9622C75.2086 15.8563 75.0341 15.8032 74.816 15.8032C74.629 15.8032 74.4857 15.8406 74.3859 15.9154C74.2862 15.9841 74.2363 16.0806 74.2363 16.2052C74.2363 16.3548 74.3142 16.467 74.4701 16.5418C74.6321 16.6166 74.8814 16.6914 75.218 16.7662C75.6044 16.866 75.9192 16.9657 76.1622 17.0654C76.4053 17.1588 76.6173 17.3147 76.798 17.5328C76.9849 17.7448 77.0815 18.0315 77.0878 18.3929C77.0878 18.6984 77.0006 18.9725 76.826 19.2156C76.6577 19.4526 76.4116 19.6395 76.0874 19.7766C75.7696 19.9137 75.3987 19.9822 74.9749 19.9822Z" fill="#FF5A3D"/>
</g>
<defs>
<clipPath id="clip0_12102_27170">
<rect width="77.5966" height="33.3893" fill="white"/>
</clipPath>
</defs>
</svg>
