<svg width="40" height="40" viewBox="0 0 40 40" fill="none" xmlns="http://www.w3.org/2000/svg">
<path d="M17.12 6.17501C17.294 6.45341 17.4115 6.76336 17.4657 7.08716C17.5199 7.41095 17.5098 7.74226 17.436 8.06216C17.3622 8.38206 17.2261 8.68428 17.0354 8.95158C16.8448 9.21887 16.6034 9.44601 16.325 9.62001C13.2822 11.5152 10.865 14.2646 9.375 17.525C10.8797 17.3992 12.3874 17.7305 13.7007 18.4755C15.0141 19.2206 16.0719 20.3447 16.7359 21.7009C17.3999 23.057 17.6391 24.582 17.4222 26.0763C17.2053 27.5706 16.5424 28.9647 15.5202 30.076C14.498 31.1874 13.1642 31.9644 11.6932 32.3053C10.2222 32.6462 8.68261 32.5351 7.27577 31.9867C5.86893 31.4382 4.66041 30.4779 3.80831 29.2313C2.95621 27.9847 2.50022 26.51 2.5 25V24.9325C2.50272 24.739 2.51106 24.5456 2.525 24.3525C2.5475 23.9775 2.5925 23.4525 2.68 22.8075C2.855 21.525 3.1975 19.7575 3.89 17.7725C5.27 13.7975 8.065 8.88501 13.675 5.38001C13.9534 5.206 14.2634 5.08854 14.5871 5.03433C14.9109 4.98011 15.2423 4.9902 15.5622 5.06402C15.882 5.13784 16.1843 5.27395 16.4516 5.46458C16.7189 5.6552 16.946 5.8966 17.12 6.17501ZM34.62 6.17501C34.794 6.45341 34.9115 6.76336 34.9657 7.08716C35.0199 7.41095 35.0098 7.74226 34.936 8.06216C34.8622 8.38206 34.7261 8.68428 34.5354 8.95158C34.3448 9.21887 34.1034 9.44601 33.825 9.62001C30.7822 11.5152 28.365 14.2646 26.875 17.525C28.3797 17.3992 29.8874 17.7305 31.2007 18.4755C32.5141 19.2206 33.572 20.3447 34.2359 21.7009C34.8999 23.057 35.1391 24.582 34.9222 26.0763C34.7053 27.5706 34.0424 28.9647 33.0202 30.076C31.998 31.1874 30.6642 31.9644 29.1932 32.3053C27.7222 32.6462 26.1826 32.5351 24.7758 31.9867C23.3689 31.4382 22.1604 30.4779 21.3083 29.2313C20.4562 27.9847 20.0002 26.51 20 25V24.9325C20.0027 24.739 20.0111 24.5456 20.025 24.3525C20.0475 23.9775 20.0925 23.4525 20.18 22.8075C20.355 21.525 20.6975 19.7575 21.39 17.7725C22.77 13.7975 25.565 8.88501 31.175 5.38001C31.4534 5.206 31.7634 5.08854 32.0872 5.03433C32.4109 4.98011 32.7423 4.9902 33.0622 5.06402C33.382 5.13784 33.6843 5.27395 33.9516 5.46458C34.2189 5.6552 34.446 5.8966 34.62 6.17501Z" fill="#FF5A3D"/>
</svg>
