<svg width="40" height="40" viewBox="0 0 40 40" fill="none" xmlns="http://www.w3.org/2000/svg">
<rect width="40" height="40" rx="20" fill="#F4F5F9"/>
<path fill-rule="evenodd" clip-rule="evenodd" d="M18.7159 9.71531C18.7159 8.42478 16.9574 8.04389 16.4234 9.21875L11.934 19.0954C11.5729 19.8899 12.1537 20.792 13.0265 20.792H16.7159V25.8687C16.7159 27.1592 18.4743 27.5401 19.0083 26.3652L23.4977 16.4886C23.8588 15.694 23.278 14.792 22.4053 14.792H18.7159V9.71531ZM14.2689 18.792L16.7159 13.4086V15.592C16.7159 16.2547 17.2531 16.792 17.9159 16.792H21.1629L18.7159 22.1754V19.992C18.7159 19.3292 18.1786 18.792 17.5159 18.792H14.2689Z" fill="#1A2373"/>
</svg>
