<svg width="40" height="40" viewBox="0 0 40 40" fill="none" xmlns="http://www.w3.org/2000/svg">
<rect width="40" height="40" rx="20" fill="#F4F5F9"/>
<path fill-rule="evenodd" clip-rule="evenodd" d="M15.5 15C15.5 12.2386 17.7386 10 20.5 10C23.2614 10 25.5 12.2386 25.5 15C25.5 17.7614 23.2614 20 20.5 20C17.7386 20 15.5 17.7614 15.5 15ZM20.5 12C18.8431 12 17.5 13.3431 17.5 15C17.5 16.6569 18.8431 18 20.5 18C22.1569 18 23.5 16.6569 23.5 15C23.5 13.3431 22.1569 12 20.5 12Z" fill="#1A2373"/>
<path fill-rule="evenodd" clip-rule="evenodd" d="M15.0554 29.9174C16.7298 30.6502 18.9595 31 20.5 31C22.0405 31 24.2702 30.6502 25.9446 29.9174C26.7666 29.5576 27.6025 29.0427 28.0882 28.2974C28.3437 27.9054 28.5052 27.4437 28.4999 26.9282C28.4946 26.4174 28.3266 25.9281 28.0441 25.4728C26.6747 23.2656 23.8732 21 20.5 21C17.1268 21 14.3253 23.2656 12.9559 25.4728C12.6734 25.9281 12.5054 26.4174 12.5001 26.9282C12.4948 27.4437 12.6563 27.9054 12.9118 28.2974C13.3975 29.0427 14.2334 29.5576 15.0554 29.9174ZM14.5 26.9487C14.5008 26.8757 14.5237 26.7394 14.6554 26.5272C15.7775 24.7185 18.0157 23 20.5 23C22.9843 23 25.2225 24.7185 26.3446 26.5272C26.4763 26.7394 26.4992 26.8757 26.5 26.9487C26.5007 27.017 26.4831 27.0973 26.4126 27.2055C26.2465 27.4605 25.8429 27.7787 25.1427 28.0852C23.7726 28.6848 21.8268 29 20.5 29C19.1732 29 17.2274 28.6848 15.8573 28.0852C15.1571 27.7787 14.7535 27.4605 14.5874 27.2055C14.5169 27.0973 14.4993 27.017 14.5 26.9487Z" fill="#1A2373"/>
<path fill-rule="evenodd" clip-rule="evenodd" d="M28.7065 11.2084C28.7212 11.2149 28.7357 11.2215 28.75 11.2281C28.7643 11.2215 28.7788 11.2149 28.7935 11.2084C29.2626 11.0005 29.9566 10.868 30.725 11.2083C31.2129 11.4245 31.5974 11.7801 31.8136 12.2576C32.0228 12.7197 32.0348 13.2074 31.9526 13.6407C31.8408 14.2302 31.5009 14.7082 31.1838 15.0524C30.8567 15.4075 30.4767 15.7031 30.1547 15.9246C29.3058 16.5086 28.1942 16.5086 27.3453 15.9246C27.0233 15.7031 26.6433 15.4075 26.3162 15.0525C25.9992 14.7082 25.6592 14.2302 25.5474 13.6407C25.4652 13.2074 25.4772 12.7197 25.6864 12.2576C25.9026 11.7801 26.2871 11.4245 26.775 11.2083C27.5434 10.868 28.2374 11.0006 28.7065 11.2084ZM28.0232 13.1124C28.0351 13.1216 28.0431 13.1284 28.0467 13.1316C28.2337 13.3166 28.4864 13.4207 28.75 13.4207C29.0137 13.4207 29.2664 13.3166 29.4534 13.1315C29.4569 13.1284 29.4649 13.1215 29.4769 13.1124C29.5071 13.0893 29.5516 13.06 29.6036 13.037C29.6952 12.9964 29.7862 12.9799 29.9149 13.037C29.9656 13.0594 29.9858 13.0774 29.9903 13.0817L29.992 13.0834C29.992 13.0834 29.9933 13.0871 29.9943 13.0909C29.9958 13.0969 29.9977 13.1069 29.9989 13.1218C30.0014 13.152 30.0005 13.2002 29.9876 13.268C29.9751 13.3343 29.9117 13.4814 29.7128 13.6974C29.5238 13.9026 29.2749 14.1023 29.0212 14.2768C28.855 14.3912 28.6451 14.3912 28.4788 14.2769C28.2251 14.1023 27.9762 13.9026 27.7873 13.6974C27.5883 13.4814 27.525 13.3343 27.5124 13.268C27.4995 13.2002 27.4986 13.152 27.5011 13.1218C27.5023 13.1069 27.5043 13.0969 27.5057 13.0909C27.5067 13.0871 27.508 13.0834 27.508 13.0834L27.5097 13.0817C27.5142 13.0774 27.5344 13.0594 27.5851 13.037C27.7138 12.9799 27.8048 12.9964 27.8964 13.037C27.9485 13.06 27.9929 13.0893 28.0232 13.1124Z" fill="#1A2373"/>
</svg>
