<svg width="40" height="40" viewBox="0 0 40 40" fill="none" xmlns="http://www.w3.org/2000/svg">
<path d="M0 20C0 8.95431 8.95431 0 20 0C31.0457 0 40 8.95431 40 20C40 31.0457 31.0457 40 20 40C8.95431 40 0 31.0457 0 20Z" fill="#F4F5F9"/>
<path fill-rule="evenodd" clip-rule="evenodd" d="M17.5234 8.52344C12.5529 8.52344 8.52344 12.5529 8.52344 17.5234C8.52344 22.494 12.5529 26.5234 17.5234 26.5234C19.6485 26.5234 21.6015 25.787 23.1411 24.5553L26.8163 28.2305C27.2069 28.6211 27.84 28.6211 28.2305 28.2305C28.6211 27.84 28.6211 27.2069 28.2305 26.8163L24.5553 23.1411C25.787 21.6015 26.5234 19.6485 26.5234 17.5234C26.5234 12.5529 22.494 8.52344 17.5234 8.52344ZM10.5234 17.5234C10.5234 13.6574 13.6574 10.5234 17.5234 10.5234C21.3894 10.5234 24.5234 13.6574 24.5234 17.5234C24.5234 21.3894 21.3894 24.5234 17.5234 24.5234C13.6574 24.5234 10.5234 21.3894 10.5234 17.5234Z" fill="#1A2373"/>
</svg>
