<svg width="40" height="40" viewBox="0 0 40 40" fill="none" xmlns="http://www.w3.org/2000/svg">
<path d="M0 20C0 8.95431 8.95431 0 20 0C31.0457 0 40 8.95431 40 20C40 31.0457 31.0457 40 20 40C8.95431 40 0 31.0457 0 20Z" fill="#F4F5F9"/>
<path d="M11.8163 21.4831C11.4258 21.8736 11.4258 22.5068 11.8163 22.8973C12.2069 23.2878 12.84 23.2878 13.2305 22.8973L16.5912 19.5366L17.8909 20.5981C18.2993 20.9316 18.8965 20.8907 19.2556 20.5046L22.5263 16.9887L23.7939 18.3408C24.1716 18.7437 24.8045 18.7641 25.2074 18.3864C25.6103 18.0087 25.6307 17.3758 25.253 16.9729L23.253 14.8396C23.0635 14.6374 22.7986 14.523 22.5215 14.5235C22.2444 14.5241 21.98 14.6395 21.7913 14.8424L18.4298 18.456L17.156 17.4157C16.7583 17.0909 16.1794 17.1201 15.8163 17.4831L11.8163 21.4831Z" fill="#1A2373"/>
<path fill-rule="evenodd" clip-rule="evenodd" d="M11.5234 9.52344C9.3143 9.52344 7.52344 11.3143 7.52344 13.5234V23.5234C7.52344 25.7326 9.3143 27.5234 11.5234 27.5234H25.5234C27.7326 27.5234 29.5234 25.7326 29.5234 23.5234V13.5234C29.5234 11.3143 27.7326 9.52344 25.5234 9.52344H11.5234ZM9.52344 13.5234C9.52344 12.4189 10.4189 11.5234 11.5234 11.5234H25.5234C26.628 11.5234 27.5234 12.4189 27.5234 13.5234V23.5234C27.5234 24.628 26.628 25.5234 25.5234 25.5234H11.5234C10.4189 25.5234 9.52344 24.628 9.52344 23.5234V13.5234Z" fill="#1A2373"/>
</svg>
